<?xml version="1.0" encoding="UTF-8" standalone="no"?><svg xmlns:svg="http://www.w3.org/2000/svg" xmlns="http://www.w3.org/2000/svg" version="1.1" style="overflow:visible" viewBox="-250 -250 500 500" height="500px" width="500px"><rect fill-opacity="0" fill="rgb(0,0,0)" height="500" width="500" y="-250" x="-250" /><svg version="1.1" y="-250" x="-250" viewBox="-250 -250 500 500" height="500px" width="500px" style="overflow:visible"><g transform="rotate(0,0,0)" stroke-linejoin="round" fill="#fff"><path stroke-linecap="butt" stroke-linejoin="round" stroke-width="6" stroke-opacity="1" stroke="rgb(0,0,0)" fill="rgb(255,255,255)" d="m28.704 58.355999c-3.41138 23.2008-3.65805 62.5402-20.3272 77.2083c-11.4913 8.68109-29.6072 6.09474-49.7912 4.69172c-14.3404-0.99682-21.0896 8.259-21.0896 15.083l11.3596 1.93973s-2.7775 2.4336-2.22655 6.01695c9.49486 4.69141 33.4433 4.67889 59.4841 1.35129c21.6232-2.76309 35.0576-69.1987 46.0568-104.649z" /><path stroke-linecap="round" stroke-linejoin="round" stroke-width="6" stroke-opacity="1" stroke="rgb(0,0,0)" fill="none" d="m-51.144001 157.279c6.60225-7.28144 18.0394-3.71104 33.478-4.06445" /><path stroke-linecap="butt" stroke-linejoin="round" stroke="none" fill="rgb(255,255,255)" d="m-65.915001-166.993601c-3.60863 0.167772-6.34654 4.1693-4.20976 11.7093c-50.8218-3.32826-78.6097 73.8357-39.7197 98.2848c-11.5972 90.9192 51.761 152.313 115.583 154.552c9.07534 20.7508 45.669 15.377 45.2621-6.09601c49.7758-13.9495 82.5918-49.1408 94.0677-98.7255c24.6553 10.4241 23.715-18.4681 6.24989-19.0835c22.4355-16.3174 9.29902-34.7583-9.76359-21.2824c-48.27 34.1235-122.237-12.2913-137.829-45.8902c-15.8282-34.1077-27.9488-52.3895-47.8415-58.6299c11.7702-13.8138-5.83219-19.3292-12.3596-3.54915c-1.35092-7.79301-5.83091-11.4569-9.43953-11.2891z" /><path stroke-linecap="butt" stroke-linejoin="round" stroke="none" fill="rgb(0,0,0)" d="m-69.525-107.536a8.02654 8.026339 0 0 1-8.026541 8.026339a8.02654 8.026339 0 0 1-8.026541-8.02634a8.02654 8.026339 0 0 1 8.02654-8.02634a8.02654 8.026339 0 0 1 8.02654 8.026339z" /><path stroke-linecap="round" stroke-linejoin="round" stroke-width="6" stroke-opacity="1" stroke="rgb(0,0,0)" fill="none" d="m6.036999-13.558c14.3718 7.36978 36.7181-2.0193 52.0473-11.4351c18.5639-11.4028 33.8407 15.6641 11.1841 37.4698c34.7111 10.8776-23.3347 89.297-90.365 7.42265" /><path stroke-linecap="butt" stroke-linejoin="round" stroke-width="6" stroke-opacity="1" stroke="rgb(0,0,0)" fill="none" d="m-65.915001-166.993601c-3.60863 0.167772-6.34654 4.1693-4.20976 11.7093c-50.8218-3.32826-78.6097 73.8357-39.7197 98.2848c-11.5972 90.9192 51.761 152.313 115.583 154.552c9.07534 20.7508 45.669 15.377 45.2621-6.09601c49.7758-13.9495 82.5918-49.1408 94.0677-98.7255c24.6553 10.4241 23.715-18.4681 6.24989-19.0835c22.4355-16.3174 9.29902-34.7583-9.76359-21.2824c-48.27 34.1235-122.237-12.2913-137.829-45.8902c-15.8282-34.1077-27.9488-52.3895-47.8415-58.6299c11.7702-13.8138-5.83219-19.3292-12.3596-3.54915c-1.35092-7.79301-5.83091-11.4569-9.43953-11.2891z" /><path stroke-linecap="butt" stroke-linejoin="round" stroke-width="6" stroke-opacity="1" stroke="rgb(0,0,0)" fill="rgb(255,255,255)" d="m-126.201-101.407001c-17.2099 2.89842-35.2127 11.4865-37.6844 23.0348c-1.96008 9.158 15.1799-3.86276 39.4899 4.34917c4.27043-2.33432 7.77461-6.56594 9.74517-10.8167c-2.18685-8.61204-5.16277-12.8116-11.5506-16.5673z" /></g></svg></svg>