<?xml version="1.0" encoding="UTF-8" standalone="no"?><svg xmlns:svg="http://www.w3.org/2000/svg" xmlns="http://www.w3.org/2000/svg" version="1.1" style="overflow:visible" viewBox="-250 -250 500 500" height="500px" width="500px"><rect fill-opacity="0" fill="rgb(0,0,0)" height="500" width="500" y="-250" x="-250" /><svg version="1.1" y="-250" x="-250" viewBox="-250 -250 500 500" height="500px" width="500px" style="overflow:visible"><g transform="rotate(0,0,0)" stroke-linejoin="round" fill="#fff"><path stroke-linecap="butt" stroke-linejoin="round" stroke-width="6" stroke-opacity="1" stroke="rgb(68,68,68)" fill="rgb(255,255,255)" d="m111.36-3.182c14.0867-16.5454 29.9284-7.04336 32.8477 6.91442l-8.06785 2.59291c10.8869 15.2844-0.7385 21.9484-18.729 27.0815z" /><path stroke-linecap="butt" stroke-linejoin="round" stroke-width="6" stroke-opacity="1" stroke="rgb(68,68,68)" fill="rgb(255,255,255)" d="m-109.317-71.15s-3.76116-16.5353-12.6902-21.0373c-6.61414-3.33486-13.2556-10.5884-9.42434-13.4751c3.57779-2.69583 11.1128 6.67283 14.282 5.65286c3.17125-1.02071 3.99238-29.321 0.11038-36.1412c-11.4285-15.3619-11.5077-35.8251-0.92989-36.9722c4.91812 0.61503 0.40201 17.3807 6.16801 24.3932c2.63303 3.20226 11.9161-8.9098 14.1704-6.78374c7.0258 6.62617-3.02453 11.2779-6.88057 16.758199c-2.091401 2.972 1.044389 23.0975-1.57344 36.5881c-1.93914 9.99158 6.36262 29.7965 4.29893 31.4429c-2.06369 1.64671-7.53089-0.42584-7.53089-0.42584z" /><path stroke-linecap="butt" stroke-linejoin="round" stroke-width="6" stroke-opacity="1" stroke="rgb(68,68,68)" fill="rgb(255,255,255)" d="m-90.845-77.062001c-2.76956-5.51619 16.6947-17.404 12.1267-29.8431c-3.98659-10.8559 2.1821-24.2767 8.281919-21.3233c6.2236 3.0125-1.11039 16.206 4.40051 23.8506c8.235799 7.35634 23.2943 0.31738 23.8007-5.967c1.45233-9.11139-0.27923-17.7394 4.25554-18.0046c6.00709-0.35114 3.90452 15.0749 9.35699 15.287c8.27494 0.32124 23.8966-12.7884 23.5455-24.404c-0.17737-5.86343-7.96301-18.797-2.19398-20.5902c4.16737-1.29489 6.1876 11.4289 11.6422 10.868c7.43323-1.75016 1.48686-28.9135 7.47189-29.7898c4.78236-0.700218 7.19485 11.7144 4.83709 24.2598c-6.32373 33.6398-34.3801 52.7922-63.8715 60.5688c-6.37034 1.6798-18.984 2.58298-24.8027 6.20973c-4.4806 2.79269-15.6115 14.3879-18.8508 8.87814z" /><path stroke-linecap="butt" stroke-linejoin="round" stroke="none" fill="rgb(132,132,132)" d="m-46.779 161.723c-2.25874 4.27401-4.138621 9.16133-4.64337 15.2768h15.5048c2.41963-2.41932 3.82023-5.80302 4.97042-9.67919l-6.0829-5.9305z" /><path stroke-linecap="butt" stroke-linejoin="round" stroke="none" fill="rgb(132,132,132)" d="m97.72 162.822999c-3.39343 4.09025-7.02763 8.22136-7.02763 14.1766h17.5883s2.22931-4.27204 4.16287-8.95854l-4.95115-7.04522z" /><path stroke-linecap="butt" stroke-linejoin="round" stroke="none" fill="rgb(255,255,255)" d="m-97.095-101.244c-0.54933 7.29794-1.09402 14.5954-4.63124 21.6959c-18.6877-0.0966-18.4724 18.5972-38.5904 27.5155c-6.81313 3.02037-3.42219 9.66985 0.56528 12.4709c9.02855 6.34273 24.9925 2.97445 32.1806 6.02148c25.2439 20.103 25.0414 37.2253 37.8535 68.5617c4.93735 12.0767 23.3864 27.6528 23.3864 27.6528c12.2282 26.6734 14.5416 52.2818 9.41595 79.8376c-1.22928 6.60865-6.07922 12.0491-9.86413 19.211c4.73289 1.65582 10.1359 3.5687 15.8319 5.59756c0.72963-2.4588 1.3613-5.11189 2.081449-7.85435c1.75518-2.66011 5.33553-4.77013 5.84054-7.14787c8.22381-50.1987 10.9035-63.7644 2.57606-82.2862c29.2458 3.66611 63.8072 8.76478 93.0531 3.33674c10.3696 22.2217 23.7579 22.3996 33.246499 40.7777c4.133568 8.0062 3.20867 24.4704-3.20393 41.1976c-1.04131 2.71624-2.9421 5.09029-4.92399 7.47891c4.59213 1.61523 9.51788 3.36221 14.7215 5.21809c0.00011-0.00026 0.002 0.00025 0.002 0c1.26413-3.06379 2.40309-6.29981 2.70325-8.65575c2.4046-2.10919 5.12888-4.15511 5.16827-5.69246c0.46028-17.9625 1.98388-17.7364 4.49801-38.8298c1.5623-13.1076-7.84754-21.0258-6.44822-35.3598c2.048449-20.9836 6.98445-38.1231 10.2316-54.8736c4.14587-23.9033-16.0035-37.7418-41.0696-41.7002c-23.3658-3.68946-118.287 2.21346-131.314-7.69691c-18.1459-13.8046-31.6746-42.3172-42.832-52.5623c0.84514-10.422-1.829-17.8925-10.4779-23.9143z" /><path stroke-linecap="butt" stroke-linejoin="round" stroke="none" fill="rgb(68,68,68)" d="m-137.288-53.59c-0.96075 0.55254-1.96208 1.07869-3.03626 1.55483c-2.90394 1.28736-3.9437 3.23596-3.88405 5.2627c3.17238 1.52992 9.53907 3.43936 10.7758 2.51549c3.39214-2.53471 0.0298-6.10677-3.85512-9.33302z" /><path stroke-linecap="butt" stroke-linejoin="round" stroke="none" fill="rgb(68,68,68)" d="m-99.269-58.382001a4.48987 4.4893 0 0 1-4.48989 4.48928a4.48987 4.4893 0 0 1-4.48986-4.48928a4.48987 4.4893 0 0 1 4.48986-4.48932a4.48987 4.4893 0 0 1 4.48989 4.48932z" /><path stroke-linecap="butt" stroke-linejoin="round" stroke="none" fill="rgb(224,197,154)" d="m-14.567001 20.831c-2.12782 1.00711-5.03362-0.67543-6.49027-3.75806c-1.45665-3.08265-0.91251-6.39802 1.21535-7.40509c2.12782-1.00708 5.03362 0.67546 6.49022 3.75807c1.45662 3.08262 0.91252 6.39799-1.2153 7.40508zm19.4295 21.1685c-2.12781 1.00709-5.03361-0.67545-6.49027-3.75807c-1.45664-3.08265-0.91251-6.39803 1.21535-7.40508c2.12783-1.007101 5.03363 0.67546 6.49023 3.75806c1.45662 3.08262 0.91252 6.39798-1.21531 7.40509zm32.1592 2.59618c-2.12783 1.0071-5.03363-0.67544-6.49027-3.75806c-1.45665-3.08266-0.91252-6.39803 1.21535-7.40508c2.12782-1.007101 5.03361 0.67544 6.49021 3.75806c1.45662 3.08261 0.91253 6.39798-1.21529 7.40508zm48.6117 7.09436c-2.12783 1.0071-5.03362-0.67545-6.49027-3.75806c-1.45664-3.08265-0.91252-6.39803 1.21535-7.40508c2.12783-1.00709 5.03362 0.67545 6.49022 3.75806c1.45661 3.08261 0.91253 6.39798-1.2153 7.40508zm-23.4548-9.48913c-2.12783 1.00709-5.03363-0.67545-6.49027-3.75806c-1.45665-3.08266-0.91252-6.39804 1.21535-7.40509c2.12782-1.00708 5.03361 0.67546 6.49021 3.75806c1.45662 3.08262 0.91253 6.39798-1.21529 7.40509zm-64.6177-39.0658c-2.12783 1.0071-5.03363-0.67545-6.49027-3.75806c-1.45665-3.08266-0.91252-6.39803 1.21535-7.40509c2.12782-1.00709 5.03361 0.67545 6.49021 3.75807c1.45662 3.08262 0.91253 6.39798-1.21529 7.40508zm28.7475 3.34787c-2.12783 1.0071-5.03361-0.67545-6.49027-3.75806c-1.45665-3.08266-0.91251-6.39803 1.21535-7.40509c2.12783-1.00709 5.03362 0.67545 6.49023 3.75807s0.91252 6.39799-1.21531 7.40508zm-10.4902 18.6888c-2.12782 1.00709-5.03362-0.67545-6.49027-3.75807c-1.45665-3.08266-0.91251-6.39803 1.21535-7.40508c2.12783-1.007101 5.03362 0.67545 6.49023 3.75806c1.45661 3.08262 0.91252 6.39798-1.21531 7.40509zm34.008-20.6019c-2.12783 1.0071-5.03363-0.67546-6.49028-3.75807c-1.45664-3.08265-0.91252-6.39803 1.21535-7.40509c2.12783-1.00709 5.03362 0.67545 6.49022 3.75807c1.45662 3.08262 0.91252 6.39799-1.21529 7.40509zm-5.89868 19.3854c-2.12783 1.0071-5.03362-0.67546-6.49028-3.75806c-1.45664-3.08267-0.9125-6.39803 1.21535-7.40509c2.12783-1.007101 5.03363 0.67544 6.49023 3.75807c1.45661 3.08261 0.91252 6.39797-1.2153 7.40508zm26.4668-0.0794c-2.12782 1.00709-5.03362-0.67545-6.49027-3.75807c-1.45664-3.08266-0.91252-6.39803 1.21535-7.40508c2.12783-1.007101 5.03362 0.67545 6.49022 3.75806c1.45662 3.08262 0.91253 6.39798-1.2153 7.40509zm9.52669-19.0908c-2.12781 1.0071-5.03361-0.67545-6.49027-3.75806c-1.45663-3.08265-0.91251-6.39803 1.21536-7.40509c2.12782-1.00709 5.03362 0.67545 6.49022 3.75807c1.45662 3.08262 0.91252 6.39799-1.21531 7.40508zm12.9143 27.3163c-2.12783 1.0071-5.03362-0.67545-6.49027-3.75806c-1.45665-3.08265-0.91252-6.39803 1.21535-7.40509c2.12783-1.007101 5.03361 0.67544 6.49022 3.75807c1.45661 3.08262 0.91253 6.39798-1.2153 7.40508zm10.0454-18.1974c-2.12783 1.00708-5.03363-0.67546-6.49027-3.75807c-1.45665-3.08266-0.91252-6.39803 1.21535-7.40508c2.12783-1.007101 5.03361 0.67545 6.49022 3.75806s0.91253 6.39797-1.2153 7.40509z" /><path stroke-linecap="butt" stroke-linejoin="round" stroke-width="6" stroke-opacity="1" stroke="rgb(68,68,68)" fill="none" d="m-97.095-101.244c-0.54933 7.29794-1.09402 14.5954-4.63124 21.6959c-18.6877-0.0966-18.4724 18.5972-38.5904 27.5155c-6.81313 3.02037-3.42219 9.66985 0.56528 12.4709c9.02855 6.34273 24.9925 2.97445 32.1806 6.02148c25.2439 20.103 25.0414 37.2253 37.8535 68.5617c4.93735 12.0767 23.3864 27.6528 23.3864 27.6528c12.2282 26.6734 14.5409 52.2827 9.41527 79.8384c-1.96289 10.5525-13.1563 18.124-14.5068 34.4869h15.5052c3.95449-3.95399 5.19552-10.4681 7.05092-17.5339c1.75518-2.66012 5.33643-4.77066 5.84144-7.14838c8.22381-50.1987 10.9032-63.7635 2.57572-82.2853c29.2458 3.66611 63.8072 8.76478 93.0531 3.33674c10.3696 22.2217 23.7578 22.3992 33.2464 40.7773c4.13358 8.006209 3.20789 24.4699-3.20471 41.1971c-2.82433 7.36724-11.9532 12.2232-11.9532 21.6564h17.5884s6.10812-11.6545 6.86751-17.6148c2.4046-2.10918 5.13008-4.15532 5.16948-5.69266c0.46027-17.9625 1.98414-17.7367 4.49826-38.83c1.56231-13.1076-7.84758-21.024-6.44826-35.358c2.048449-20.9836 6.98402-38.1239 10.2311-54.8744c4.14588-23.9033-16.0035-37.7418-41.0696-41.7002c-23.3658-3.68946-118.287 2.21346-131.314-7.69691c-18.1459-13.8046-31.6746-42.3172-42.832-52.5623c0.84514-10.422-1.829-17.8925-10.4779-23.9143z" /></g></svg></svg>