<?xml version="1.0" encoding="UTF-8" standalone="no"?><svg xmlns:svg="http://www.w3.org/2000/svg" xmlns="http://www.w3.org/2000/svg" version="1.1" style="overflow:visible" viewBox="-250 -250 500 500" height="500px" width="500px"><rect fill-opacity="0" fill="rgb(0,0,0)" height="500" width="500" y="-250" x="-250" /><svg version="1.1" y="-250" x="-250" viewBox="-250 -250 500 500" height="500px" width="500px" style="overflow:visible"><g transform="rotate(0,0,0)" stroke-linejoin="round" fill="#fff"><path stroke-linecap="butt" stroke-linejoin="round" stroke-width="6" stroke-opacity="1" stroke="rgb(68,68,68)" fill="rgb(255,255,255)" d="m-20.66-112.762c19.094-20.6346 63.4589-32.6395 81.9804-29.4375c34.0556 5.8877-18.6082 11.4059-21.3993 57.8796z" /><path stroke-linecap="butt" stroke-linejoin="round" stroke-width="6" stroke-opacity="1" stroke="rgb(68,68,68)" fill="rgb(255,255,255)" d="m-124.312-40.611s8.94358 53.3838 44.2189 69.7068c17.2362 7.97608-7.5253-17.0386 2.061189-45.9876" /><path stroke-linecap="butt" stroke-linejoin="round" stroke="none" fill="rgb(255,255,255)" d="m-112.146-69.901001l-83.2813 42.3115c-6.31246 11.6873 7.13892 15.7179 25.468 15.1902c25.0681-0.72176 60.5573-10.2645 116.324 2.29773l0.006-0.002l3.04901-14.4795l-13.3824-5.78506z" /><path stroke-linecap="butt" stroke-linejoin="round" stroke="none" fill="rgb(255,255,255)" d="m-14.729001-23.671l-10.2423 9.39328l16.0673 10.1461l0.008 0.006l-0.004-0.008c52.263 11.772 84.8611 41.5299 103.396 64.3382h0.01l-17.3429-101.241z" /><path stroke-linecap="butt" stroke-linejoin="round" stroke="none" fill="rgb(255,255,255)" d="m-61.436001-123.388c-45.6735 0.47666-98.9487 14.7761-108.011 59.2852l10.921 8.01974l-12.2686 5.61536c-12.345 5.46775-25.4829 11.3307-24.6322 22.8784c28.5023 4.9843 50.7968-5.07626 75.5683-9.25681c4.88185-0.88681 10.017-1.33341 15.1734-1.40191c15.4691-0.20555 31.1299 2.98794 40.7228 7.88013c2.63879 6.00429 5.73212 13.067 10.3334 20.2646l-0.006 0.002c0.005 0.001 0.0102 0.003 0.0155 0.004c9.68025 15.7877 31.6394 34.0723 53.8427 35.7088c17.0752 1.25853-3.44713-16.424801-9.11954-29.7366c-0.003-0.002-0.005-0.004-0.008-0.006c-3.74866-7.13307-5.78154-13.9016-5.82502-19.5394c62.6186 13.4734 105.706 58.7704 109.235 83.8757h-0.01c7.9103 9.73404 13.2755 18.2111 16.4881 23.4698c11.723 19.1904-2.01923 46.4642 9.48215 57.4102c8.58584 8.17074 15.4441-16.2732 24.6555-22.1144c9.21054-5.84074 53.6138 11.8704 51.8338 1.8343c-4.01511-22.6383-46.9831-41.9614-57.5851-53.726c-16.566401-31.2395-35.2382-103.337-79.0509-146.829c-28.6813-28.4718-67.6813-40.169-101.063-42.9083c-6.57821-0.53981-13.5422-0.80369-20.692-0.72907z" /><path stroke-linecap="butt" stroke-linejoin="round" stroke="none" fill="rgb(255,255,255)" d="m28.576-89.13c-3.78758 0.80316-5.01594 6.03468-1.48159 8.33055c26.8613 17.9954 40.1525 38.838 52.8057 60.6953c3.05238 5.34256 11.0587 0.71099 7.94513-4.59616c-12.7918-22.0924-27.1997-44.6638-55.6354-63.7224c-1.30359-0.78272-2.2939-0.86658-3.63384-0.70729z" /><path stroke-linecap="butt" stroke-linejoin="round" stroke="none" fill="rgb(255,255,255)" d="m-169.4475-64.103002c-0.86819 4.26398-1.33668 8.80215-1.34767 13.6351c0 0 17.4145 3.61341 39.2258-3.1218c10.0217-3.09465 8.2706-7.54568-1.10915-5.88295c-12.6305 2.23899-27.7713-1.65901-36.769-4.63035z" /><path stroke-linecap="butt" stroke-linejoin="round" stroke="none" fill="rgb(68,68,68)" d="m-98.737-62.852001c-0.00001 3.56252-2.88924 6.45051-6.45329 6.45051s-6.45328-2.88799-6.45329-6.45051c0.00001-3.56252 2.88924-6.45051 6.45329-6.45051s6.45328 2.88799 6.45329 6.45051z" /><path stroke-linecap="round" stroke-linejoin="round" stroke-width="6" stroke-opacity="1" stroke="rgb(68,68,68)" fill="none" d="m-195.4281-27.589c28.5023 4.98429 50.7975-5.07755 75.569-9.25811" /><path stroke-linecap="round" stroke-linejoin="round" stroke-width="6" stroke-opacity="1" stroke="rgb(68,68,68)" fill="none" d="m-53.63-10.103001c-4.60128-7.1976-7.69362-14.2616-10.3324-20.2658" /><path stroke-linecap="round" stroke-linejoin="round" stroke-width="6" stroke-opacity="1" stroke="rgb(68,68,68)" fill="none" d="m-14.729001-23.671c0.0435 5.63781 2.07573 12.4058 5.8244 19.5388" /><path stroke-linecap="butt" stroke-linejoin="round" stroke-width="6" stroke-opacity="1" stroke="rgb(68,68,68)" fill="none" d="m-40.744-122.66c-52.6256-4.31844-129.906 9.01224-130.050002 72.1909c-12.345 5.46774-25.4842 11.3317-24.6336 22.8794c-6.31246 11.6872 7.13919 15.7182 25.4683 15.1905c25.0705-0.72183 60.5636-10.2676 116.339 2.30002c9.68025 15.7877 31.6407 34.0737 53.844 35.7102c17.0786 1.25878-3.45642-16.432401-9.12413-29.745c74.5676 16.796 109.143 70.228 119.883 87.8086c11.723 19.1904-2.01775 46.4639 9.48363 57.4099c8.58584 8.17074 15.443-16.2736 24.6544-22.1148c9.21054-5.84074 53.6135 11.8711 51.8335 1.83499c-4.01512-22.6383-46.9816-41.9626-57.5837-53.7272c-16.566401-31.2395-35.2398-103.336-79.0524-146.828c-28.6813-28.4718-67.6806-40.1697-101.063-42.909z" /></g></svg></svg>