<?xml version="1.0" encoding="UTF-8" standalone="no"?><svg xmlns:svg="http://www.w3.org/2000/svg" xmlns="http://www.w3.org/2000/svg" version="1.1" style="overflow:visible" viewBox="-250 -250 500 500" height="500px" width="500px"><rect fill-opacity="0" fill="rgb(0,0,0)" height="500" width="500" y="-250" x="-250" /><svg version="1.1" y="-250" x="-250" viewBox="-250 -250 500 500" height="500px" width="500px" style="overflow:visible"><g transform="rotate(0,0,0)" stroke-linejoin="round" fill="#fff"><path stroke-linecap="butt" stroke-linejoin="round" stroke-width="6" stroke-opacity="1" stroke="rgb(68,68,68)" fill="rgb(255,255,255)" d="m17.502999 95.939s15.3242 60.4316 3.09968 60.4316c-22.9076 0-32.1126 5.62962-51.1628 5.62962c-0.84334-12.7332-13.1098-7.76411-21.0112-9.53044c0-19.2877 43.889-9.75069 61.6211-12.1276c0.01-13.7098-8.26436-30.694-7.05972-46.7857z" /><path stroke-linecap="butt" stroke-linejoin="round" stroke="none" fill="rgb(255,255,255)" d="m-120.460001-133.550002s10.4911-36.501 54.2807-26.8594c55.1264 12.1377 14.9805 104.544 38.8918 121.147c18.1911 12.6315 84.0135 9.46161 139.897 57.2189c20.1791 2.12893 27.8518-9.04561 36.7627-9.99885c11.3974-1.21925 4.45029 25.4638-11.2993 31.1254c9.39572-0.44638 21.9884 6.87046 20.1454 16.7816c-1.4586 7.84408-15.3599 0.7305-24.8188 4.5325c-14.2591 27.4679-67.2781 49.1166-104.037 43.2549c-2.96999 7.27551-13.1063 7.68315-17.9958 0.12967c-6.79086 6.89355-15.5708 4.32711-19.7768-5.1658c0 0-86.3109-20.4602-101.648-84.5239c-13.7749-57.5392 39.2505-97.6371 29.8886-113.788c-5.0313-8.67992-26.0212-6.43505-26.0212-6.43505l-20.2664-4.93388z" /><path stroke-linecap="butt" stroke-linejoin="round" stroke="none" fill="rgb(68,68,68)" d="m-88.025-140.906a4.83559 4.83538 0 0 1-4.8356 4.83538a4.83559 4.83538 0 0 1-4.83558-4.83538a4.83559 4.83538 0 0 1 4.83558-4.83539a4.83559 4.83538 0 0 1 4.8356 4.83539z" /><path stroke-linecap="round" stroke-linejoin="round" stroke-width="6" stroke-opacity="1" stroke="rgb(68,68,68)" fill="none" d="m-33.956-4.472001c-33.8439 26.9706 4.36231 68.3776 60.2578 73.1042c52.5478 4.44359 109.715-20.6059 89.0167-26.8036c-11.6744-3.49556-24.4264-10.1534-37.5853-19.9634" /><path stroke-linecap="butt" stroke-linejoin="round" stroke-width="6" stroke-opacity="1" stroke="rgb(68,68,68)" fill="none" d="m-120.460001-133.550002s10.4911-36.501 54.2807-26.8594c55.1264 12.1377 14.9805 104.544 38.8918 121.147c18.1911 12.6315 84.0135 9.46161 139.897 57.2189c20.1791 2.12893 27.8518-9.04561 36.7627-9.99885c11.3974-1.21925 4.45029 25.4638-11.2993 31.1254c9.39572-0.44638 21.9884 6.87046 20.1454 16.7816c-1.4586 7.84408-15.3599 0.7305-24.8188 4.5325c-14.2591 27.4679-67.2781 49.1166-104.037 43.2549c-2.96999 7.27551-13.1063 7.68315-17.9958 0.12967c-6.79086 6.89355-15.5708 4.32711-19.7768-5.1658c0 0-86.3109-20.4602-101.648-84.5239c-13.7749-57.5392 39.2505-97.6371 29.8886-113.788c-5.0313-8.67992-26.0212-6.43505-26.0212-6.43505l-20.2664-4.93388z" /><path stroke-linecap="butt" stroke-linejoin="round" stroke="none" fill="rgb(255,255,255)" d="m-120.460001-133.550002c4.09298 7.5374 9.36088 13.5083 17.907 15.1084l-3.63737 12.3106c-18.7168 12.6925-39.793 18.0124-48.6847 11.751c-13.5717-9.55699 14.4793-11.8128 34.4151-39.17z" /><path stroke-linecap="butt" stroke-linejoin="round" stroke="none" fill="rgb(68,68,68)" d="m-118.289-118.830001c0.60846 1.55187-0.91387 3.60013-3.40023 4.5749c-2.48634 0.97477-4.99519 0.506939-5.60365-1.04493c-0.60846-1.55186 0.91387-3.60012 3.40022-4.57488c2.48634-0.97478 4.99519-0.50696 5.60366 1.04491z" /><path stroke-linecap="butt" stroke-linejoin="round" stroke-width="6" stroke-opacity="1" stroke="rgb(68,68,68)" fill="none" d="m-120.460001-133.550002c4.09298 7.5374 9.36088 13.5083 17.907 15.1084l-3.63737 12.3106c-18.7168 12.6925-39.793 18.0124-48.6847 11.751c-13.5717-9.55699 14.4793-11.8128 34.4151-39.17z" /></g></svg></svg>