<?xml version="1.0" encoding="UTF-8" standalone="no"?><svg xmlns:svg="http://www.w3.org/2000/svg" xmlns="http://www.w3.org/2000/svg" version="1.1" style="overflow:visible" viewBox="-250 -250 500 500" height="500px" width="500px"><rect fill-opacity="0" fill="rgb(0,0,0)" height="500" width="500" y="-250" x="-250" /><svg version="1.1" y="-250" x="-250" viewBox="-250 -250 500 500" height="500px" width="500px" style="overflow:visible"><g transform="rotate(0,0,0)" stroke-linejoin="round" fill="#fff"><path stroke-linecap="butt" stroke-linejoin="round" stroke-width="6" stroke-opacity="1" stroke="rgb(68,68,68)" fill="rgb(255,255,255)" d="m-141.701-147.326c36.4956-18.2639 48.8006 12.2356 88.7374 20.2823l-11.2683 5.63397c26.2311 23.2048 84.1362 51.2692 96.6251 51.2692l-57.1747 23.1922l-105.651-62.3483z" /><path stroke-linecap="butt" stroke-linejoin="round" stroke-width="6" stroke-opacity="1" stroke="rgb(68,68,68)" fill="rgb(255,255,255)" d="m157.093-84.043c66.647099-13.8718 29.0223 122.763 31.8471 158.202c-32.1586-70.5782 5.15702-102.086-31.8471-158.202z" /><path stroke-linecap="butt" stroke-linejoin="round" stroke="none" fill="rgb(223,223,223)" d="m172.283 70.309l-31.4788 0.0255c1.98742 2.67605 4.17337 5.4254 6.59397 8.257759c12.4229 14.5361 13.3708 61.7045 12.0716 68.4321c-1.039741 5.38409-3.25126 8.75512-5.58556 11.5146l6.90628 6.2636l10.3997-1.4039c0.7783-3.90932 2.07758-8.61618 6.38013-15.1892c2.38015-3.63621-3.67777-16.56-3.85319-28.9659c-0.23946-16.935 3.83239-33.3941-1.43415-48.9344z" /><path stroke-linecap="butt" stroke-linejoin="round" stroke="none" fill="rgb(223,223,223)" d="m-44.51 93.321l-19.78 0.4846c1.82912 47.7807-5.85818 58.823-11.7008 65.654l7.20603 7.22325l12.2561-1.75732c0.62591-5.37415 2.35436-9.44919 6.9275-16.8373c4.88599-7.89349-2.76547-28.1315 5.09116-54.7672z" /><path stroke-linecap="butt" stroke-linejoin="round" stroke="none" fill="rgb(255,255,255)" d="m-158.1004-173.1268c-7.52695 9.33394-9.10919 22.2053-2.2405 31.3379c-7.28674 8.73156-12.2676 15.3814-14.7379 23.7295c-3.25543 13.0667-26.4151 23.3775-20.8159 37.8476c-4.10996 6.86564 4.09051 15.8515 12.0775 12.9134c5.24788 5.04256 15.1762 0.20314 17.8867-6.45474c15.7989-4.93179 20.9917-18.5354 28.997-17.3631c10.3729 1.51907 39.2402 52.1304 39.2402 52.1304c-1.29772 28.0342 7.69104 41.7045 20.6177 51.2063c-0.62302 23.5556 2.24076 47.9891 12.7858 81.5848c6.02386 4.11021 12.7085 3.48084 19.78-0.4846c3.8102-12.9174-0.90222-49.6528 5.50905-72.3559c52.4759 4.22772 102.095 2.75695 144.697-18.3656c15.2143 22.7466 15.8876 41.855 35.1084 67.7356h0.002c12.6621 6.43838 17.389 8.08362 31.4769-0.0255c-0.53328-1.57359-1.16015-3.13864-1.89914-4.69294c-6.17626-12.9904-9.51626-42.0344-6.32912-57.6493c3.18713-15.6149 14.405-44.068 5.24027-73.2152c-6.9302-22.0405-32.213701-36.8125-66.5519-34.2631c-25.2377 1.8737-71.3234 20.6616-100.301 18.3283c-69.784-5.61921-97.5275-57.2662-144.144-66.1425c-5.59466-4.31541-13.1079-19.6323-16.3996-25.8013z" /><path stroke-linecap="butt" stroke-linejoin="round" stroke="none" fill="rgb(95,95,95)" d="m153.885 158.539c-3.77247 4.45953-7.86726 7.31347-7.86726 14.4241h22.4305c1.7489-3.02896 2.02493-5.9588 2.74275-9.56441z" /><path stroke-linecap="butt" stroke-linejoin="round" stroke="none" fill="rgb(95,95,95)" d="m-75.990001 159.459c-3.34145 3.90667-6.08584 6.44618-6.08584 13.6668l25.2125-0.32373c0-3.09623 0.0703-5.60073 0.33548-7.87714z" /><path stroke-linecap="butt" stroke-linejoin="round" stroke="none" fill="rgb(68,68,68)" d="m-183.1533-84.411c-1.58308 3.62229-3.48349 6.41496-5.79438 5.87213c-2.31089-0.54281 0.0291-2.30339-0.33757-7.79737c-0.25136-3.76588 3.00855-4.67788 5.14166-3.7846c2.2415 0.93867 2.15693 3.04039 0.99028 5.70984z" /><path stroke-linecap="butt" stroke-linejoin="round" stroke="none" fill="rgb(68,68,68)" d="m-149.55-117.583a4.5 4.50004 0 0 1-4.5 4.50004a4.5 4.50004 0 0 1-4.5-4.50004a4.5 4.50004 0 0 1 4.5-4.50004a4.5 4.50004 0 0 1 4.5 4.50004z" /><path stroke-linecap="butt" stroke-linejoin="round" stroke-width="6" stroke-opacity="1" stroke="rgb(68,68,68)" fill="none" d="m-160.3402-141.789c-7.28674 8.73156-12.2685 15.3821-14.7388 23.7302c-3.25543 13.0667-26.4148 23.3763-20.8156 37.8464c-4.10996 6.86564 4.09137 15.8523 12.0784 12.9143c5.24788 5.04255 15.1754 0.20351 17.8859-6.45437c15.7989-4.93178 20.9918-18.5364 28.9971-17.3641c10.3729 1.51907 39.2404 52.1306 39.2404 52.1306c-1.29773 28.0342 7.69054 41.7049 20.6172 51.2067c-0.62302 23.5556 2.24162 47.9896 12.7866 81.5853c2.8752 75.1067-17.7868 59.4738-17.7868 79.32l25.2115-0.3242c0-10.4058 0.75256-14.1967 7.26282-24.7143c4.88599-7.89348-2.76527-28.1307 5.09137-54.7665c3.8102-12.9174-0.90098-49.6532 5.51029-72.3564c52.4759 4.22772 102.093 2.75624 144.696-18.3663c16.7874 25.0986 15.8718 45.7687 41.7024 75.9933c12.4229 14.5361 13.3715 61.705 12.0724 68.4325c-2.72005 14.0854-13.4526 14.4292-13.4526 25.9397h22.4299c3.64511-6.31307 0.85247-12.1184 9.12333-24.7538c2.38014-3.63621-3.67722-16.5609-3.85264-28.9668c-0.26371-18.6498 4.70301-36.7227-3.33399-53.6267c-6.17626-12.9904-9.51645-42.0353-6.32931-57.6502c3.18713-15.6149 14.4044-44.0684 5.23961-73.2157c-6.93019-22.0405-32.2125-36.8118-66.5508-34.2625c-25.2377 1.8737-71.3232 20.6623-100.3 18.3291c-69.784-5.61922-97.5281-57.2675-144.144-66.1438c-5.59466-4.31542-13.1084-19.631-16.4001-25.8c-7.52695 9.33394-9.10806 22.2047-2.23938 31.3373z" /></g></svg></svg>