<?xml version="1.0" encoding="UTF-8" standalone="no"?><svg xmlns:svg="http://www.w3.org/2000/svg" xmlns="http://www.w3.org/2000/svg" version="1.1" style="overflow:visible" viewBox="-250 -250 500 500" height="500px" width="500px"><rect fill-opacity="0" fill="rgb(0,0,0)" height="500" width="500" y="-250" x="-250" /><svg version="1.1" y="-250" x="-250" viewBox="-250 -250 500 500" height="500px" width="500px" style="overflow:visible"><g transform="rotate(0,0,0)" stroke-linejoin="round" fill="#fff"><path stroke-linecap="butt" stroke-linejoin="round" stroke-width="10" stroke-opacity="1" stroke="rgb(68,68,68)" fill="rgb(255,255,255)" d="m-73.612 9.291999c-13.7349 39.6705-33.0624 54.5101-48.4971 57.0228c-15.4347 2.51269-32.0355-5.93534-44.3778-27.2951c-4.45127-7.92382-14.5133-10.6812-22.3779-6.13167c-7.86459 4.54952-10.4999 14.6521-5.85831 22.4658c17.2515 29.8556 46.9247 48.1054 77.8523 43.1703c17.379-2.77318 36.1838-15.5735 36.1838-15.5735c-14.3856 54.4381 24.7956 61.256 42.9743 8.65572c-15.7822 61.0408 36.1132 54.314 37.7127 2.017199c1.59945 52.2968 53.4948 59.0236 37.7127-2.0172c18.1787 52.6002 57.36 45.7824 42.9743-8.65572c0 0 18.8048 12.8003 36.1839 15.5735c30.9276 4.93514 60.6009-13.3146 77.8523-43.1703c4.6416-7.81373 2.006279-17.9163-5.85831-22.4658c-7.86458-4.54952-17.9266-1.79215-22.3779 6.13167c-12.3423 21.3597-28.9431 29.8078-44.3778 27.2951c-15.4347-2.5127-34.7622-17.3523-48.4971-57.0228z" /><path stroke-linecap="butt" stroke-linejoin="round" stroke="none" fill="rgb(255,255,255)" d="m0.001-135.133c-114.213 0-167.768 103.678-142.007 152.331c19.1919 36.2456 52.3786 51.2056 142.007 51.2056s122.813-14.96 142.005-51.2056c25.7615-48.6529-27.7921-152.331-142.005-152.331z" /><path stroke-linecap="butt" stroke-linejoin="round" stroke="none" fill="rgb(134,255,212)" d="m-35.5-32.971001a10 10.006 0 0 1-10 10.006a10 10.006 0 0 1-10-10.006a10 10.006 0 0 1 10-10.006a10 10.006 0 0 1 10 10.006z" /><path stroke-linecap="butt" stroke-linejoin="round" stroke="none" fill="rgb(134,255,212)" d="m55.5-32.971001a10 10.006 0 0 1-10 10.006a10 10.006 0 0 1-10-10.006a10 10.006 0 0 1 10-10.006a10 10.006 0 0 1 10 10.006z" /><path stroke-linecap="butt" stroke-linejoin="round" stroke="none" fill="rgb(255,255,255)" d="m-19.685001-105.252001c8.49478 12.8506-13.7594 19.2408-37.0207 34.6368c-23.2621 15.3964-38.7228 33.968-47.2176 21.1168c-8.49472-12.8506 3.4758-35.7487 26.7371-51.1448c23.2621-15.3964 49.0064-17.4599 57.5011-4.60877z" /><path stroke-linecap="butt" stroke-linejoin="round" stroke-width="10" stroke-opacity="1" stroke="rgb(68,68,68)" fill="none" d="m0.001-135.133c-114.213 0-167.768 103.678-142.007 152.331c19.1919 36.2456 52.3786 51.2056 142.007 51.2056s122.813-14.96 142.005-51.2056c25.7615-48.6529-27.7921-152.331-142.005-152.331z" /></g></svg><svg version="1.1" y="-244" x="-250" viewBox="-250 -250 500 500" height="500px" width="500px" style="overflow:visible"><g transform="rotate(0,0,0)" stroke-linejoin="round" fill="#fff"><path stroke-linecap="butt" stroke-linejoin="round" stroke="none" fill="rgb(255,255,255)" d="m14.203-15.523201c-23.666944-28.65828-53.80116 5.949412-16.640988 16.126152c-37.1602 10.17632-7.025957 41.951 16.640988 16.125732c12.414724-14.587161 5.928468-23.333352 0-32.251801z" /><path stroke-linecap="round" stroke-linejoin="round" stroke-width="10" stroke-opacity="1" stroke="rgb(68,68,68)" fill="none" d="m14.203-15.523201c-23.666861-28.65828-53.80116 5.949412-16.640905 16.126152c-37.1602 10.17632-7.025957 41.951 16.640904 16.125732" /></g></svg><svg version="1.1" y="-280" x="-310" viewBox="-250 -250 500 500" height="500px" width="500px" style="overflow:visible"><g transform="rotate(0,0,0)" stroke-linejoin="round" fill="#fff"><path stroke-linecap="butt" stroke-linejoin="round" stroke="none" fill="rgb(68,68,68)" d="m26.91 0a26.91 26.91 0 0 1-26.91 26.91a26.91 26.91 0 0 1-26.91-26.91a26.91 26.91 0 0 1 26.91-26.91a26.91 26.91 0 0 1 26.91 26.91z" /><path stroke-linecap="butt" stroke-linejoin="round" stroke="none" fill="rgb(68,68,68)" d="m17.5352 11.12786a6.450074 6.450074 0 0 1-6.450051 6.450074a6.450074 6.450074 0 0 1-6.450075-6.450075a6.450074 6.450074 0 0 1 6.450074-6.450075a6.450074 6.450074 0 0 1 6.450051 6.450074z" /><path stroke-linecap="butt" stroke-linejoin="round" stroke="none" fill="rgb(68,68,68)" d="m10.76745-4.140001a14.907496 14.907496 0 0 1-14.907497 14.907496a14.907496 14.907496 0 0 1-14.907497-14.907497a14.907496 14.907496 0 0 1 14.907496-14.907497a14.907496 14.907496 0 0 1 14.907496 14.907496z" /><path stroke-linecap="butt" stroke-linejoin="round" stroke="none" fill="rgb(255,255,255)" d="m5.004339-5.060001a10.064455 10.064455 0 0 1-10.064455 10.064455a10.064455 10.064455 0 0 1-10.064455-10.064455a10.064455 10.064455 0 0 1 10.064455-10.064455a10.064455 10.064455 0 0 1 10.064455 10.064455z" /><path stroke-linecap="butt" stroke-linejoin="round" stroke="none" fill="rgb(255,255,255)" d="m1.390119-5.060001a6.450074 6.450074 0 0 1-6.450051 6.450074a6.450074 6.450074 0 0 1-6.450075-6.450075a6.450074 6.450074 0 0 1 6.450074-6.450075a6.450074 6.450074 0 0 1 6.450051 6.450074z" /><path stroke-linecap="butt" stroke-linejoin="round" stroke-width="0" stroke-opacity="0" stroke="rgb(0,0,0)" fill="none" d="m26.91 0a26.91 26.91 0 0 1-26.91 26.91a26.91 26.91 0 0 1-26.91-26.91a26.91 26.91 0 0 1 26.91-26.91a26.91 26.91 0 0 1 26.91 26.91z" /></g></svg><svg version="1.1" y="-280" x="-190" viewBox="-250 -250 500 500" height="500px" width="500px" style="overflow:visible"><g transform="rotate(0,0,0)" stroke-linejoin="round" fill="#fff"><path stroke-linecap="butt" stroke-linejoin="round" stroke="none" fill="rgb(68,68,68)" d="m26.91 0a26.91 26.91 0 0 1-26.91 26.91a26.91 26.91 0 0 1-26.91-26.91a26.91 26.91 0 0 1 26.91-26.91a26.91 26.91 0 0 1 26.91 26.91z" /><path stroke-linecap="butt" stroke-linejoin="round" stroke="none" fill="rgb(68,68,68)" d="m17.5352 11.12786a6.450074 6.450074 0 0 1-6.450051 6.450074a6.450074 6.450074 0 0 1-6.450075-6.450075a6.450074 6.450074 0 0 1 6.450074-6.450075a6.450074 6.450074 0 0 1 6.450051 6.450074z" /><path stroke-linecap="butt" stroke-linejoin="round" stroke="none" fill="rgb(68,68,68)" d="m10.76745-4.140001a14.907496 14.907496 0 0 1-14.907497 14.907496a14.907496 14.907496 0 0 1-14.907497-14.907497a14.907496 14.907496 0 0 1 14.907496-14.907497a14.907496 14.907496 0 0 1 14.907496 14.907496z" /><path stroke-linecap="butt" stroke-linejoin="round" stroke="none" fill="rgb(255,255,255)" d="m5.004339-5.060001a10.064455 10.064455 0 0 1-10.064455 10.064455a10.064455 10.064455 0 0 1-10.064455-10.064455a10.064455 10.064455 0 0 1 10.064455-10.064455a10.064455 10.064455 0 0 1 10.064455 10.064455z" /><path stroke-linecap="butt" stroke-linejoin="round" stroke="none" fill="rgb(255,255,255)" d="m1.390119-5.060001a6.450074 6.450074 0 0 1-6.450051 6.450074a6.450074 6.450074 0 0 1-6.450075-6.450075a6.450074 6.450074 0 0 1 6.450074-6.450075a6.450074 6.450074 0 0 1 6.450051 6.450074z" /><path stroke-linecap="butt" stroke-linejoin="round" stroke-width="0" stroke-opacity="0" stroke="rgb(0,0,0)" fill="none" d="m26.91 0a26.91 26.91 0 0 1-26.91 26.91a26.91 26.91 0 0 1-26.91-26.91a26.91 26.91 0 0 1 26.91-26.91a26.91 26.91 0 0 1 26.91 26.91z" /></g></svg></svg>