<svg version="1.1" id="Layer_1" xmlns="http://www.w3.org/2000/svg" xmlns:xlink="http://www.w3.org/1999/xlink" x="0px" y="0px"
	 width="100%" viewBox="0 0 560 480" enable-background="new 0 0 560 480" xml:space="preserve">
<path fill="#000000" opacity="1.000000" stroke="none" 
	d="
M215.468658,481.000000 
	C207.950760,470.385742 209.453476,459.276947 216.270203,450.069458 
	C229.598236,432.067108 233.411560,410.999054 238.389343,390.163666 
	C238.457657,389.877747 238.270432,389.530853 238.060120,388.545502 
	C230.811783,389.201630 223.390671,388.872925 216.138535,390.495941 
	C213.827789,391.013092 213.383713,393.728851 212.534897,395.641022 
	C207.120956,407.837250 199.283218,418.089050 187.735931,424.906952 
	C177.801941,430.772217 167.372437,435.805298 155.202438,433.312378 
	C144.416672,431.103058 138.579147,422.357758 140.657089,411.479279 
	C142.459808,402.041595 147.489044,394.233429 153.580185,387.022095 
	C154.853119,385.515045 156.115891,383.999390 157.920761,381.846771 
	C152.772430,379.638214 148.147980,377.559265 143.442947,375.682312 
	C141.531937,374.919952 140.799881,376.621521 140.166824,377.961121 
	C125.504356,408.988251 97.856087,419.144897 66.706619,422.907837 
	C55.947636,424.207520 45.534519,420.831604 36.277718,414.987396 
	C28.291857,409.945618 25.991163,401.709290 30.392876,392.202606 
	C38.227833,375.280914 49.920258,362.112427 68.091492,355.717743 
	C75.127861,353.241516 82.287804,350.998383 89.343216,346.325684 
	C86.800140,344.854065 84.724449,343.651733 82.647659,342.451294 
	C74.951927,338.003021 67.742363,332.962585 62.389889,325.687897 
	C55.130192,315.821075 56.160122,305.050964 66.223831,298.227051 
	C72.461006,293.997772 74.997597,288.765137 76.560844,281.804718 
	C82.202965,256.682953 91.535995,233.177200 108.068825,212.940720 
	C128.354416,188.110825 154.631607,174.513763 186.068695,169.619492 
	C215.071121,165.104233 242.785767,168.129868 269.169983,181.380173 
	C270.186829,181.890823 271.312897,182.183899 272.762512,182.715714 
	C275.121277,176.997955 275.322662,170.986374 276.580872,165.254776 
	C286.080505,121.980209 320.437775,90.785690 364.772644,87.081039 
	C405.522766,83.675934 439.104889,97.173637 462.233582,132.437256 
	C469.419739,143.393784 472.925201,155.656158 475.217926,168.341385 
	C476.339905,174.549194 478.793365,179.981476 482.592896,185.041168 
	C495.237915,201.879944 498.658508,230.411072 481.962982,250.442474 
	C464.538269,271.348816 442.234039,283.949615 416.432709,291.134583 
	C414.516235,291.668274 412.573700,292.108429 409.341370,292.918243 
	C414.266052,294.542328 418.082672,295.780182 421.885742,297.058411 
	C456.492493,308.689575 475.438599,333.863556 483.238586,368.455872 
	C485.710663,379.419312 486.000427,390.507050 483.409576,401.615417 
	C479.208557,419.627625 464.353943,427.628876 448.187531,418.559784 
	C426.985901,406.666046 407.975159,391.814484 396.432800,369.386993 
	C391.408936,359.625336 384.796082,351.187988 375.296112,345.232819 
	C372.740601,343.630890 371.102661,343.552734 368.879547,345.772766 
	C361.699066,352.943512 353.325867,358.342194 343.507996,361.150757 
	C339.949005,362.168884 339.178986,364.162964 338.957733,367.652832 
	C337.441467,391.566711 332.049835,414.513977 318.824280,434.803955 
	C305.447296,455.326172 286.669891,469.666931 264.224731,479.286652 
	C263.309784,479.678772 262.414307,480.116394 261.254883,480.766418 
	C245.979111,481.000000 230.958206,481.000000 215.468658,481.000000 
M267.678040,346.166443 
	C269.240265,343.222626 270.855225,340.305298 272.350708,337.327972 
	C274.028961,333.986694 276.391846,331.611603 280.245819,333.487854 
	C284.221924,335.423523 283.555878,338.690674 281.746796,341.991852 
	C277.257935,350.182953 272.853943,358.475830 266.492798,365.384491 
	C254.058685,378.888855 246.307831,394.596130 243.423737,412.691406 
	C241.206146,426.604919 235.799316,439.158722 227.853439,450.730743 
	C225.788864,453.737457 223.966660,456.973572 222.483719,460.304932 
	C217.876953,470.653900 222.177155,477.121063 233.265015,476.761261 
	C234.925049,476.707397 236.627151,476.700256 238.230438,476.328918 
	C278.950195,466.896667 308.480164,444.327454 321.960266,403.698425 
	C330.104004,379.153259 332.484222,354.791290 315.966858,332.072693 
	C313.774292,329.056946 310.556976,324.747406 315.786835,321.804596 
	C320.833069,318.965179 322.678375,323.869659 324.836639,327.081970 
	C330.040985,334.828033 333.659485,343.391846 336.970673,351.935638 
	C345.222260,350.780457 355.844604,344.479706 362.910034,337.154480 
	C374.148102,325.503143 382.986176,312.161072 389.447174,297.461731 
	C393.125275,289.093658 397.882355,283.532166 407.350891,282.743652 
	C409.960968,282.526306 412.500427,281.441589 415.068298,280.740265 
	C435.739227,275.095001 453.894867,265.159851 468.949707,249.690170 
	C486.526428,231.629120 488.366028,210.372818 473.460999,190.118454 
	C468.141632,182.890015 465.459503,174.824646 464.017334,166.215973 
	C459.355377,138.387665 442.925262,119.282845 418.922882,106.168083 
	C403.854858,97.934982 387.165100,96.702515 370.352325,97.218147 
	C340.406372,98.136559 316.426819,111.019875 300.050293,135.781128 
	C282.037872,163.015793 278.913391,193.239807 287.983612,224.393265 
	C293.990051,245.023682 307.133270,260.322144 326.248718,270.387878 
	C329.328735,272.009735 332.215973,274.297760 329.927124,278.294067 
	C327.703613,282.176239 324.327881,281.316742 321.319397,279.240601 
	C317.781128,276.798889 315.565796,277.533325 313.268097,281.128326 
	C304.804749,294.370331 294.848663,306.396484 283.558777,317.377625 
	C254.246292,345.888580 219.736923,361.884644 178.400040,362.557281 
	C169.056625,362.709351 159.769684,362.127228 150.454208,362.130310 
	C148.909454,362.130829 147.286972,362.099670 146.759811,363.919891 
	C146.248184,365.686432 147.754211,366.213959 148.966278,366.691193 
	C158.563721,370.469818 167.975876,374.739746 178.181305,376.823517 
	C199.210022,381.117310 220.288284,379.367920 241.380569,377.631470 
	C243.125809,377.487793 244.714783,377.064362 245.710114,375.542938 
	C252.285995,365.491394 261.099640,357.121826 267.678040,346.166443 
M155.314484,267.646515 
	C152.577499,281.008087 150.612762,294.462250 149.934174,308.108063 
	C149.382767,319.196289 149.232300,319.315002 160.435654,320.211212 
	C198.921448,323.290009 230.706039,309.239105 257.357483,282.123566 
	C259.210297,280.238525 259.723602,278.553162 258.586945,275.956909 
	C252.101654,261.143402 243.611298,247.764893 231.565948,236.796066 
	C224.626801,230.477097 224.732361,230.553680 216.656677,234.934921 
	C200.591019,243.650833 183.539963,248.836807 165.091125,248.289673 
	C161.233978,248.175293 159.276855,249.323318 158.584030,253.209869 
	C157.768265,257.786041 156.497086,262.281036 155.314484,267.646515 
M258.067993,295.594208 
	C250.207687,302.567413 242.030792,309.147919 232.872314,314.341888 
	C199.345291,333.355896 163.967560,334.964813 127.596542,324.801270 
	C111.812233,320.390472 97.267509,312.881897 82.989075,304.918365 
	C81.154877,303.895386 79.411278,302.435120 76.981758,303.099426 
	C68.888741,305.312195 65.928970,313.925812 71.233345,320.432526 
	C75.158005,325.246796 80.056213,328.971619 85.409660,332.142822 
	C106.197639,344.457092 128.906876,349.916260 152.782867,351.886566 
	C173.384766,353.586731 193.655975,352.387665 213.645065,347.139862 
	C244.857056,338.945648 268.824829,319.858490 289.507080,296.063171 
	C296.243988,288.312225 302.449615,280.080017 306.458923,272.922394 
	C301.540344,267.432617 297.258972,262.654053 292.669220,257.531250 
	C281.843231,270.476410 271.117828,283.626068 258.067993,295.594208 
M471.409821,362.135620 
	C466.095215,346.205933 458.097260,331.975555 445.004272,321.075897 
	C432.363983,310.553101 417.223053,305.583405 401.557220,301.822601 
	C398.722076,301.141998 398.184235,303.284607 397.309723,305.006409 
	C392.625824,314.228668 387.482666,323.165833 381.237946,331.440948 
	C380.470795,332.457520 379.309540,333.370209 379.765869,335.805725 
	C392.954773,343.060211 400.957092,355.742432 408.289001,368.903229 
	C418.426331,387.099731 435.012848,398.421234 451.887177,409.052643 
	C462.574890,415.786224 471.946625,410.107147 473.783081,397.568207 
	C475.502136,385.830811 474.445221,374.339478 471.409821,362.135620 
M194.783966,233.247177 
	C200.651199,231.349365 206.494919,229.428864 211.742355,226.037552 
	C225.897827,216.889130 233.631958,203.644775 236.846603,187.369919 
	C238.190933,180.563965 238.023102,180.254501 230.994537,179.297653 
	C217.363937,177.442001 203.741135,177.623505 190.142197,179.379745 
	C169.287521,182.073044 150.000351,188.758270 133.418884,202.164413 
	C131.672699,203.576202 130.006577,204.882858 130.380600,207.446365 
	C131.003357,211.714447 131.421631,215.991135 133.661743,219.882278 
	C141.176178,232.934998 158.388412,239.541031 171.637329,238.372452 
	C179.272644,237.699005 186.733978,235.907104 194.783966,233.247177 
M146.338852,244.193268 
	C134.025787,237.772141 124.425446,228.920624 120.891922,214.874344 
	C118.492661,215.824677 117.529251,217.444504 116.375175,218.824280 
	C98.899368,239.717957 90.695877,264.703918 84.644348,290.653717 
	C83.948448,293.637878 85.552261,294.962311 87.774834,296.076447 
	C95.952248,300.175720 103.976128,304.631897 112.360138,308.253906 
	C120.522072,311.779999 128.889679,314.983124 137.910599,316.695984 
	C138.293274,315.540344 138.689255,314.800964 138.772079,314.027954 
	C141.142654,291.906952 143.549561,269.792206 149.334198,248.221481 
	C149.923294,246.024719 148.584427,245.223648 146.338852,244.193268 
M91.688339,357.312653 
	C86.916084,359.268890 82.264145,361.623291 77.349472,363.108124 
	C61.334930,367.946381 49.704582,377.837708 41.644550,392.389465 
	C36.667286,401.375488 37.530907,404.820343 46.900311,408.994598 
	C57.443108,413.691620 68.348610,413.154907 79.222412,410.700714 
	C104.927704,404.899109 124.895203,391.982941 134.436600,366.007446 
	C136.052261,361.608978 135.302338,360.046295 130.796082,359.463898 
	C124.349876,358.630737 117.749809,357.568115 111.948753,354.819946 
	C104.594826,351.336212 98.418999,352.000214 91.688339,357.312653 
M248.954010,184.763672 
	C247.542938,185.938416 247.521957,187.674515 247.096344,189.263992 
	C244.207367,200.052841 241.123215,210.770966 233.769821,219.585999 
	C231.783630,221.966965 232.583099,223.564514 234.603165,225.457474 
	C244.462799,234.696518 253.673370,244.504242 260.210815,256.487152 
	C262.654022,260.965424 264.948486,265.524872 267.626862,270.652405 
	C274.700836,263.670349 280.393707,256.382477 286.025116,249.041794 
	C287.170166,247.549210 286.306519,246.226593 285.617310,244.886124 
	C277.995361,230.061600 273.400696,214.402283 272.795380,197.683105 
	C272.712341,195.389954 271.881836,193.956024 269.829895,193.012390 
	C263.193665,189.960541 256.693359,186.591019 248.954010,184.763672 
M160.647018,423.687347 
	C179.372437,421.901703 198.920502,406.650696 202.767929,390.447021 
	C192.047760,389.250671 181.257477,388.669006 170.889069,385.547485 
	C169.639008,385.171173 168.708130,386.119629 167.848831,386.930603 
	C160.994507,393.399567 155.127625,400.622803 151.764801,409.522491 
	C148.538071,418.061951 150.862854,421.914795 160.647018,423.687347 
z"/>
<path fill="#000000" opacity="1.000000" stroke="none" 
	d="
M490.530457,11.347425 
	C513.911987,27.277567 517.070496,59.652573 495.434052,79.188934 
	C482.322754,91.027664 462.135315,93.232658 446.967041,85.012733 
	C431.312683,76.529388 422.575989,59.393028 424.776306,41.487473 
	C426.916290,24.072866 440.128632,9.215120 457.630798,5.461693 
	C469.086243,3.005017 480.154999,4.716996 490.530457,11.347425 
M435.612213,55.765480 
	C443.073181,76.520576 463.642609,85.421478 482.064880,75.866684 
	C495.416840,68.941635 502.096039,54.079472 498.562927,39.156281 
	C495.316162,25.442476 481.811157,14.308100 467.568878,14.531041 
	C443.111908,14.913878 430.394775,37.857010 435.612213,55.765480 
z"/>
<path fill="#000000" opacity="1.000000" stroke="none" 
	d="
M534.717773,146.767380 
	C524.015381,154.658676 513.466797,155.263885 503.865631,148.756699 
	C494.728821,142.564240 490.868195,132.159424 493.587433,121.213303 
	C496.156311,110.872345 502.961914,104.596329 513.145020,102.944725 
	C523.464966,101.270912 532.735596,104.045525 538.858582,113.401634 
	C544.801453,122.482567 545.028015,131.813675 539.378418,141.122589 
	C538.184998,143.088959 536.467834,144.737442 534.717773,146.767380 
M505.601318,119.182579 
	C501.480682,124.890030 501.855072,130.668060 505.601318,136.306534 
	C508.752625,141.049606 515.601135,143.596222 520.955933,142.312057 
	C527.492310,140.744553 532.129700,135.512985 532.699219,129.064133 
	C533.277832,122.512260 529.675415,116.299492 523.804749,113.724388 
	C517.468201,110.944916 511.855316,112.495270 505.601318,119.182579 
z"/>
<path fill="#000000" opacity="1.000000" stroke="none" 
	d="
M355.982605,443.987122 
	C350.231049,436.770782 349.439178,430.138672 353.312805,423.486267 
	C357.044952,417.076965 363.932800,413.771393 371.457001,414.778595 
	C378.132965,415.672211 383.966278,421.252472 385.699097,428.402802 
	C387.398163,435.413879 383.960785,443.057892 377.296814,447.087677 
	C370.759644,451.040741 362.872192,449.980072 355.982605,443.987122 
M374.331696,435.821320 
	C376.521881,430.643494 374.843903,426.253784 370.212616,425.332642 
	C366.530090,424.600189 363.737793,425.910217 362.083099,429.384674 
	C360.550629,432.602448 361.594330,435.354370 364.133301,437.310760 
	C367.470062,439.881958 370.881805,439.525635 374.331696,435.821320 
z"/>
<path fill="#000000" opacity="1.000000" stroke="none" 
	d="
M527.781372,177.215546 
	C537.972412,188.702652 531.162903,201.836075 521.593750,205.197021 
	C514.221313,207.786423 506.182404,205.317276 501.769745,198.951309 
	C497.275482,192.467621 497.747986,184.169205 502.948151,178.255356 
	C508.134216,172.357651 516.973877,170.697021 523.859192,174.401642 
	C525.160583,175.101837 526.304565,176.094513 527.781372,177.215546 
M522.416077,188.745544 
	C519.996460,183.105453 516.393433,181.120728 512.708008,183.523605 
	C509.930023,185.334808 508.642731,187.974747 509.592407,191.259369 
	C510.400238,194.053314 512.260315,195.880692 515.388000,195.822205 
	C519.547913,195.744415 521.727905,193.380753 522.416077,188.745544 
z"/>
<path fill="#000000" opacity="1.000000" stroke="none" 
	d="
M370.328247,186.908630 
	C375.997162,198.546234 372.373047,210.204712 361.878540,215.063889 
	C351.460114,219.887848 339.840668,215.521347 335.236847,205.052185 
	C331.409668,196.348984 334.381409,185.968369 342.182312,180.790955 
	C350.472046,175.289139 360.263336,176.218658 367.192017,183.203949 
	C368.241272,184.261749 369.150574,185.458374 370.328247,186.908630 
M360.652374,194.996887 
	C359.945526,193.316437 358.917938,192.072311 356.932556,193.075974 
	C355.441528,193.829697 355.121826,195.302216 355.295197,196.870697 
	C355.455994,198.325287 356.177734,199.523682 357.712555,199.434174 
	C359.898682,199.306702 360.681274,197.711624 360.652374,194.996887 
z"/>
<path fill="#000000" opacity="1.000000" stroke="none" 
	d="
M441.914246,174.406677 
	C451.998566,172.784760 458.965271,178.166763 460.285522,188.171631 
	C461.754913,199.307007 455.976532,208.745483 446.923035,209.804169 
	C443.281647,210.229965 440.077271,208.913895 437.302124,206.573410 
	C426.833832,197.744751 429.117249,180.455902 441.914246,174.406677 
M447.536865,186.230225 
	C448.175171,187.948517 449.191010,188.855972 450.849792,187.401871 
	C451.857483,186.518585 451.962341,185.235931 450.906616,184.334915 
	C449.159668,182.843887 448.264099,184.112045 447.536865,186.230225 
z"/>
<path fill="#000000" opacity="1.000000" stroke="none" 
	d="
M417.007538,227.206543 
	C420.043488,224.722717 421.957642,221.796478 423.841187,218.854477 
	C425.713470,215.930008 428.301758,214.572113 431.418884,216.412460 
	C434.423248,218.186249 434.072845,221.092651 432.741302,223.898621 
	C425.094299,240.013260 403.526642,245.528015 388.907135,235.143921 
	C384.639130,232.112381 382.338409,227.728729 380.431091,223.081177 
	C379.470337,220.740158 380.377991,218.695755 382.359680,217.450745 
	C384.543518,216.078751 386.835968,216.373444 388.693146,218.318939 
	C389.257355,218.910004 389.631805,219.683334 390.086945,220.377243 
	C396.557190,230.241318 405.966248,232.736237 417.007538,227.206543 
z"/>
</svg>