<svg version="1.1" id="Layer_1" xmlns="http://www.w3.org/2000/svg" xmlns:xlink="http://www.w3.org/1999/xlink" x="0px" y="0px"
	 width="100%" viewBox="0 0 1024 1024" enable-background="new 0 0 1024 1024" xml:space="preserve">
<path fill="#000000" opacity="1.000000" stroke="none" 
	d="
M781.996033,567.170166 
	C782.529236,570.724304 783.002258,573.848938 783.394165,576.983704 
	C783.681091,579.278320 784.840820,580.897217 786.638306,582.347290 
	C793.972229,588.263916 802.292480,593.251343 806.031433,602.638733 
	C806.800781,604.570557 808.367004,604.455688 810.221924,604.001404 
	C827.117981,599.863037 843.563904,603.389160 859.825195,607.543091 
	C875.262512,611.486511 889.532471,618.349548 902.604675,627.450256 
	C926.088440,643.799316 947.175781,662.305420 958.185242,689.865540 
	C967.909241,714.207642 968.334045,738.300720 955.925171,761.710144 
	C949.140137,774.510132 940.249268,786.033691 930.831360,797.077332 
	C929.867371,798.207764 928.855530,799.297424 927.628052,800.672546 
	C930.427002,802.525879 933.622375,802.946716 936.176941,804.781860 
	C948.195312,813.415710 942.719604,829.612732 934.390381,836.874146 
	C922.355591,847.366028 907.903809,853.290283 893.115967,858.559814 
	C892.959106,858.615784 892.803589,858.675842 892.645996,858.729736 
	C882.442566,862.222351 882.762756,862.241699 882.107056,873.108521 
	C881.349182,885.669067 877.665771,897.308533 868.855774,906.774597 
	C864.115295,911.868103 859.753845,917.365051 853.390564,921.246155 
	C857.691101,929.100098 862.910522,936.060730 865.764404,944.238953 
	C866.529419,946.431213 867.378601,948.620850 867.856567,950.881958 
	C870.164368,961.799255 862.433105,969.093872 851.565491,966.621765 
	C838.403381,963.627747 827.584290,956.293091 818.434692,947.084778 
	C809.981323,938.577026 800.794922,935.111267 788.934875,935.067932 
	C773.982117,935.013306 759.259277,932.367065 744.758057,928.050476 
	C735.223755,925.212463 725.700317,922.370544 716.306458,919.110901 
	C714.212097,918.384216 712.556824,918.653809 710.627258,919.527161 
	C693.555359,927.254211 675.600159,932.050842 657.175781,935.103088 
	C651.934082,935.971497 646.561035,936.185364 641.538208,933.534424 
	C637.117004,931.200989 635.144592,927.231018 636.162415,922.389771 
	C639.194336,907.968994 647.992249,897.343079 658.829895,888.102478 
	C660.339722,886.815125 662.060608,885.789856 663.647583,883.481445 
	C650.245300,867.494934 645.155090,849.156616 651.289246,828.288879 
	C598.231873,841.290649 544.577576,841.300476 490.718994,842.401733 
	C488.701965,849.437744 488.964600,856.919495 489.174072,864.375366 
	C489.303986,869.000366 493.364868,869.515442 496.514679,870.703674 
	C507.395691,874.808350 518.434998,878.511536 529.213989,882.863281 
	C538.460144,886.596191 547.718018,890.488159 555.394409,897.175903 
	C556.272644,897.940979 557.244995,898.609497 558.057556,899.436951 
	C564.309631,905.803833 562.773621,911.671326 554.217407,914.208069 
	C546.647034,916.452454 538.813843,916.864014 531.021301,917.168518 
	C516.704224,917.728027 502.436157,916.722107 488.150330,915.631165 
	C478.061279,914.860718 467.874054,915.469055 457.737030,915.211670 
	C442.805664,914.832581 427.907318,913.156555 412.937531,914.289978 
	C407.331146,914.714478 401.724304,915.947754 396.086456,914.106384 
	C389.281647,911.883789 387.885040,907.156494 393.027954,902.245239 
	C400.796509,894.826660 409.558990,888.844299 419.593140,884.807556 
	C429.341370,880.885864 438.239288,875.254089 447.659271,870.666382 
	C452.452423,868.332153 450.315704,863.773315 450.254059,860.368225 
	C450.160858,855.218567 449.670044,850.109375 450.482941,844.962585 
	C451.018951,841.568665 448.728760,841.209167 446.111755,841.212646 
	C435.309204,841.226990 424.497009,841.466309 413.705841,841.103699 
	C389.434326,840.288147 365.202179,839.037903 341.094574,835.659119 
	C326.421356,833.602600 311.777924,831.580933 297.610687,827.180176 
	C285.063782,823.282715 272.173126,819.344971 262.048676,810.847229 
	C247.347946,798.508423 236.515427,782.987732 229.752731,764.800537 
	C222.317368,744.804260 218.709412,723.709106 211.959198,703.517334 
	C210.280991,698.497314 209.070023,693.321167 207.637650,688.218689 
	C204.422852,676.766724 194.899689,670.605774 186.523041,663.697693 
	C171.643921,651.427002 160.696762,636.706116 154.369278,618.320374 
	C145.850662,593.567810 153.094681,574.720642 173.327576,557.809448 
	C176.424271,555.221191 178.145782,552.684204 178.585220,548.857239 
	C181.602234,522.583618 188.877136,497.385803 198.145264,472.723236 
	C199.248566,469.787323 199.291092,467.981537 197.142670,465.262207 
	C192.717972,459.661835 192.197113,452.302032 190.101196,445.682007 
	C186.734283,435.047424 184.601318,424.084320 183.713013,412.955414 
	C183.415573,409.228973 181.306381,409.239563 178.679077,409.145355 
	C166.346115,408.703217 154.049042,407.717682 142.384003,403.375153 
	C134.880264,400.581757 128.024811,396.722504 122.611244,390.370117 
	C113.393654,379.554047 114.532455,368.159821 121.000618,356.604431 
	C122.789253,353.409058 124.914467,350.432495 128.006348,348.265350 
	C130.968613,346.189056 133.840424,343.983765 137.216553,341.492310 
	C130.573425,337.950623 124.300858,334.340546 118.957657,329.365326 
	C105.166809,316.524384 97.864380,300.228485 93.614807,282.255341 
	C84.732391,244.688202 95.821442,211.753220 118.051437,182.022552 
	C133.519363,161.335571 152.846680,144.381317 175.325256,131.494415 
	C194.316849,120.606598 214.602463,112.945000 236.049652,107.919785 
	C261.478485,101.961647 286.134888,104.037399 310.036804,113.444763 
	C331.667938,121.958397 349.566162,135.404221 359.437286,157.483337 
	C359.831573,158.365234 360.486938,159.130432 361.025055,159.956726 
	C363.460846,159.699722 364.332031,157.631302 365.826904,156.445175 
	C374.471436,149.586243 383.748749,144.831833 395.242310,147.651123 
	C405.923431,150.271149 411.152557,158.437881 415.130096,167.712067 
	C418.226196,174.931076 418.240387,175.232758 425.396088,172.440369 
	C445.889893,164.442963 467.330933,160.463470 489.001038,158.035904 
	C525.737488,153.920578 560.828857,160.364731 594.333069,176.033569 
	C608.673340,182.740051 623.336365,188.864182 635.683044,198.997574 
	C658.498901,217.723404 680.513245,237.347122 696.197144,262.781158 
	C709.295715,284.022614 720.593994,306.301453 732.577148,328.182343 
	C741.082703,343.713104 747.812683,359.946320 750.576721,377.566437 
	C752.522339,389.969818 751.129028,402.116882 746.717590,413.851654 
	C744.964294,418.515594 748.915833,420.944824 750.082764,425.232086 
	C753.243225,419.987274 754.742310,414.894012 756.602051,409.993195 
	C769.058167,377.168976 784.554810,345.945587 805.535095,317.673065 
	C815.077820,304.813538 826.384949,293.785248 841.971375,288.463623 
	C850.508484,285.548828 859.084229,285.074432 867.588928,289.564148 
	C874.555237,293.241730 877.705261,298.846497 878.159363,306.371582 
	C878.717407,315.619934 877.159790,324.676208 874.879333,333.527802 
	C871.346497,347.240143 865.911072,360.252655 860.148438,373.221588 
	C849.984741,396.095367 836.784485,417.220032 824.481628,438.886169 
	C814.708313,456.097534 805.638977,473.707733 796.181396,491.099640 
	C789.510437,503.366852 782.741760,515.581360 775.922119,527.766541 
	C775.311279,528.858093 774.896362,529.712769 775.201538,530.968933 
	C778.069153,542.774414 779.989014,554.759338 781.996033,567.170166 
M282.267242,546.365723 
	C274.823120,544.113403 267.162689,544.009949 259.498413,544.223999 
	C253.350418,544.395630 247.202026,544.720825 241.067123,545.162537 
	C219.738922,546.698059 199.171234,551.068237 181.175232,563.325928 
	C166.573914,573.271362 157.855682,586.661133 160.402832,605.140198 
	C161.969421,616.505615 166.910309,626.729858 173.028732,636.350281 
	C181.308395,649.368835 193.769882,658.341003 205.142929,668.182678 
	C210.748581,673.033508 213.920639,678.681396 215.827576,685.037842 
	C222.263229,706.489807 228.148499,728.108643 234.103439,749.702515 
	C238.039551,763.975708 243.703888,777.349976 253.542877,788.632446 
	C259.618500,795.599426 264.530060,803.601074 273.393921,807.927795 
	C293.198456,817.595093 314.080872,822.918152 335.850281,825.924255 
	C364.606628,829.895081 393.466156,831.404419 422.434509,831.991821 
	C432.577087,832.197449 442.696350,831.929077 452.827301,831.786743 
	C457.891937,831.715637 460.765503,834.031677 460.154541,837.821960 
	C458.576080,847.614319 459.460114,857.439514 459.328827,867.246521 
	C459.264435,872.057556 457.430145,875.598083 453.194763,877.848022 
	C446.000610,881.669739 438.944061,885.797913 431.546692,889.177979 
	C421.913818,893.579346 412.073029,897.494019 403.631256,905.368835 
	C405.762634,905.490662 407.237335,905.761719 408.674316,905.627930 
	C422.444794,904.346802 436.205322,905.347656 449.968506,905.722595 
	C465.933655,906.157349 481.928680,906.136902 497.854797,907.173889 
	C512.657410,908.137817 527.415833,908.439758 542.191345,907.459473 
	C544.814331,907.285339 547.808655,907.393188 550.077332,905.575500 
	C549.974792,903.081787 548.258423,902.284241 546.677246,901.364197 
	C538.888428,896.832397 530.757751,892.953552 522.407227,889.639954 
	C512.673157,885.777344 502.699219,882.523682 492.877045,878.877441 
	C481.848694,874.783386 479.762848,871.607727 479.694458,859.943359 
	C479.649292,852.241272 481.006500,844.694580 482.073761,837.122803 
	C482.655304,832.996887 485.093384,831.152405 489.524994,831.979919 
	C496.724091,833.324280 504.069275,833.647034 511.345673,833.407471 
	C529.141296,832.821350 546.926025,831.874695 564.709412,830.960266 
	C586.986694,829.814819 609.238525,828.137573 631.105591,823.565247 
	C642.139038,821.258179 653.206238,818.566040 662.995117,812.472290 
	C680.603882,801.510742 695.200806,787.438171 707.307068,770.575195 
	C720.309570,752.463745 733.108887,734.227722 745.070129,715.409912 
	C747.664490,711.328430 750.081970,706.926086 754.581726,704.718750 
	C760.189026,701.968140 765.184814,698.427063 769.721680,694.243103 
	C788.173584,677.226624 804.566406,659.157959 803.145691,631.447144 
	C802.565247,620.124817 801.005310,609.232727 793.818298,600.003235 
	C790.399597,595.612915 785.458679,592.941101 781.066223,589.657898 
	C747.255371,564.385559 708.911194,558.034119 668.014954,562.788330 
	C649.257202,564.969055 631.117981,569.909363 613.372803,576.331665 
	C610.523682,577.362854 607.421265,578.127197 604.729919,576.144653 
	C594.345642,568.495361 582.496521,563.544556 571.262268,557.438171 
	C548.339478,544.978577 523.191223,541.170776 498.023804,537.790222 
	C485.539673,536.113281 472.855225,538.323730 460.293976,540.129211 
	C430.488617,544.413391 403.478638,555.367859 379.930359,573.985352 
	C371.922638,580.316406 365.238800,584.219360 356.763153,575.830322 
	C356.649597,575.717957 356.477356,575.660400 356.326111,575.591187 
	C332.401459,564.640015 308.082520,554.680725 282.267242,546.365723 
M268.107208,367.503326 
	C274.829102,387.116852 287.656158,399.045349 309.211243,399.044952 
	C322.078552,399.044739 334.669800,396.556396 346.979370,392.712372 
	C355.429047,390.073700 364.106934,388.216339 372.959259,388.256439 
	C393.655914,388.350250 410.492767,398.030212 426.417297,410.136169 
	C437.511139,418.569824 446.101624,429.467590 456.051544,439.019073 
	C481.200867,463.161224 514.432007,459.594696 539.069275,447.030151 
	C550.077393,441.416168 557.842041,431.749420 566.441162,423.202026 
	C570.711609,418.957184 575.264221,415.035370 580.572083,412.238007 
	C594.675537,404.805084 608.943909,406.869507 623.072937,412.217712 
	C633.545593,416.181946 642.737854,422.734344 652.811523,427.475311 
	C668.252075,434.742157 684.037964,440.474274 701.770996,437.813385 
	C718.421936,435.314880 738.014282,420.858826 741.214722,402.311890 
	C743.679871,388.026093 741.762573,374.501465 737.607544,361.040649 
	C733.314270,347.131805 726.356079,334.408051 719.142334,321.869507 
	C711.692627,308.920929 705.603455,295.249207 697.724609,282.528595 
	C687.997559,266.824005 678.641235,251.022202 665.313965,237.777832 
	C645.012878,217.603104 624.071289,198.642044 597.356506,187.068115 
	C580.837036,179.911209 564.206421,173.137695 546.566956,169.433395 
	C527.563049,165.442581 508.334900,165.155701 489.022034,167.248718 
	C468.745331,169.446198 448.816864,173.389923 429.698853,180.394623 
	C405.152191,189.388351 381.648590,200.709915 359.559540,214.822281 
	C341.109314,226.609863 324.242523,240.270355 309.419617,256.442719 
	C300.580444,266.086578 294.360901,277.569794 286.661011,287.989960 
	C276.281189,302.036835 268.557068,317.014618 265.894806,334.426147 
	C264.220490,345.376373 263.425842,356.220398 268.107208,367.503326 
M249.961380,380.365417 
	C238.798111,398.756439 229.597061,418.201813 221.331619,437.958435 
	C210.699707,463.371582 200.139847,488.919647 193.827271,515.895752 
	C191.340088,526.524353 188.378815,537.091187 187.967163,548.317261 
	C190.114914,548.494141 191.511551,547.539246 193.024612,546.952026 
	C197.821182,545.090576 202.467178,542.902954 207.483093,541.531616 
	C218.297623,538.574707 229.338089,537.322449 240.442703,536.271240 
	C257.065155,534.697632 273.556244,533.843567 289.858063,539.089355 
	C297.638947,541.593140 305.101593,544.824768 312.729584,547.663391 
	C328.472260,553.521667 344.147156,559.606812 358.920776,567.681396 
	C367.273041,572.246277 367.123779,572.414246 374.324127,566.412842 
	C376.622040,564.497559 379.043488,562.678101 381.602173,561.136475 
	C401.304993,549.264954 421.638092,539.594849 444.402771,533.994141 
	C482.454651,524.632263 519.197693,528.807678 555.353027,540.798645 
	C571.466431,546.142761 587.075562,553.747192 601.302307,563.395081 
	C606.627869,567.006531 610.774902,567.937622 617.353760,565.575195 
	C644.357666,555.877747 672.384399,551.382202 701.153625,552.776428 
	C719.192200,553.650574 736.732605,556.687073 753.491272,564.146484 
	C760.023682,567.054138 766.491455,570.324158 773.315430,573.027344 
	C774.154907,561.451965 744.974548,433.966797 739.970825,426.822052 
	C738.009644,427.170074 737.009583,428.858246 735.729980,430.075256 
	C722.743958,442.426086 707.519958,448.409363 689.441956,447.138916 
	C671.944275,445.909241 656.125244,439.962372 641.055725,431.341553 
	C633.009338,426.738434 625.167603,421.665344 616.132568,418.978302 
	C601.753357,414.701813 588.182556,414.890381 576.485901,425.830719 
	C570.055542,431.845337 564.045959,438.279419 557.630737,444.333984 
	C537.037903,463.769043 512.130249,467.286041 485.665192,464.544159 
	C470.397552,462.962463 458.826630,453.283356 447.972992,443.420868 
	C437.532257,433.933594 428.842316,422.606842 417.270538,414.236176 
	C397.256256,399.758575 376.120331,392.852264 351.232941,400.711517 
	C335.153381,405.789398 318.601288,410.347595 301.302856,407.283905 
	C288.010742,404.929779 276.000488,400.457916 268.454956,387.991913 
	C264.380035,381.259705 260.887054,374.273407 257.653381,366.371796 
	C254.934937,371.307892 252.619507,375.512238 249.961380,380.365417 
M696.243286,839.317444 
	C697.364136,844.572083 699.340576,849.321289 702.788269,853.628052 
	C709.235840,861.681946 718.175903,866.335876 726.678040,871.403748 
	C745.098145,882.383240 765.591492,887.477356 786.577515,890.700378 
	C795.664551,892.095947 804.763855,892.149536 813.872314,890.208740 
	C831.497314,886.453186 841.406982,873.817200 848.445312,858.934692 
	C854.759399,845.583496 859.701416,831.586365 866.809143,818.552307 
	C872.257324,808.561462 878.354065,799.331665 887.055969,791.620117 
	C902.042114,778.339233 913.772949,762.325317 920.622314,743.416992 
	C928.087891,722.807617 922.012817,701.458923 904.118225,688.928955 
	C889.710205,678.840332 876.640015,679.472900 864.345825,691.471619 
	C860.430420,695.292969 857.264832,699.872498 853.460815,703.820679 
	C849.235474,708.205933 848.122253,712.197021 851.025879,718.302734 
	C855.033325,726.729492 848.558167,735.219604 839.270020,734.560974 
	C833.649841,734.162415 828.036072,732.877625 823.130798,729.864319 
	C820.606567,728.313599 818.067810,726.477783 816.201172,724.220459 
	C809.119324,715.656433 813.071716,705.407593 824.276917,702.560181 
	C826.681519,701.949097 829.659302,702.361511 830.593445,698.785706 
	C833.661560,687.041016 833.513000,675.606262 826.674805,665.197693 
	C822.740356,659.209045 818.488159,653.163757 810.766785,650.327026 
	C808.673584,658.259766 805.744995,665.250061 801.379822,671.645935 
	C790.185120,688.048523 776.985168,702.342102 759.592896,712.364136 
	C757.841125,713.373657 756.399841,714.724609 755.260437,716.428345 
	C750.270874,723.889648 745.105835,731.237366 740.260193,738.790405 
	C729.919556,754.908752 719.163879,770.749207 707.052429,785.575195 
	C703.099792,790.413818 700.566956,795.448059 699.506592,801.440918 
	C698.898376,804.878235 697.939453,808.269226 697.555298,811.727417 
	C696.568176,820.612610 694.264587,829.443359 696.243286,839.317444 
M210.644058,392.990540 
	C213.879944,400.164734 216.314468,407.775818 221.977951,414.479340 
	C228.391602,401.514862 234.166580,388.989410 241.340775,377.220062 
	C245.229324,370.840912 247.556534,363.467499 252.791763,358.004211 
	C254.847122,355.859344 255.763962,353.972321 255.718155,351.097412 
	C255.453690,334.502869 259.265472,318.706421 266.020996,303.677887 
	C270.405182,293.924683 277.764313,285.949097 283.276337,276.838409 
	C291.493195,263.257019 301.381378,251.012634 312.729370,239.881592 
	C319.527100,233.213791 327.164429,227.593597 334.367126,221.436020 
	C335.827393,220.187637 336.702179,219.248260 336.271027,216.897125 
	C332.986633,198.987701 325.698639,183.446701 313.499451,169.478455 
	C299.911530,153.920044 284.175934,148.767288 264.908997,154.613235 
	C254.669113,157.720215 244.945770,162.141190 240.975235,173.748642 
	C237.325455,184.418472 236.771149,195.139404 238.502518,206.179108 
	C239.242630,210.898163 240.901352,213.640121 246.173233,214.712555 
	C253.148087,216.131409 258.012970,221.963501 258.184204,227.741486 
	C258.380249,234.358368 253.703278,238.006622 248.720581,240.755859 
	C242.264099,244.318314 235.065689,246.059158 227.719009,246.648895 
	C219.856674,247.280029 213.412994,240.312607 215.867874,232.908508 
	C217.725510,227.305725 216.049561,223.538712 213.073654,219.445236 
	C208.939682,213.758759 204.957367,207.372223 197.855057,205.604904 
	C174.542114,199.803864 150.319138,209.203751 143.349808,234.048767 
	C135.220428,263.029236 143.853851,288.113556 164.162781,309.608643 
	C168.548447,314.250458 173.565689,318.594360 179.613037,320.235840 
	C184.764206,321.634033 186.751526,324.478210 187.801788,328.943268 
	C192.964966,350.894257 201.491379,371.650055 210.644058,392.990540 
M100.204681,248.649445 
	C99.415054,258.292114 99.113243,267.949432 101.350899,277.434784 
	C105.613304,295.503052 112.285812,312.207275 127.231743,324.555847 
	C135.369629,331.279510 144.193695,335.518097 154.833405,335.686249 
	C157.833282,335.733643 160.696426,336.325928 161.138840,339.967438 
	C161.553650,343.381714 159.226578,345.075562 156.438751,346.209076 
	C155.525604,346.580383 154.505783,346.885315 153.534485,346.886108 
	C146.871979,346.891541 141.324570,349.930359 135.979340,353.376221 
	C125.046074,360.424500 121.604347,375.216400 129.110794,384.188049 
	C134.026749,390.063568 140.818817,393.398010 148.069778,395.737183 
	C158.991165,399.260437 170.251129,399.889099 181.615829,399.897308 
	C189.105194,399.902710 191.735931,402.573761 192.321854,410.040710 
	C192.542923,412.858154 192.835632,415.681702 193.312332,418.465363 
	C195.570297,431.649933 198.521515,444.656525 203.356674,457.795593 
	C207.243256,448.347198 210.719681,439.533112 214.500977,430.851807 
	C216.481125,426.305695 219.312744,421.989319 213.198120,418.361267 
	C212.574661,417.991364 212.332336,416.968964 211.928253,416.240967 
	C206.269485,406.045502 201.570541,395.396301 197.384125,384.537872 
	C191.228348,368.571320 184.244781,352.884125 180.527908,336.062714 
	C179.555344,331.661133 177.712891,328.204987 172.779785,326.687134 
	C169.024704,325.531738 165.592789,323.203979 162.583252,320.534851 
	C141.540909,301.872528 130.792358,278.403778 131.583435,250.337006 
	C132.481567,218.472046 150.019287,198.826035 179.860306,195.276718 
	C195.239899,193.447449 208.636215,197.100830 217.699631,210.971405 
	C219.579742,213.848709 221.865021,216.461288 223.568604,218.681198 
	C231.272568,217.751709 231.579071,213.552368 229.854492,207.676697 
	C228.009872,201.391968 228.389114,194.766525 228.911789,188.300110 
	C230.014999,174.651611 233.355972,162.034790 245.736099,153.741348 
	C251.211517,150.073349 257.156982,147.598236 263.375397,145.727432 
	C277.766693,141.397827 292.223297,141.936081 304.663422,150.308334 
	C321.709015,161.780075 334.043427,177.460663 340.413696,197.495865 
	C342.049683,202.641251 343.107880,207.987122 344.918243,213.044708 
	C345.615387,212.902145 345.995178,212.927261 346.244110,212.758896 
	C365.192352,199.942886 385.196625,189.070358 406.243256,180.112137 
	C407.553680,179.554367 408.345001,178.801987 408.371765,177.142899 
	C408.550873,166.047821 396.936615,154.894333 386.394623,156.203018 
	C382.163025,156.728348 378.476593,158.700363 374.963593,160.974182 
	C369.147125,164.738892 365.391968,170.031372 363.281281,176.625122 
	C362.626831,178.669586 361.445953,180.815613 358.753967,180.563904 
	C355.772583,180.285141 355.368073,177.697021 354.896515,175.431686 
	C354.492706,173.491592 354.609802,171.428543 354.096283,169.528000 
	C348.200928,147.708588 332.898315,133.846664 313.503235,124.750969 
	C285.795258,111.756821 256.920715,110.218796 227.458801,119.271576 
	C205.820770,125.920311 185.285583,134.760803 166.669479,147.713745 
	C152.233734,157.758026 139.611816,169.851196 128.467102,183.408539 
	C113.051086,202.161835 102.588600,223.185669 100.204681,248.649445 
M937.385681,671.095703 
	C936.414490,669.742004 935.576111,668.265259 934.452576,667.052795 
	C910.464600,641.165161 883.027283,620.857117 847.516968,613.815308 
	C836.716309,611.673462 825.835632,610.240234 814.801941,612.146606 
	C812.367065,612.567200 810.223999,612.889221 810.728271,616.379211 
	C811.750793,623.454834 812.673035,630.558350 812.151978,637.749084 
	C811.986938,640.026367 813.154846,641.273987 815.172546,642.361084 
	C825.924438,648.154297 833.662109,656.735962 838.212097,668.108398 
	C842.323669,678.385132 842.034485,688.917053 839.913574,699.539246 
	C839.580811,701.206360 838.309631,702.973572 840.468384,704.469421 
	C842.953430,703.410339 844.118103,701.123657 845.636902,699.199158 
	C849.965759,693.713806 854.149353,688.127991 859.566589,683.582336 
	C867.905090,676.585510 877.184082,671.666748 888.284851,673.207764 
	C915.742920,677.019531 934.475586,703.699768 932.556030,730.363586 
	C931.650146,742.945984 927.301514,754.547058 920.088684,765.163330 
	C911.380798,777.980225 902.981323,790.913391 890.793884,800.903137 
	C885.780518,805.012451 881.873901,810.189880 878.615540,815.954895 
	C871.144592,829.173584 864.625793,842.787537 859.244263,856.991577 
	C854.322693,869.981689 846.817078,881.355957 835.684204,889.854126 
	C821.232178,900.885803 804.401672,902.472107 787.213806,899.994446 
	C757.915100,895.771057 730.294861,886.994507 706.172241,868.830994 
	C694.046814,859.701050 687.063904,848.421387 686.597778,833.132935 
	C686.313110,823.794495 687.926697,814.668274 689.184875,805.359253 
	C680.560730,810.368591 673.556641,817.457214 664.734009,821.861938 
	C663.906067,822.275269 663.144897,823.161194 662.729980,824.011719 
	C657.404175,834.929382 655.984375,846.664062 659.564331,857.981140 
	C665.640564,877.189453 681.025330,889.094910 697.150085,899.155457 
	C719.094116,912.847046 743.419250,920.709534 769.137756,924.254272 
	C784.835693,926.417969 800.495667,927.365112 816.310181,925.900818 
	C834.955200,924.174438 849.601196,914.979980 861.773010,901.512817 
	C870.839905,891.481140 873.745605,878.910583 873.444153,865.812683 
	C873.272888,858.370300 876.914978,854.935120 883.002075,852.604187 
	C890.922119,849.571533 898.899536,846.665588 906.695435,843.337830 
	C915.287598,839.670227 923.717896,835.585876 930.018005,828.324219 
	C933.049072,824.830750 935.575867,820.757751 933.695557,816.117737 
	C931.753601,811.325745 927.066040,809.935242 922.237427,809.407837 
	C917.850830,808.928589 913.666565,810.183716 909.400330,810.842896 
	C906.114441,811.350464 901.407837,813.128784 900.305237,808.760437 
	C899.157288,804.212280 904.179749,803.431824 907.454224,802.051575 
	C907.754639,801.924927 908.108032,801.839172 908.428955,801.859253 
	C912.310913,802.101929 914.982483,799.878662 917.549255,797.425659 
	C930.545349,785.005981 940.812561,770.426636 949.438782,754.844360 
	C954.799133,745.161499 956.777039,733.955261 956.341614,722.932251 
	C955.595581,704.046875 949.269775,686.851685 937.385681,671.095703 
M810.920410,325.386627 
	C799.286560,341.475403 789.698608,358.737274 780.773743,376.456360 
	C770.870361,396.118225 764.123169,417.054932 755.224609,437.106934 
	C754.409607,438.943512 754.644470,440.612457 755.061096,442.430573 
	C758.366638,456.854187 761.584534,471.297943 764.915833,485.715546 
	C767.143799,495.358307 769.513062,504.968414 772.150269,515.975281 
	C778.418518,504.757477 784.210022,495.079865 789.345337,485.065735 
	C801.719360,460.935577 815.492065,437.588745 828.706909,413.930389 
	C839.575867,394.471680 850.950256,375.267334 858.690125,354.254944 
	C864.080139,339.621796 869.407288,324.979156 869.490173,309.011139 
	C869.524658,302.365753 865.924988,296.995605 859.328186,295.779846 
	C850.431458,294.140198 842.371399,297.006775 835.133850,301.572815 
	C825.629944,307.568634 818.104309,315.865936 810.920410,325.386627 
M681.842590,920.242065 
	C688.619141,918.255920 695.489380,916.518433 702.439636,912.730042 
	C690.745300,906.155945 680.083130,899.225830 671.194580,890.293823 
	C660.583618,896.677490 651.736206,906.731445 647.049744,917.676575 
	C646.048035,920.016174 643.941040,922.621094 645.895996,925.112122 
	C647.876404,927.635803 651.195618,926.968506 653.880005,926.521118 
	C663.043579,924.993591 672.188538,923.299316 681.842590,920.242065 
M841.467102,953.009338 
	C844.552063,954.622437 847.528442,956.485901 850.982178,957.265259 
	C853.405762,957.812073 856.106628,958.728516 858.025574,956.633118 
	C859.752808,954.747070 858.874084,952.226440 858.276062,949.968506 
	C855.900024,940.997559 850.064941,933.888000 845.530701,925.401184 
	C837.699524,931.473511 828.440979,932.712891 818.832947,935.218262 
	C825.706665,942.677917 832.983459,948.015747 841.467102,953.009338 
M228.713943,227.174210 
	C227.857956,228.392197 226.821991,229.524490 226.190994,230.849609 
	C225.381134,232.550354 223.476471,234.280090 225.002747,236.302322 
	C226.532013,238.328522 229.015228,238.073120 230.994125,237.302124 
	C235.478516,235.554962 240.434967,235.208694 244.619949,232.615570 
	C246.594147,231.392303 249.184784,230.352341 248.565399,227.530731 
	C247.977615,224.853012 245.508743,223.673889 242.944916,223.283646 
	C237.948822,222.523224 233.389389,223.798370 228.713943,227.174210 
M821.813354,716.215210 
	C824.172241,721.177246 835.238281,726.773071 840.264221,725.596313 
	C842.997620,724.956238 842.999268,723.137695 842.413330,720.996094 
	C840.681335,714.665833 832.016541,709.754639 825.730042,711.588013 
	C823.730774,712.171082 822.061646,713.193542 821.813354,716.215210 
z"/>
<path fill="#000000" opacity="1.000000" stroke="none" 
	d="
M200.184372,564.099670 
	C217.770721,555.179443 236.068665,552.246338 255.176285,554.757446 
	C260.892120,555.508667 265.925842,558.266418 269.673157,562.880676 
	C274.507141,568.833069 272.595642,577.006592 265.788574,580.571899 
	C258.183441,584.555115 249.683350,584.407532 241.586578,586.043579 
	C231.342560,588.113708 221.093185,590.032288 211.238998,593.639954 
	C208.432251,594.667542 205.434891,594.994568 202.506104,595.578491 
	C197.573242,596.561890 193.638855,595.707092 190.650070,591.492493 
	C187.184265,586.605286 185.251587,581.467896 188.282913,575.662109 
	C190.904083,570.641907 194.941635,566.995789 200.184372,564.099670 
M235.907135,563.382202 
	C233.097412,563.718445 230.269531,563.945862 227.481216,564.410522 
	C217.409943,566.088684 207.568451,568.407654 199.493164,575.252686 
	C196.825409,577.513916 194.803513,580.173157 196.281174,583.832092 
	C197.768753,587.515625 200.917679,587.038269 203.944000,586.190979 
	C209.701965,584.578796 215.368454,582.568176 221.198410,581.299622 
	C233.545364,578.612915 245.978012,576.321777 258.362030,573.802002 
	C260.246155,573.418640 262.846924,573.406799 263.200928,571.036621 
	C263.588226,568.443420 261.455505,566.843994 259.385468,565.687927 
	C257.948517,564.885315 256.355103,564.239319 254.751663,563.880249 
	C248.830170,562.554138 242.823990,563.150818 235.907135,563.382202 
z"/>
<path fill="#000000" opacity="1.000000" stroke="none" 
	d="
M718.347168,735.096436 
	C721.070923,741.453613 717.737488,746.405823 714.978455,750.886841 
	C705.555542,766.190552 692.990234,778.764282 678.736145,789.566345 
	C674.552917,792.736511 669.584717,795.047241 663.832458,793.918030 
	C657.036926,792.583984 653.817566,787.185486 656.164978,780.676086 
	C660.437683,768.827698 668.637085,759.605774 676.796509,750.421143 
	C681.409668,745.228394 686.152771,740.121826 691.910217,736.070007 
	C697.047546,732.454468 702.539001,729.913940 708.867798,729.539551 
	C713.025085,729.293579 716.334351,730.770203 718.347168,735.096436 
M706.837708,747.299683 
	C708.362915,744.784851 709.945007,742.285767 709.374390,739.119873 
	C697.293579,738.929871 664.308716,773.263367 665.595581,784.407227 
	C673.573364,784.666260 697.141602,763.657654 706.837708,747.299683 
z"/>
<path fill="#000000" opacity="1.000000" stroke="none" 
	d="
M646.140015,790.845459 
	C652.052734,797.194214 651.640320,804.958496 644.833618,809.452026 
	C636.606934,814.883179 627.333496,815.533752 618.140076,812.537659 
	C611.897400,810.503235 610.626404,803.978455 614.100098,798.147705 
	C619.093567,789.765930 637.124634,783.415894 646.140015,790.845459 
M637.435608,803.299927 
	C638.917664,802.268250 640.810181,801.430359 640.906067,799.381470 
	C640.977173,797.860779 639.502380,797.260803 638.235657,796.786316 
	C633.200684,794.900452 624.216370,798.918518 621.935852,804.341553 
	C627.040894,806.466064 631.920349,805.255371 637.435608,803.299927 
z"/>
<path fill="#000000" opacity="1.000000" stroke="none" 
	d="
M313.081055,575.973206 
	C309.768463,582.589539 301.100189,586.550049 293.971649,585.006958 
	C285.703583,583.217163 281.496735,578.781677 281.096954,571.432495 
	C280.586029,562.039124 290.158936,554.659302 299.829620,556.991333 
	C309.397430,559.298584 313.946777,565.637695 313.081055,575.973206 
M304.325867,571.679443 
	C303.363373,568.009094 300.737030,566.031555 297.213806,565.650818 
	C294.073792,565.311523 291.143616,566.356628 290.227692,569.859253 
	C289.544434,572.472229 290.819763,574.713440 293.311676,575.356201 
	C297.397766,576.410400 301.569397,576.670471 304.325867,571.679443 
z"/>
<path fill="#000000" opacity="1.000000" stroke="none" 
	d="
M603.226257,814.871460 
	C601.070251,822.288208 595.248962,823.709961 589.112427,824.045105 
	C583.503357,824.351440 578.628174,822.508423 575.700317,817.175903 
	C573.801331,813.717468 574.780151,810.505310 577.100586,807.948669 
	C581.491089,803.111572 587.006287,801.795227 593.448425,803.352905 
	C599.484863,804.812500 602.373413,808.647827 603.226257,814.871460 
M591.883789,812.581787 
	C587.565247,811.827087 587.565247,811.827087 585.080688,814.609985 
	C587.792664,814.116333 590.582886,816.389465 591.883789,812.581787 
z"/>
<path fill="#000000" opacity="1.000000" stroke="none" 
	d="
M332.174011,596.063904 
	C322.856171,594.233765 318.150940,588.248413 320.180023,581.295288 
	C321.822266,575.667786 326.825012,572.777893 333.061066,573.854492 
	C339.256012,574.923950 344.726044,580.616943 344.631622,585.896790 
	C344.532654,591.432068 339.840881,595.406311 332.174011,596.063904 
M328.883148,583.836487 
	C329.961090,588.039490 332.384552,586.995850 335.382507,585.572510 
	C333.634979,583.057739 332.120300,581.268738 328.883148,583.836487 
z"/>
<path fill="#000000" opacity="1.000000" stroke="none" 
	d="
M867.507935,729.767334 
	C872.363342,724.715454 878.209900,724.154480 882.099548,728.050415 
	C885.952454,731.909546 885.462708,738.032410 880.989990,742.083252 
	C877.643555,745.114014 874.077698,744.984497 870.525452,742.624207 
	C866.021606,739.631653 865.024597,735.472900 867.507935,729.767334 
z"/>
<path fill="#000000" opacity="1.000000" stroke="none" 
	d="
M800.909912,699.759338 
	C801.621948,704.089417 801.406555,707.784546 797.727417,710.342712 
	C794.901489,712.307678 792.088318,711.751953 789.308716,710.242310 
	C784.543335,707.654358 783.394775,703.273254 786.200989,698.476318 
	C788.718079,694.173584 793.390625,693.185364 797.703918,696.196655 
	C798.887024,697.022705 799.752319,698.303894 800.909912,699.759338 
z"/>
<path fill="#000000" opacity="1.000000" stroke="none" 
	d="
M268.973236,187.470078 
	C271.753510,180.075958 275.827271,177.560120 281.259644,179.522873 
	C286.985931,181.591827 289.957489,187.386887 288.267334,193.031433 
	C286.938477,197.469421 283.427704,199.455383 279.394043,199.970108 
	C275.058380,200.523376 271.757263,198.277054 269.901489,194.173187 
	C268.988831,192.154922 268.581177,190.076736 268.973236,187.470078 
z"/>
<path fill="#000000" opacity="1.000000" stroke="none" 
	d="
M179.004379,252.615997 
	C171.241470,254.175095 167.981155,252.584335 165.562256,246.418121 
	C163.866974,242.096527 165.730453,236.482056 169.614761,234.208389 
	C174.259079,231.489838 180.267517,232.912506 183.198044,237.424561 
	C186.638016,242.721054 185.309555,247.931122 179.004379,252.615997 
z"/>
<path fill="#000000" opacity="1.000000" stroke="none" 
	d="
M840.476685,304.924194 
	C849.564331,304.711670 853.580017,310.722290 850.817078,319.574463 
	C848.457703,327.133789 844.609253,333.890503 839.581116,339.924530 
	C835.230652,345.145355 830.564758,350.105408 825.978333,355.125977 
	C824.978027,356.220978 823.841248,357.292694 822.563477,358.014099 
	C818.628235,360.235748 814.266296,361.433563 810.275269,358.841064 
	C806.753784,356.553528 805.945557,352.076416 806.923401,348.541656 
	C812.135681,329.699097 821.186096,313.554779 840.476685,304.924194 
M829.498779,337.987854 
	C835.392334,330.913239 841.290100,323.840820 842.279602,313.802277 
	C831.143982,317.947083 816.099304,339.477875 816.502136,350.524506 
	C822.194275,347.922485 824.645264,342.186371 829.498779,337.987854 
z"/>
<path fill="#000000" opacity="1.000000" stroke="none" 
	d="
M805.093689,387.025330 
	C800.999268,391.913239 795.388855,393.080139 790.772644,390.263580 
	C785.590942,387.102020 784.142151,381.901398 786.813965,376.045288 
	C786.951477,375.743774 787.102173,375.447784 787.256897,375.154633 
	C789.895935,370.155609 793.482300,366.590302 799.646545,366.727539 
	C803.672180,366.817169 806.168152,369.263489 807.720276,372.462799 
	C810.229065,377.634125 808.947754,382.446655 805.093689,387.025330 
M796.129883,377.647430 
	C795.333069,379.011505 794.128479,380.273804 795.106812,382.326996 
	C798.302124,382.964172 799.450867,381.011932 799.518921,378.332275 
	C799.576599,376.064362 798.152283,376.099091 796.129883,377.647430 
z"/>
</svg>