<?xml version="1.0" encoding="UTF-8" standalone="no"?><svg xmlns:svg="http://www.w3.org/2000/svg" xmlns="http://www.w3.org/2000/svg" version="1.1" style="overflow:visible" viewBox="-250 -250 500 500" height="500px" width="500px"><rect fill-opacity="0" fill="rgb(0,0,0)" height="500" width="500" y="-250" x="-250" /><svg version="1.1" y="-250" x="-250" viewBox="-250 -250 500 500" height="500px" width="500px" style="overflow:visible"><g transform="rotate(0,0,0)" stroke-linejoin="round" fill="#fff"><path stroke-linecap="butt" stroke-linejoin="round" stroke-width="6" stroke-opacity="1" stroke="rgb(68,68,68)" fill="rgb(255,255,255)" d="m-105.898-152.9443c25.1642-1.31039 28.2147 19.8354 31.7433 38.7328c4.48673-15.6366 7.65846-24.0626 16.5881-23.4688c10.672 0.70968 7.44644 21.3251 11.4091 23.642c46.0848 32.6714 9.11264 68.4675 60.301 134.294l-72.01 86.5866c-89.4776-112.889-9.49035-169.387-48.0314-259.787z" /><path stroke-linecap="butt" stroke-linejoin="round" stroke="none" fill="rgb(255,255,255)" d="m143.803-193.4198c-40.6337 106.258-117.323 182.148-196.419 256.01c-52.3406 4.71774-60.514-39.2729-97.11-38.5851c-15.5433 0.29217-28.8051 14.1711-29.3257 28.0691c-1.61288 8.57962-11.8655 24.6009 12.2599 20.5679c5.98902 3.57407 14.387 6.18648 25.7195 7.18423c25.8574 2.27656 51.2118 67.926 84.8802 87.2523c37.2122 21.3603 72.4496 14.4381 101.893 7.0899c42.0137 26.4187 68.6418 23.6047 78.0863 3.91661c17.0125 10.3941 45.2838-2.40811 35.8141-22.9111c33.2642 3.11366 39.2724-19.8157 36.942-34.0648c-37.0159 10.4245-94.8528 3.54487-128.273-3.99963c52.222-12.7794 115.804-62.1086 114.266-184.723c11.8171-19.0522 4.8171-47.698-15.8134-24.7864c17.4084-29.0176 6.51915-67.4515-13.6405-32.1819c5.92948-19.2 15.9261-44.3135-9.27983-68.8389z" /><path stroke-linecap="butt" stroke-linejoin="round" stroke="none" fill="rgb(214,225,228)" d="m153.083-124.581c-9.94077 23.109-26.7843 57.916-53.1742 83.1999c-5.80411 5.33939 2.43445 13.9407 8.0161 8.36904c18.5595-20.4365 52.4932-67.627 45.1581-91.5689z" /><path stroke-linecap="butt" stroke-linejoin="round" stroke="none" fill="rgb(228,236,239)" d="m166.723-92.4c-9.42868 29.0789-26.7069 62.2185-68.4217 94.5724c-6.2635 4.71362 1.13217 14.245 7.09945 9.16142c59.1717-50.4085 65.4578-88.7361 61.3222-103.734z" /><path stroke-linecap="butt" stroke-linejoin="round" stroke="none" fill="rgb(234,240,243)" d="m182.536999-67.612c-14.8878 39.0078-42.8396 84.9958-80.6176 112.541c-6.24648 4.55272 0.85471 14.2748 6.82786 9.36896c67.8361-55.7157 72.3354-106.393 73.7897-121.909z" /><path stroke-linecap="butt" stroke-linejoin="round" stroke="none" fill="rgb(68,68,68)" d="m-159.2173 44.737a6.80272 6.80401 0 0 0 6.80267 6.80399a6.80272 6.80401 0 0 0 6.80275-6.804a6.80272 6.80401 0 0 0-6.80275-6.80402a6.80272 6.80401 0 0 0-6.80267 6.80403z" /><path stroke-linecap="butt" stroke-linejoin="round" stroke-width="6" stroke-opacity="1" stroke="rgb(68,68,68)" fill="none" d="m143.803-193.4198c-40.6337 106.258-117.323 182.148-196.419 256.01c-52.3406 4.71774-60.514-39.2729-97.11-38.5851c-15.5433 0.29217-28.8051 14.1711-29.3257 28.0691c-1.61288 8.57962-11.8655 24.6009 12.2599 20.5679c5.98902 3.57407 14.387 6.18648 25.7195 7.18423c25.8574 2.27656 51.2118 67.926 84.8802 87.2523c37.2122 21.3603 72.4496 14.4381 101.893 7.0899c42.0137 26.4187 68.6418 23.6047 78.0863 3.91661c17.0125 10.3941 45.2838-2.40811 35.8141-22.9111c33.2642 3.11366 39.2724-19.8157 36.942-34.0648c-37.0159 10.4245-94.8528 3.54487-128.273-3.99963c52.222-12.7794 115.804-62.1086 114.266-184.723c11.8171-19.0522 4.8171-47.698-15.8134-24.7864c17.4084-29.0176 6.51915-67.4515-13.6405-32.1819c5.92948-19.2 15.9261-44.3135-9.27983-68.8389z" /><path stroke-linecap="butt" stroke-linejoin="round" stroke-width="6" stroke-opacity="1" stroke="rgb(68,68,68)" fill="rgb(255,234,103)" d="m-179.0743 52.023c-6.74476 5.41825-14.7988 17.0987-17.9259 26.7384l33.1625-4.01342c-8.34905-4.88058-12.2227-15.4729-15.2366-22.725z" /></g></svg></svg>