<?xml version="1.0" encoding="UTF-8" standalone="no"?><svg xmlns:svg="http://www.w3.org/2000/svg" xmlns="http://www.w3.org/2000/svg" version="1.1" style="overflow:visible" viewBox="-250 -250 500 500" height="500px" width="500px"><rect fill-opacity="0" fill="rgb(0,0,0)" height="500" width="500" y="-250" x="-250" /><svg version="1.1" y="-250" x="-250" viewBox="-250 -250 500 500" height="500px" width="500px" style="overflow:visible"><g transform="rotate(0,0,0)" stroke-linejoin="round" fill="#fff"><path stroke-linecap="butt" stroke-linejoin="round" stroke-width="6" stroke-opacity="1" stroke="rgb(68,68,68)" fill="rgb(255,255,255)" d="m-2.749 139.856l-9.88368 20.0619c11.8086-1.28738 20.4797 10.9248 17.3553 17.3233c-6.26037-4.015591-17.0284-5.8472-24.2954-6.89002c-2.33348 3.00781-14.2827 6.22494-20.4837 5.40889c-17.5905-2.31491-32.5229-0.107-32.5229-0.107c0-19.9335 24.8314-8.69395 45.6371-15.8265l17.1833-25.5788z" /><path stroke-linecap="butt" stroke-linejoin="round" stroke="none" fill="rgb(255,255,255)" d="m-125.175-177.1624c-9.69265 0.01232-19.931 3.44799-27.0644 10.8298c-3.92721 4.063939-7.28105 10.4174-10.2718 15.9893l5.8968 36.6234c1.469 0.8308 2.77385 1.82622 3.87039 3.01142c10.4157 11.2579-7.50558 65.4546 13.7693 119.903c25.1365 64.331998 67.8329 91.0104 126.317 107.327c1.19535 7.48813 0.78287 16.0638-3.33138 24.6648c3.18371 2.99322 6.99121 5.73878 11.6638 4.6671c8.69405-8.16521 16.3885-12.6019 16.665-28.6652c9.49835-0.15383 22.397-1.33857 31.723-2.95264l8.13822-14.0369l-38.3516-15.364v-0.002c-36.3374-13.8046-74.7842-43.2244-86.3645-92.675l50.3436-61.965c-14.0987-12.874-27.7373-26.9996-40.1468-42.9927c-16.4745-21.2322-23.2788-48.9101-46.7872-60.7998c-4.63487-2.34417-10.2536-3.57002-16.0692-3.56263z" /><path stroke-linecap="butt" stroke-linejoin="round" stroke="none" fill="rgb(255,255,255)" d="m122.993 72.524c1.55634 10.3801-6.51118 18.495-36.6918 14.052c-7.13314 10.438-38.8927 11.0062-72.4513-1.74281c6.36951 9.8185 17.3397 21.3217 30.2135 29.4028c39.3765 22.6909 101.215 48.4643 94.9098 24.6668c11.5085 2.33983 21.8877 8.83084 36.0149 10.9514c60.3541 9.05918-19.1373-33.3153-51.995-77.3302z" /><path stroke-linecap="butt" stroke-linejoin="round" stroke="none" fill="rgb(255,153,31)" d="m-131.156-144.14a7.64424 7.64477 0 0 1-7.64424 7.64476a7.64424 7.64477 0 0 1-7.64424-7.64476a7.64424 7.64477 0 0 1 7.64424-7.64476a7.64424 7.64477 0 0 1 7.64424 7.64476z" /><path stroke-linecap="butt" stroke-linejoin="round" stroke="none" fill="rgb(68,68,68)" d="m-134.894-144.14a3.90706 3.90733 0 0 1-3.90707 3.90733a3.90706 3.90733 0 0 1-3.90704-3.90733a3.90706 3.90733 0 0 1 3.90704-3.90732a3.90706 3.90733 0 0 1 3.90707 3.90732z" /><path stroke-linecap="butt" stroke-linejoin="round" stroke="none" fill="rgb(143,153,159)" d="m-169.0558-140.126c-5.76677 5.22147-24.2262 7.74439-27.9438 25.0215c11.4282-2.11359 30.0092-4.48461 40.3858 1.38411c6.74913-9.63107-0.53493-19.3528-12.442-26.4056z" /><path stroke-linecap="butt" stroke-linejoin="round" stroke="none" fill="rgb(238,238,238)" d="m-162.5106-150.3431c-2.23228 4.15886-4.26898 7.89391-6.15817 9.85296c-1.40462 1.45658-3.82131 2.69446-6.64654 4.04293c20.0181 15.5254 32.0719 1.97397 12.8047-13.8959z" /><path stroke-linecap="butt" stroke-linejoin="round" stroke="none" fill="rgb(207,205,207)" d="m-54.903-103.664l-95.1367 44.6566c-0.0708 20.2501 1.68588 44.1959 11.066 68.2027c3.32792 8.51714 6.97271 16.3567 10.9121 23.6172c24.2179-17.5679 35.5082-56.9823 62.3133-81.2393l33.0782 5.83798l10.4992-27.2178c-11.3467-10.3612-22.3823-21.5535-32.7322-33.8571z" /><path stroke-linecap="butt" stroke-linejoin="round" stroke="none" fill="rgb(242,242,242)" d="m-81.020001-143.223c-16.142701 23.6167-32.4698 67.6084-68.7715 71.7227c-0.261416 8.16954-0.415856 17.1555 0.0507 26.7664c29.3389 5.07256 64.4659-31.8016 98.8714-54.2278c-3.90859-4.46342-7.73962-9.05845-11.449-13.8392c-7.38323-9.51542-12.8287-20.3188-18.7015-30.4222z" /><path stroke-linecap="butt" stroke-linejoin="round" stroke="none" fill="rgb(102,112,118)" d="m105.408 36.593l-142.142 17.0613c6.69937 6.30562 13.9239 11.8176 21.4047 16.579l45.4808 12.4628l77.0291-10.9823l10.2732-14.7928c-3.0959-6.51806-7.19019-13.3517-12.0448-20.3281z" /><path stroke-linecap="butt" stroke-linejoin="round" stroke="none" fill="rgb(102,112,118)" d="m75.898 1.312l-139.391 16.2831c2.74417 5.63634 5.87666 10.9249 9.31934 15.886l107.301 33.231299l39.801-46.4178c-5.28074-6.36697-11.0019-12.7344-17.0298-18.9824z" /><path stroke-linecap="butt" stroke-linejoin="round" stroke="none" fill="rgb(255,255,255)" d="m117.449 56.923999c-35.0183 16.6919-85.1282 18.9582-132.757 13.3122c42.1737 26.8418 92.4017 29.8134 101.609 16.3399c30.1806 4.44306 38.2481-3.67185 36.6918-14.052c-1.047331-4.9077-2.94969-10.1445-5.54419-15.6001z" /><path stroke-linecap="butt" stroke-linejoin="round" stroke="none" fill="rgb(255,255,255)" d="m92.927 20.293999c-39.169 14.4367-85.474 20.8786-147.099 13.1866c5.18099 7.46593 11.0746 14.1776 17.4451 20.1741c54.0547 3.55847 106.394 1.10926 142.118-17.0532c-3.74596-5.37954-7.93042-10.841-12.4643-16.307401z" /><path stroke-linecap="butt" stroke-linejoin="round" stroke="none" fill="rgb(255,255,255)" d="m-28.568001-70.513c-21.7565 0.259909-52.8465 24.664-43.9462 62.6703c2.14477 9.15864 5.21759 17.624 9.02147 25.4369h0.002c75.3832 4.56996 111.62-5.99973 139.389-16.283101c-34.1419-35.3888-77.4505-66.8249-98.069-71.1188c-1.99631-0.50156-4.14664-0.73211-6.39729-0.70523z" /><path stroke-linecap="round" stroke-linejoin="round" stroke-width="6" stroke-opacity="1" stroke="rgb(68,68,68)" fill="none" d="m-72.515-7.842001c22.2751 95.1198 143.959 116.158 158.816 94.4179c30.1806 4.44306 38.2481-3.67185 36.6918-14.052" /><path stroke-linecap="butt" stroke-linejoin="round" stroke-width="6" stroke-opacity="1" stroke="rgb(68,68,68)" fill="none" d="m-168.668-140.491c-5.28413 5.47956-24.5284 7.70918-28.332 25.3858c13.0462-2.4128 35.4149-5.16052 44.2571 4.39656c10.4157 11.2578-7.50664 65.453599 13.7682 119.902c25.1365 64.331998 67.8342 91.0113 126.318 107.328c1.19533 7.48813 0.78131 16.0643-3.33295 24.6654c3.18371 2.99321 6.99259 5.7381 11.6653 4.66643c8.69405-8.16522 16.3881-12.6019 16.6647-28.6652c9.49834-0.15384 22.3959-1.33956 31.722-2.95362c39.3765 22.6909 101.215 48.4659 94.9097 24.6684c11.5086 2.33983 21.8881 8.82966 36.0153 10.9502c60.3541 9.05918-19.136-33.314501-51.9938-77.3293c-10.7524-50.3848-110.336-135.077-145.164-142.331c-14.0987-12.874-27.7376-26.9997-40.147-42.9928c-16.4745-21.2321-23.2796-48.9114-46.788-60.8012c-12.3597-6.25114-31.7202-4.54307-43.1336 7.26774c-6.8585 7.09729-12.0088 21.2587-16.4291 25.8424z" /></g></svg></svg>