<?xml version="1.0" encoding="UTF-8" standalone="no"?><svg xmlns:svg="http://www.w3.org/2000/svg" xmlns="http://www.w3.org/2000/svg" version="1.1" style="overflow:visible" viewBox="-250 -250 500 500" height="500px" width="500px"><rect fill-opacity="0" fill="rgb(0,0,0)" height="500" width="500" y="-250" x="-250" /><svg version="1.1" y="-250" x="-250" viewBox="-250 -250 500 500" height="500px" width="500px" style="overflow:visible"><g transform="rotate(0,0,0)" stroke-linejoin="round" fill="#fff"><path stroke-linecap="butt" stroke-linejoin="round" stroke="none" fill="rgb(255,255,255)" d="m-111.77-56.84c-19.179-0.2457-35.437 7.3707-50.641 16.965c8.5048 7.9864 23.792 11.249 42.176 12.641c22.881-0.7083 45.812 1.0416 69.197 6.209c-16.578-12.735-25.916-33.834-57.447-35.697c-1.1048-0.0653-2.1993-0.1033-3.2852-0.1172z" /><path stroke-linecap="butt" stroke-linejoin="round" stroke="none" fill="rgb(125,201,255)" d="m-162.406-39.87c-11.481 7.24-22.363 15.61-33.426001 22.6c25.495-5.45 50.522-9.19 75.602-9.96c-14.27-3.68-28.47-7.55-42.176-12.64z" /><path stroke-linecap="butt" stroke-linejoin="round" stroke-width="6" stroke-opacity="1" stroke="rgb(68,68,68)" fill="none" d="m-108.48-56.72c-35.354-2.0888-60.809 22.665-87.353 39.455c48.751-10.436 95.777-14.59 144.8-3.7577c-16.58-12.74-25.92-33.84-57.45-35.7z" /><path stroke-linecap="butt" stroke-linejoin="round" stroke-width="6" stroke-opacity="1" stroke="rgb(68,68,68)" fill="rgb(255,255,255)" d="m-59.11-5.52c-5.719-15.299-29.519-39.397-49.37-51.2c42.898 1.1873 61.315 30.095 92.097 53.549z" /><path stroke-linecap="butt" stroke-linejoin="round" stroke="none" fill="rgb(255,255,255)" d="m-49.37-13.57c-22.419 0.4405-62.236 2.7275-67.064 30.564c-1.9514 11.25 13.441 23.814 28.189 20.719c0.6817-0.1495 1.3589-0.3173 2.0293-0.5059c14.626 12.29 39.027 23.221 60.812 28.668c23.288 5.8229 51.002 3.92 66.465 2.3496c14.265-1.4487 28.216 3.3779 38.121 8.164099c19.735-0.8279 18.886-12.806 19.854-23.945c-19.467-1.2626-36.966 1.6538-66.045-34.477c-11.707-14.546-50.227-31.501-82.361-31.537z" /><path stroke-linecap="butt" stroke-linejoin="round" stroke="none" fill="rgb(255,255,255)" d="m-92.63 6.73a7.932 7.8477 0 0 0 7.932 7.8479a7.932 7.8477 0 0 0 7.9319-7.8479a7.932 7.8477 0 0 0-7.9319-7.8478a7.932 7.8477 0 0 0-7.932 7.8478z" /><path stroke-linecap="butt" stroke-linejoin="round" stroke="none" fill="rgb(68,68,68)" d="m-88.87 6.73a4.171999 4.1277 0 0 0 4.1722 4.1277a4.171999 4.1277 0 0 0 4.1719-4.1277a4.171999 4.1277 0 0 0-4.1719-4.1277a4.171999 4.1277 0 0 0-4.1722 4.1277z" /><path stroke-linecap="butt" stroke-linejoin="round" stroke="none" fill="rgb(125,201,255)" d="m99.04 52.44c-5.1885 8.9286-11.508 17.152-19.854 23.945c8.5552 4.1338 14.102 8.2363 14.102 8.2363c10.213-1.4716 25.318-20.617 27.945-27.279c-8.0612-3.4794-15.249-4.452-22.193-4.9024z" /><path stroke-linecap="butt" stroke-linejoin="round" stroke-width="6" stroke-opacity="1" stroke="rgb(68,68,68)" fill="none" d="m-49.37-13.57c32.134 0.0361 70.653 16.991 82.36 31.537c39.451 49.018 57.579 26.146 88.239 39.379c-2.6272 6.6626-17.732 25.809-27.945 27.28c0 0-25.639-19.102-52.224-16.402001c-15.463 1.5704-43.176 3.4744-66.464-2.3485c-21.785-5.4472-46.187-16.379001-60.813-28.669c-0.6704 0.1885-1.3471 0.3578-2.0288 0.5073c-14.748 3.0952-30.141-9.4695-28.19-20.719c4.8286-27.837 44.645-30.125 67.063999-30.565z" /><path stroke-linecap="butt" stroke-linejoin="round" stroke="none" fill="rgb(125,201,255)" d="m158.57-53.21l-68.604 21.859c37.046 11.151 67.845 11.208 105.87-6.5762c0 0-16.094001-6.8456-37.264-15.283z" /><path stroke-linecap="butt" stroke-linejoin="round" stroke="none" fill="rgb(255,255,255)" d="m62.07-84.6c-0.7646 0.006-1.4393 0.0595-2.0176 0.166c-21.913 4.035-26.385 55.244-96.646 71.684c10.468 15.43 41.934 32.52 69.588 30.711c17.293-11.846 34.654-21.327 56.969-49.318c28.946-0.1167 48.898-8.4587 68.604-21.859c-34.251-13.651-81.847-31.488-96.496-31.383z" /><path stroke-linecap="butt" stroke-linejoin="round" stroke-width="6" stroke-opacity="1" stroke="rgb(68,68,68)" fill="none" d="m-36.59-12.75c10.468 15.43 41.934 32.519 69.587 30.71c17.293-11.846 34.654-21.327 56.969-49.318c37.046 11.151 67.846 11.208 105.87-6.5758c0 0-117.27-49.908-135.78-46.5c-21.913 4.035-26.385 55.245-96.647 71.684z" /><path stroke-linecap="butt" stroke-linejoin="round" stroke-width="6" stroke-opacity="1" stroke="rgb(68,68,68)" fill="rgb(255,226,91)" d="m-116.43 16.99c6.5357-1.0043 12.083 3.0004 13.404 10.188c-13.079-0.3707-25.743 2.5427-38.389 5.5936c5.3311-9.0212 11.072-12.351 24.986-15.782z" /></g></svg></svg>