<svg version="1.1" id="Layer_1" xmlns="http://www.w3.org/2000/svg" xmlns:xlink="http://www.w3.org/1999/xlink" x="0px" y="0px"
	 width="100%" viewBox="0 0 1024 768" enable-background="new 0 0 1024 768" xml:space="preserve">
<path fill="#000000" opacity="1.000000" stroke="none" 
	d="
M825.097778,362.954590 
	C826.491211,365.207855 826.862427,367.673645 829.263794,369.449341 
	C836.723328,365.198944 843.379822,359.817902 849.170349,353.310730 
	C856.250183,345.354584 862.587402,336.645355 871.168457,330.170654 
	C881.513000,322.365326 892.684082,316.287415 905.992737,315.246704 
	C918.157898,314.295380 928.441650,323.054016 927.132019,333.585541 
	C926.558777,338.196350 925.388000,342.736359 923.342529,346.982300 
	C922.846436,348.011993 922.424622,349.077515 921.995056,350.065826 
	C931.512634,358.421265 933.754456,365.498413 929.616272,373.903748 
	C927.730652,377.733765 924.527405,380.490692 921.483826,383.302429 
	C919.357056,385.267242 918.865173,386.830566 920.154114,389.701813 
	C925.192749,400.925659 922.179443,410.338135 911.530823,416.365845 
	C903.959167,420.651764 898.095093,425.759430 894.589294,434.305725 
	C891.373413,442.144928 884.601501,447.860443 877.308350,452.459351 
	C875.547729,453.569550 873.631287,454.541748 874.733948,457.070892 
	C879.552185,468.122375 880.117004,479.606903 878.413086,491.351562 
	C878.349182,491.792175 878.641724,492.284454 878.831970,492.989136 
	C882.318481,493.353760 885.295349,491.716583 888.247314,490.446625 
	C906.781189,482.473175 925.985168,476.572144 945.446228,471.371613 
	C951.704651,469.699188 957.828796,467.541595 964.203186,466.243622 
	C968.221619,465.425385 972.123535,465.498505 976.039185,466.661987 
	C985.715576,469.537170 989.648254,476.936249 986.078552,486.399963 
	C984.868469,489.608002 984.745850,492.045349 986.414246,495.225494 
	C988.870178,499.906891 989.328186,505.166473 987.081970,510.204224 
	C985.518982,513.709717 985.294861,516.963501 986.404968,520.760437 
	C989.277954,530.586609 986.052490,536.770630 976.313538,540.414673 
	C963.410461,545.242554 949.818726,547.243530 936.224365,548.025513 
	C913.612366,549.326233 890.976562,548.269287 868.411987,546.274536 
	C864.121826,545.895264 859.784119,545.245911 855.660400,544.055786 
	C852.590820,543.169861 850.612244,543.994446 848.517578,545.969910 
	C831.348694,562.161621 810.688904,572.149963 788.839844,580.390869 
	C771.428345,586.957947 753.379272,590.417053 735.228149,593.669739 
	C724.747375,595.547913 714.106079,595.536621 703.443298,595.713745 
	C702.249573,596.696411 703.124939,597.870789 703.335327,598.908325 
	C703.972046,602.048767 703.414551,604.758606 700.172119,605.883057 
	C696.717896,607.080872 693.541016,606.510315 691.642761,602.878052 
	C690.471436,600.636902 689.219116,598.523315 686.288635,598.060486 
	C684.543213,600.222900 684.265381,602.954834 683.254822,605.367371 
	C681.825256,608.780273 680.233032,612.102722 676.981018,614.167358 
	C674.027100,616.042664 671.197266,615.533813 668.842590,613.061584 
	C666.590637,610.697021 666.298706,607.969543 668.447693,605.407776 
	C670.763184,602.647522 672.112244,599.524292 672.990662,595.533447 
	C668.169434,595.928467 664.807983,598.546448 661.764893,601.433105 
	C657.466187,605.510864 654.730103,606.172546 651.543213,603.290344 
	C648.650330,600.674011 649.080994,596.830811 652.591248,592.666199 
	C653.630005,591.433777 655.310608,590.710632 655.758301,588.772705 
	C650.054565,586.503601 644.368896,584.271667 638.705872,581.983704 
	C615.697998,572.688171 595.820618,559.065796 581.291687,538.696472 
	C571.859009,525.471924 565.824036,510.720520 565.724182,494.122589 
	C565.690552,488.538483 564.648254,484.567932 558.268982,482.674103 
	C547.882080,479.590454 540.104187,472.550720 533.736938,463.861847 
	C530.985413,460.106995 526.256653,459.865662 522.308228,458.399506 
	C514.091553,455.348511 506.599060,451.770935 504.262238,442.184509 
	C503.524109,439.156555 503.591400,436.256378 504.372162,433.318329 
	C505.072693,430.682312 504.368378,428.742889 501.778961,427.621460 
	C501.322601,427.423859 500.899384,427.146942 500.468445,426.893799 
	C485.993073,418.389038 483.777527,408.609924 493.509796,394.366364 
	C489.406128,390.564392 486.594330,385.811432 484.903778,380.291382 
	C481.952393,370.654816 485.913513,362.263519 495.621948,358.780975 
	C506.540466,354.864380 517.302002,357.140808 528.003235,360.004150 
	C539.329224,363.034760 549.040344,369.125488 558.148376,376.229736 
	C568.234619,384.096924 579.115906,390.317902 591.494324,393.840668 
	C594.603699,394.725586 596.077637,394.804626 596.957275,390.864868 
	C601.416748,370.890930 609.381287,352.710449 624.484375,338.162415 
	C642.554688,320.756287 664.002930,310.235626 688.573792,306.011932 
	C717.636719,301.016022 746.087524,303.241852 773.134155,315.466705 
	C795.363831,325.514343 813.656799,340.333130 825.097778,362.954590 
M599.280518,436.690521 
	C596.530151,442.803589 592.638855,448.221527 588.952454,453.772522 
	C574.197144,475.990631 574.372131,504.919708 588.840393,527.277222 
	C600.635925,545.504700 617.197571,558.040344 636.297119,567.271240 
	C676.108521,586.512146 717.485291,586.509094 759.551270,576.148682 
	C778.384705,571.510193 796.564819,565.117004 813.435608,555.535706 
	C832.630310,544.634521 849.717773,531.422607 859.454712,510.646820 
	C869.267578,489.708984 869.091858,469.398956 857.169312,449.211029 
	C849.725952,436.607574 841.146423,424.682037 834.561584,411.579315 
	C829.261597,401.033142 823.638916,390.594360 819.184875,379.689087 
	C809.574951,356.160187 793.099060,339.316467 770.574524,328.311340 
	C751.684448,319.081909 731.453613,315.589172 710.507385,316.328156 
	C683.098633,317.295105 658.204895,325.246429 637.307739,343.624359 
	C619.142822,359.599396 610.048096,379.990173 608.251343,403.961761 
	C607.413574,415.138397 604.558228,425.886597 599.280518,436.690521 
M560.258423,393.311890 
	C555.817932,390.073334 551.450256,386.728851 546.922974,383.616486 
	C534.355835,374.976898 520.954651,368.656128 505.193817,369.337189 
	C502.130585,369.469574 498.845703,370.026550 497.413483,372.953857 
	C495.885040,376.077789 497.642822,379.057800 499.497131,381.697083 
	C500.067688,382.509155 500.795776,383.214783 501.481415,383.941132 
	C511.250336,394.289856 511.281860,394.315399 501.953491,404.890259 
	C499.810974,407.319092 499.631439,409.458679 501.872742,411.887970 
	C504.891571,415.160034 508.613159,417.264038 512.709778,418.806335 
	C520.732239,421.826630 521.794556,424.733063 517.618286,432.290039 
	C514.786987,437.413300 515.988342,441.833313 521.325867,444.322083 
	C525.078308,446.071655 529.037537,448.141266 533.026733,448.441254 
	C539.064392,448.895203 541.986633,452.053741 544.781738,456.862244 
	C549.681763,465.291962 557.598877,469.815094 567.715637,472.555817 
	C569.708313,458.692963 577.289612,448.077728 584.389709,437.223755 
	C589.088745,430.040375 592.071167,422.145813 594.276672,413.899109 
	C595.348633,409.890717 594.722534,407.609558 590.027100,406.420593 
	C579.663879,403.796448 569.825012,399.686676 560.258423,393.311890 
M862.026917,432.588135 
	C863.044800,434.495331 863.961243,436.465607 865.100159,438.297577 
	C868.091736,443.109680 869.056213,443.294495 873.529724,439.558563 
	C880.183167,434.001984 885.235596,427.255890 887.552063,418.803040 
	C888.332031,415.956757 889.717529,413.920319 892.392090,412.947876 
	C897.171997,411.209930 901.130005,408.144440 905.171509,405.240631 
	C910.667786,401.291504 911.125000,397.669189 907.103271,392.191956 
	C901.810425,384.983459 902.182922,382.504944 909.361816,377.141296 
	C910.161926,376.543549 910.973145,375.958618 911.747375,375.328583 
	C921.041443,367.765137 920.932678,365.317474 911.039062,359.113831 
	C905.221985,355.466309 904.499146,351.943573 908.720520,346.389954 
	C910.973389,343.426147 912.778320,340.328888 913.658569,336.695984 
	C915.180359,330.415039 913.214233,327.660095 906.697693,327.461334 
	C904.754517,327.402069 902.663269,327.748444 900.854797,328.457336 
	C889.938904,332.736237 879.796875,338.132751 871.631836,346.955719 
	C861.396667,358.015594 852.889465,370.946564 839.159912,378.364105 
	C835.054504,380.582092 834.680481,382.867737 836.668152,387.121704 
	C843.936523,402.677521 851.977356,417.762146 862.026917,432.588135 
M948.861328,511.420715 
	C955.813477,509.721405 962.850464,508.513977 969.989502,508.006195 
	C973.499451,507.756561 976.066589,506.385284 975.358337,502.545044 
	C974.730957,499.143524 972.199707,498.531036 968.830322,499.193024 
	C949.286560,503.032928 929.716492,506.741974 910.133606,510.378876 
	C898.453979,512.548035 886.672424,514.197571 874.260071,517.554871 
	C885.684937,518.164978 896.109680,517.177490 906.488953,516.294861 
	C920.356689,515.115662 934.159668,513.175781 948.861328,511.420715 
z"/>
<path fill="#000000" opacity="1.000000" stroke="none" 
	d="
M196.902802,423.379395 
	C199.118347,420.311737 195.907974,420.154053 194.859100,419.548523 
	C183.252945,412.848267 172.722900,404.773468 162.964127,395.610687 
	C159.402206,392.266327 156.286362,388.488251 153.781998,384.464539 
	C150.161545,378.647583 144.966492,377.869720 138.959885,377.320465 
	C113.759529,375.016296 88.698257,371.717041 64.684998,363.229095 
	C58.748486,361.130676 53.215179,357.909912 47.442432,355.325928 
	C35.857666,350.140411 35.738422,340.787811 40.019699,331.139526 
	C41.044861,328.829224 41.481884,326.911987 40.696510,324.549957 
	C38.480652,317.885712 40.672039,312.048431 44.649647,306.827393 
	C46.017628,305.031769 46.535358,303.620605 45.937939,301.447296 
	C41.766548,286.272125 55.498600,278.909698 66.850975,282.456787 
	C78.065933,285.960907 88.174561,291.773651 98.622520,296.905029 
	C111.587097,303.272400 124.397964,309.920074 137.010925,317.878967 
	C140.437363,310.915955 143.616577,304.382812 146.871338,297.887482 
	C147.788147,296.057831 146.711655,295.196198 145.536133,294.142242 
	C137.370743,286.821289 130.263840,278.765991 127.464996,267.755157 
	C127.020241,266.005463 125.538246,265.193726 124.127808,264.240479 
	C120.270615,261.633575 116.186157,259.229187 112.794876,256.092468 
	C103.591331,247.579788 102.659386,241.245193 107.548080,231.218750 
	C108.941322,228.361298 108.732597,226.662003 106.515022,224.332138 
	C101.941986,219.527557 97.413475,214.667831 97.568626,207.136002 
	C97.692245,201.135132 99.514275,196.305298 104.709473,193.208649 
	C107.419548,191.593277 107.646751,190.017960 106.626106,187.105591 
	C104.878067,182.117661 103.088654,176.940216 103.971489,171.518738 
	C105.874481,159.832657 116.420624,153.833237 129.679306,157.278381 
	C147.292450,161.854996 161.002899,172.284195 171.896057,186.662079 
	C176.715225,193.022919 181.150406,199.701248 186.984772,205.239090 
	C188.781677,206.944672 190.588303,208.640045 192.073959,210.041519 
	C193.621521,210.082977 194.176056,209.400894 194.614487,208.720413 
	C201.829041,197.522430 210.906754,188.284943 221.851181,180.546768 
	C232.737091,172.849930 244.512405,167.462708 257.066376,163.331131 
	C273.736847,157.844803 290.823242,155.734009 308.257111,156.788864 
	C333.673035,158.326660 357.602661,165.138031 378.316132,180.250015 
	C395.891083,193.072220 408.849548,209.765564 415.143372,231.063568 
	C417.043304,237.492920 417.454224,237.561005 423.937531,235.746155 
	C437.734619,231.884033 448.846466,223.374756 460.240509,215.200424 
	C474.654114,204.859833 490.608093,198.755798 508.726990,199.690918 
	C519.418579,200.242737 527.461914,206.980789 528.854309,217.067184 
	C529.800598,223.922012 525.777649,229.205307 522.001282,234.202835 
	C519.959656,236.904770 519.378235,238.318466 521.765564,241.253021 
	C528.546875,249.588882 526.036743,260.719421 516.387573,266.988586 
	C514.574036,268.166870 512.665283,269.197723 510.835999,270.352875 
	C508.970703,271.530762 508.355408,273.045319 508.697876,275.415009 
	C510.419647,287.329620 506.035889,294.870392 494.914429,299.400299 
	C491.067657,300.967102 487.126892,302.304047 483.222534,303.728088 
	C481.666870,304.295502 480.093018,304.695679 479.062347,306.249084 
	C472.472015,316.181854 463.692474,323.219940 452.081848,326.489655 
	C451.144531,326.753632 450.295013,327.329498 449.139648,327.888763 
	C449.448914,332.678436 449.839630,337.449677 450.051392,342.228882 
	C451.002686,363.700104 442.915955,382.091949 429.499512,398.063721 
	C412.244324,418.605438 389.998230,431.873932 364.417084,439.678009 
	C362.853302,440.155090 361.133209,440.407166 359.853180,441.810699 
	C359.943542,444.036560 361.988434,444.974060 363.171722,446.473877 
	C365.512177,449.440338 368.080963,452.383911 364.544464,456.075104 
	C361.568207,459.181580 357.863037,458.792084 354.097504,455.021088 
	C350.993317,451.912445 347.641907,449.367584 342.955292,448.650970 
	C341.768341,451.365631 342.378021,453.706360 343.077820,456.099365 
	C343.729340,458.327209 344.415100,460.586121 344.673981,462.877869 
	C345.041473,466.131470 343.399445,468.400757 340.229797,469.155579 
	C336.920654,469.943695 334.123596,468.890869 332.992279,465.490265 
	C331.484528,460.958221 330.318176,456.312592 328.925964,451.438446 
	C325.234833,452.527618 324.942657,455.743225 323.910980,458.356323 
	C323.243286,460.047455 323.023132,461.958649 321.388672,463.113983 
	C319.142883,464.701447 316.674896,464.806213 314.269440,463.717133 
	C312.035858,462.705811 311.195221,460.654419 311.520874,458.317596 
	C311.950653,455.233551 312.623016,452.183319 313.309082,448.482239 
	C287.243317,449.910553 262.364746,444.307922 236.962265,437.452087 
	C237.249863,440.876587 237.746521,443.751556 237.663483,446.609619 
	C237.570297,449.816711 236.824249,452.936798 233.505096,454.586639 
	C231.326660,455.669495 229.280060,455.243011 227.359268,453.985291 
	C224.763641,452.285736 224.665878,449.635651 224.661697,446.886536 
	C224.656265,443.319183 225.066208,439.583588 221.830688,436.442047 
	C218.999496,440.151001 216.835770,443.835693 216.415237,448.209229 
	C215.993164,452.598846 213.635254,454.489319 209.479126,454.204529 
	C205.660385,453.942841 203.345093,450.620148 203.946991,446.198059 
	C204.440140,442.574829 205.237106,438.990631 207.076904,435.732086 
	C207.691071,434.644196 208.886200,433.674683 208.011505,431.794373 
	C204.411774,432.836884 201.916214,435.511383 199.132843,437.730682 
	C196.480759,439.845306 193.753616,441.328369 190.769089,438.263763 
	C188.044861,435.466522 188.059113,431.379547 190.983200,428.452271 
	C192.742447,426.691132 194.766953,425.194977 196.902802,423.379395 
M207.232285,212.718475 
	C204.368927,217.010544 201.897125,221.510864 199.493774,226.085495 
	C191.282867,241.714417 185.395874,258.475586 176.341873,273.673828 
	C171.146088,282.395538 165.398697,290.790466 160.263855,299.546112 
	C156.061844,306.711151 150.890182,313.819061 149.690430,322.032166 
	C147.005020,340.415436 150.552750,357.907135 161.135452,373.440674 
	C172.657471,390.352966 188.677017,402.177277 206.637482,411.362549 
	C229.612717,423.112518 254.066650,430.464447 279.598846,434.068878 
	C311.473511,438.568634 342.606140,436.333618 372.554138,423.457550 
	C393.944305,414.260895 412.481476,401.416260 425.749268,381.971405 
	C432.602722,371.927246 436.772095,360.589600 437.605072,348.439972 
	C438.776581,331.352356 433.600067,315.884888 423.471924,302.193726 
	C412.701233,287.634003 408.028564,271.007233 406.726349,253.353256 
	C404.746460,226.511169 391.340607,206.270828 370.608398,190.508560 
	C360.386932,182.737350 348.603699,177.803375 336.055267,174.272461 
	C313.195190,167.840042 290.451477,167.591263 267.608521,173.388046 
	C243.328201,179.549576 222.738403,191.637589 207.232285,212.718475 
M463.095978,305.599274 
	C468.764679,297.061066 475.621643,290.228363 486.553925,289.223969 
	C486.872711,289.194672 487.174713,288.991333 487.486328,288.873871 
	C497.389648,285.140686 498.529633,282.237152 493.798218,272.795746 
	C491.653381,268.515778 492.854797,264.675873 497.293304,263.062775 
	C499.846954,262.134705 502.087311,260.752502 504.373169,259.438965 
	C515.009583,253.326859 515.138489,252.004425 506.322632,243.426147 
	C506.203278,243.310059 506.075562,243.202362 505.959106,243.083542 
	C502.157013,239.204910 502.178345,235.613739 506.077362,231.856949 
	C508.113525,229.895081 510.502869,228.222473 512.207825,226.014023 
	C514.272278,223.339966 517.183899,220.359909 515.660950,216.728790 
	C513.980835,212.722687 509.685577,212.446762 505.861420,211.985336 
	C505.208038,211.906509 504.531860,212.006653 503.866791,212.036270 
	C490.086823,212.649612 477.972900,217.941833 467.101929,225.964508 
	C453.485443,236.013397 439.596527,245.373367 422.707275,248.962463 
	C419.749359,249.591080 418.783142,251.024536 419.239990,253.806213 
	C420.718079,262.806213 421.897278,271.830170 425.525146,280.374054 
	C430.426147,291.916229 439.782288,300.879700 443.929871,312.838226 
	C444.638214,314.880463 446.760712,315.090790 448.645752,314.433899 
	C453.853149,312.619232 459.006500,310.663544 463.095978,305.599274 
M117.281357,179.191345 
	C117.856277,180.560303 118.273537,182.024033 119.030640,183.283478 
	C126.179146,195.175064 126.195839,195.165024 114.283333,202.208450 
	C109.268661,205.173447 108.713455,207.641052 112.661919,212.144012 
	C115.499565,215.380142 118.860748,218.155792 121.972221,221.153625 
	C124.767975,223.847305 126.449989,227.236130 123.577385,230.401917 
	C112.974533,242.086868 117.714989,243.716141 127.371750,251.201736 
	C128.419647,252.014023 129.503693,252.966599 130.727127,253.333740 
	C136.642868,255.108963 138.764099,259.625885 139.963440,265.128723 
	C141.486603,272.117371 146.328201,277.036560 151.155838,281.873016 
	C153.424454,284.145813 154.955063,283.734619 156.967346,280.910980 
	C169.045761,263.962433 175.883850,244.309845 185.619370,226.163269 
	C186.876831,223.819412 186.656204,221.994263 184.418137,220.087540 
	C176.794693,213.592804 170.162888,206.181183 164.411392,197.945007 
	C156.456818,186.553970 146.406143,177.548828 133.578262,171.870651 
	C130.832825,170.655396 128.070694,169.545105 125.023880,169.325439 
	C117.764137,168.802109 115.679756,171.198685 117.281357,179.191345 
M58.252239,314.517456 
	C54.851749,314.313965 53.433052,316.257599 53.150093,319.323090 
	C52.860550,322.459991 55.179371,323.085510 57.493923,323.807526 
	C71.617554,328.213379 85.648262,332.939972 99.867393,337.009521 
	C111.207336,340.255005 122.771492,342.717102 134.236130,345.526978 
	C134.307007,345.268219 134.377899,345.009491 134.448792,344.750763 
	C109.284866,334.744141 84.120941,324.737518 58.252239,314.517456 
z"/>
<path fill="#000000" opacity="1.000000" stroke="none" 
	d="
M818.386963,530.451233 
	C809.557556,537.108521 800.162720,539.801270 789.503235,537.379028 
	C781.243103,535.502014 777.289246,529.167419 774.008423,522.352356 
	C772.729065,519.694885 774.175842,517.144409 776.856140,515.666321 
	C779.949585,513.960449 782.671021,514.672180 784.895203,517.234009 
	C787.017517,519.678528 788.195679,523.026001 791.979919,524.458618 
	C792.915833,519.585815 793.695129,514.913757 794.730957,510.299286 
	C795.885071,505.158020 798.719910,503.003510 802.528381,504.056793 
	C806.458008,505.143555 807.821899,508.267792 806.776062,513.229492 
	C806.175110,516.080688 804.703125,518.882874 805.873535,522.187561 
	C810.087097,521.865234 812.498962,519.291504 813.983704,515.810181 
	C815.818298,511.508728 819.048706,510.532532 822.896606,512.206360 
	C826.960632,513.974182 826.823364,517.500916 825.492188,521.139771 
	C824.130493,524.861755 821.528320,527.633972 818.386963,530.451233 
z"/>
<path fill="#000000" opacity="1.000000" stroke="none" 
	d="
M634.414551,425.084991 
	C626.972839,425.680481 620.889160,423.620544 617.561096,417.191071 
	C614.663879,411.593842 614.725708,405.700134 618.932312,400.332550 
	C622.667480,395.566406 627.720703,393.497284 633.387207,394.419647 
	C639.666260,395.441681 644.327637,399.246216 645.861938,405.776550 
	C647.307434,411.929169 645.680603,417.317444 640.783386,421.468964 
	C639.021545,422.962494 637.117249,424.345856 634.414551,425.084991 
z"/>
<path fill="#000000" opacity="1.000000" stroke="none" 
	d="
M702.263794,377.204529 
	C706.339722,370.645569 709.161560,370.115387 714.694580,374.769379 
	C717.324463,376.981415 720.231323,378.353638 723.655396,378.710876 
	C726.823181,379.041351 728.807007,380.828979 729.566589,383.916931 
	C730.348389,387.095032 728.378235,388.920776 726.122986,390.472809 
	C716.745728,396.926270 706.198730,397.102753 695.469849,395.942688 
	C693.157837,395.692657 691.531921,394.104156 691.073730,391.739197 
	C690.505493,388.806610 691.690369,386.411316 694.149658,384.931519 
	C697.350830,383.005280 700.062378,380.663452 702.263794,377.204529 
z"/>
<path fill="#000000" opacity="1.000000" stroke="none" 
	d="
M756.162109,367.577271 
	C760.054871,370.082855 761.050842,373.399689 759.863342,377.277039 
	C758.808289,380.721832 756.301208,382.818939 752.679504,383.278107 
	C748.816833,383.767792 745.819885,382.259186 744.059204,378.770599 
	C742.412903,375.508606 743.032166,372.244904 745.052856,369.416351 
	C747.901367,365.429138 751.862305,366.124084 756.162109,367.577271 
z"/>
<path fill="#000000" opacity="1.000000" stroke="none" 
	d="
M666.981812,393.316620 
	C660.280945,386.955566 660.263367,381.540802 666.597351,377.821594 
	C670.530701,375.511993 675.272644,376.815369 677.711975,380.876617 
	C680.104614,384.860016 679.142334,389.970459 675.265503,392.176575 
	C672.882629,393.532562 670.257080,394.837616 666.981812,393.316620 
z"/>
<path fill="#000000" opacity="1.000000" stroke="none" 
	d="
M518.165161,393.383087 
	C521.160095,388.881958 527.009399,387.309418 531.208679,389.523285 
	C535.270264,391.664551 535.951294,397.206024 532.350037,399.814453 
	C529.280396,402.037781 525.727295,401.825073 522.382141,400.722717 
	C519.228027,399.683289 517.742554,397.178284 518.165161,393.383087 
z"/>
<path fill="#000000" opacity="1.000000" stroke="none" 
	d="
M529.562622,427.664429 
	C526.715088,425.171051 525.955933,422.534637 527.627625,419.458313 
	C529.116333,416.718750 531.625488,416.211639 534.431091,416.595184 
	C537.627869,417.032227 540.701477,417.816864 541.976501,421.284119 
	C543.508118,425.448975 540.732544,429.161560 536.097473,429.339691 
	C533.886414,429.424652 531.852600,428.861816 529.562622,427.664429 
z"/>
<path fill="#000000" opacity="1.000000" stroke="none" 
	d="
M882.740479,385.804321 
	C885.275757,384.138763 887.395081,382.429169 889.797729,381.350861 
	C892.896545,379.960144 896.103516,379.992218 898.176331,383.282654 
	C900.347473,386.729126 899.177002,389.678070 896.191406,391.997101 
	C894.488464,393.319885 892.638123,394.469391 890.780212,395.572327 
	C887.647034,397.432251 884.408020,398.035980 881.752197,394.916321 
	C879.167419,391.880219 879.662964,388.800140 882.740479,385.804321 
z"/>
<path fill="#000000" opacity="1.000000" stroke="none" 
	d="
M885.212708,366.647034 
	C882.618958,359.835541 888.651184,352.306122 895.334045,353.497650 
	C898.540405,354.069366 900.225830,356.163361 900.265991,359.444519 
	C900.326233,364.362701 895.967834,365.887512 893.022583,368.269012 
	C890.476807,370.327576 887.667053,369.258301 885.212708,366.647034 
z"/>
<path fill="#000000" opacity="1.000000" stroke="none" 
	d="
M289.122314,231.408478 
	C291.001434,229.492523 293.093262,229.058868 295.210144,228.521271 
	C303.045044,226.531525 310.281158,223.273453 316.232666,217.662064 
	C318.386414,215.631378 320.587158,214.671005 323.417450,215.936966 
	C326.376007,217.260300 327.414429,219.615402 327.345856,222.773178 
	C327.272552,226.146606 326.737915,229.462692 325.432983,232.488281 
	C323.572418,236.802139 325.320160,239.414291 328.787018,241.560974 
	C329.916626,242.260437 331.090332,242.889282 332.213165,243.598984 
	C336.975220,246.608810 337.140411,251.612656 332.532227,254.924973 
	C326.347870,259.370239 319.199219,260.468994 312.063812,259.073639 
	C302.144104,257.133820 293.566803,252.663910 289.139618,242.680191 
	C287.520721,239.029449 286.798553,235.430588 289.122314,231.408478 
z"/>
<path fill="#000000" opacity="1.000000" stroke="none" 
	d="
M389.455688,254.972626 
	C397.451141,256.779755 400.773804,262.005127 401.587219,269.306671 
	C402.296509,275.673401 399.460083,280.179047 394.201019,283.399109 
	C388.368927,286.970032 382.311768,286.524872 376.674164,282.153290 
	C371.400970,278.064301 369.703339,271.871613 371.880890,264.668091 
	C373.445343,259.492767 379.632996,254.948730 385.562866,254.687698 
	C386.717163,254.636871 387.881866,254.822266 389.455688,254.972626 
z"/>
<path fill="#000000" opacity="1.000000" stroke="none" 
	d="
M207.980988,255.026413 
	C203.294785,250.094788 202.681198,244.753525 205.614059,239.190887 
	C208.215195,234.257477 212.446289,231.629501 218.203018,231.895645 
	C223.993439,232.163330 228.762268,235.911652 231.606674,242.670135 
	C228.932129,243.297104 227.837692,245.201950 227.463593,247.852356 
	C226.976257,251.305008 224.249039,253.007126 221.288147,253.622177 
	C217.025238,254.507690 212.624985,254.732040 207.980988,255.026413 
z"/>
<path fill="#000000" opacity="1.000000" stroke="none" 
	d="
M347.657043,236.849243 
	C352.202911,232.607452 355.798492,232.067474 359.355011,234.811981 
	C362.790161,237.462814 363.780579,242.145309 361.689575,245.849060 
	C359.316925,250.051743 355.596100,251.418854 351.223663,249.694412 
	C347.527527,248.236694 345.383942,244.048813 346.305023,239.903168 
	C346.516052,238.953247 347.048553,238.074738 347.657043,236.849243 
z"/>
<path fill="#000000" opacity="1.000000" stroke="none" 
	d="
M266.812927,221.661652 
	C273.693481,221.121399 277.032898,223.494415 277.313690,228.807190 
	C277.612701,234.464157 274.721924,237.985870 269.567688,238.243912 
	C264.890320,238.478088 260.560760,234.290115 260.724762,229.448578 
	C260.852875,225.667999 262.459167,222.763901 266.812927,221.661652 
z"/>
<path fill="#000000" opacity="1.000000" stroke="none" 
	d="
M228.066696,253.148193 
	C229.192200,251.755219 230.060303,250.589767 231.011368,249.312927 
	C232.159332,255.339203 226.766190,260.397491 219.909637,259.301239 
	C222.758759,257.164124 225.284027,255.269913 228.066696,253.148193 
z"/>
<path fill="#000000" opacity="1.000000" stroke="none" 
	d="
M492.135040,234.667175 
	C495.174438,241.072464 492.882874,244.917236 486.224884,245.341064 
	C478.981445,245.802155 475.332489,243.842163 475.037231,239.331726 
	C474.753510,234.997711 478.592133,232.667313 485.829773,232.718307 
	C488.003387,232.733627 490.181549,232.604660 492.135040,234.667175 
z"/>
<path fill="#000000" opacity="1.000000" stroke="none" 
	d="
M482.577271,271.682373 
	C479.936615,273.127350 477.688812,274.833710 474.843140,273.476898 
	C471.800964,272.026367 470.307648,269.619720 470.979828,266.230957 
	C471.583496,263.187439 478.075439,258.700684 481.470612,259.011688 
	C484.626465,259.300720 486.682556,261.103271 487.190369,264.288300 
	C487.751282,267.806580 485.505615,269.780823 482.577271,271.682373 
z"/>
<path fill="#000000" opacity="1.000000" stroke="none" 
	d="
M145.483353,198.103210 
	C148.958878,200.524673 150.928711,203.278122 149.102829,207.203995 
	C147.719543,210.178268 144.992279,211.317993 142.007324,210.266113 
	C138.199600,208.924301 133.408340,208.070343 133.094086,202.825867 
	C132.858170,198.889145 135.404953,196.794998 139.370056,196.635162 
	C141.397598,196.553421 143.355194,196.850220 145.483353,198.103210 
z"/>
<path fill="#000000" opacity="1.000000" stroke="none" 
	d="
M134.113739,230.850403 
	C132.595566,226.811874 133.497971,223.968277 137.210098,222.350708 
	C140.887466,220.748291 146.035477,222.162354 147.921799,225.190598 
	C149.429047,227.610306 149.168594,229.986282 147.421234,232.094910 
	C144.747208,235.321762 141.151367,234.462143 137.743652,233.885406 
	C136.237381,233.630478 135.163803,232.462646 134.113739,230.850403 
z"/>
</svg>