<svg version="1.1" id="Layer_1" xmlns="http://www.w3.org/2000/svg" xmlns:xlink="http://www.w3.org/1999/xlink" x="0px" y="0px"
	 width="100%" viewBox="0 0 1024 768" enable-background="new 0 0 1024 768" xml:space="preserve">
<path fill="#000000" opacity="1.000000" stroke="none" 
	d="
M337.140320,454.004425 
	C326.385834,472.123688 312.064331,485.447052 291.970062,491.794830 
	C289.609100,492.540619 287.124664,492.963715 284.665619,493.310669 
	C282.360382,493.635864 280.768158,492.475128 280.239075,490.210815 
	C279.652374,487.700165 281.199738,486.450653 283.338104,485.909210 
	C319.361359,476.788757 335.636902,450.121338 342.150421,416.683594 
	C350.297791,374.858154 343.640869,335.080811 319.309082,299.310608 
	C302.022491,273.897583 278.307709,256.838745 249.001663,247.567886 
	C243.391632,245.793152 237.660019,244.897964 231.769287,245.363953 
	C228.815659,245.597595 226.081436,245.162354 225.978302,241.604980 
	C225.878662,238.168243 228.942505,237.949265 231.380020,237.758636 
	C244.645340,236.721222 256.718262,241.152481 268.357086,246.639862 
	C312.674072,267.533936 338.665100,303.081482 349.139313,350.216278 
	C356.150085,381.765503 354.524323,413.033875 342.285736,443.325378 
	C340.854218,446.868469 338.981964,450.233490 337.140320,454.004425 
z"/>
<path fill="#000000" opacity="1.000000" stroke="none" 
	d="
M407.815277,463.159637 
	C416.785400,474.546173 429.223572,480.056580 441.860870,484.748230 
	C488.783203,502.168152 534.870422,499.664459 579.921936,477.885803 
	C580.371765,477.668304 580.817200,477.441162 581.259277,477.208191 
	C583.864685,475.835205 586.761597,474.383148 588.661499,477.784515 
	C590.676331,481.391632 587.549805,482.801361 585.015625,484.089844 
	C576.100708,488.622528 566.983215,492.675507 557.350098,495.474762 
	C556.103699,495.837006 554.905823,496.365906 552.802795,497.144287 
	C557.364258,498.891144 561.402100,499.852142 564.557800,502.599823 
	C566.590027,504.369293 568.610291,506.105927 569.376770,508.809143 
	C570.626221,513.215149 568.118896,515.933044 563.601746,515.490417 
	C557.460205,514.888611 551.324036,513.898926 545.111450,515.219299 
	C542.581909,515.756897 540.041992,515.228516 538.572571,512.681519 
	C537.217285,510.332458 537.376526,507.928528 538.615967,505.542114 
	C540.316467,502.267975 543.399841,500.660858 546.505676,498.943481 
	C514.369263,506.415527 482.526886,505.591644 449.671692,495.973511 
	C452.649994,499.575226 455.007202,502.149750 457.024780,504.967499 
	C458.266602,506.701843 459.255310,508.725098 459.888702,510.764282 
	C461.093567,514.643555 458.669373,517.157104 454.778137,515.916260 
	C452.421265,515.164673 450.622559,514.957336 448.308594,516.268738 
	C445.849030,517.662659 444.836334,516.787170 441.960815,512.261536 
	C439.836761,513.756104 437.588928,515.873718 434.942505,513.615234 
	C432.384399,511.432129 432.228577,508.324768 432.992493,505.302856 
	C434.069672,501.041779 437.171326,498.645447 441.168457,497.246857 
	C442.879028,496.648315 444.585205,496.037323 446.720612,495.280518 
	C439.976471,492.459930 433.484131,490.018768 427.231171,487.069855 
	C415.784302,481.671478 405.359894,474.839508 398.829468,463.539368 
	C397.263275,460.829254 393.564423,457.158173 398.018433,454.508179 
	C402.542328,451.816620 403.660156,456.720245 405.423706,459.527161 
	C406.131714,460.654144 406.864899,461.765289 407.815277,463.159637 
z"/>
<path fill="#000000" opacity="1.000000" stroke="none" 
	d="
M892.925415,461.666138 
	C884.997864,475.488983 872.324280,482.645813 858.576294,488.249420 
	C830.379578,499.742218 801.000244,502.412445 770.941101,499.438477 
	C765.338928,498.884216 759.771667,497.976807 753.687683,497.165649 
	C755.829468,501.127289 759.703918,503.498169 761.222290,507.491058 
	C762.079590,509.745483 764.080750,511.907990 762.249084,514.444458 
	C760.425232,516.970093 757.967651,516.496826 755.514160,515.403259 
	C754.547546,514.972351 753.597717,514.929688 752.680237,515.574524 
	C748.675354,518.389221 746.623474,516.091980 744.951477,512.295288 
	C742.150574,513.634888 739.218262,516.608887 736.466553,512.517273 
	C734.342896,509.359680 735.204407,503.469543 738.314514,500.523010 
	C739.495117,499.404449 741.009399,498.596863 742.464294,497.821350 
	C743.738953,497.141937 745.143311,496.705963 747.230347,495.863922 
	C742.509338,494.255310 738.469666,492.937866 734.471924,491.503723 
	C727.310974,488.934814 720.933289,485.113434 715.871765,479.344482 
	C714.172546,477.407776 712.580322,475.157257 715.118774,472.815796 
	C717.619873,470.508759 719.666687,472.091125 721.521057,474.047516 
	C730.637085,483.665405 742.777954,486.823639 755.072266,489.243561 
	C789.163391,495.953918 822.604309,493.579681 855.174927,481.145386 
	C861.562683,478.706757 867.658386,475.666016 873.300598,471.727142 
	C879.295288,467.542175 884.171936,462.420044 887.296204,455.773041 
	C888.576416,453.049255 890.222778,451.023651 893.412537,452.629730 
	C896.571777,454.220520 895.219543,456.785126 894.229736,459.103241 
	C893.903748,459.866608 893.482056,460.589111 892.925415,461.666138 
z"/>
<path fill="#000000" opacity="1.000000" stroke="none" 
	d="
M947.061890,384.735168 
	C951.435059,386.496216 955.481628,388.031067 959.403992,389.835907 
	C962.310059,391.173157 964.835815,393.165619 966.397095,396.036163 
	C968.134705,399.230865 967.604492,401.839661 963.894226,403.182129 
	C962.020081,403.860291 960.133484,404.636261 958.185425,404.947113 
	C955.276550,405.411194 953.812927,406.720459 952.596924,409.624084 
	C950.011475,415.797668 940.407654,418.814972 934.368896,415.927338 
	C929.575562,413.635223 924.731812,411.505005 918.880554,410.582153 
	C916.876709,417.114258 915.837463,423.841217 913.101135,430.048035 
	C910.194458,436.641144 906.693115,442.836395 902.140991,448.416016 
	C900.394409,450.556793 898.324463,452.682373 895.454468,450.356903 
	C892.621521,448.061493 894.149475,445.740753 895.927979,443.459930 
	C912.061401,422.769470 915.661987,400.065704 906.784729,375.368164 
	C906.287109,373.983582 905.912170,372.500427 905.815186,371.040894 
	C905.706299,369.403900 906.601379,368.147858 908.245667,367.689972 
	C910.035706,367.191528 911.534058,367.657257 912.497559,369.365265 
	C912.660889,369.654846 912.924194,369.934906 912.961975,370.241516 
	C914.037415,378.952637 919.616272,380.443878 927.328430,380.256866 
	C933.947144,380.096405 940.385315,382.444275 947.061890,384.735168 
M921.869507,392.412292 
	C920.882629,392.440735 919.739502,392.283875 919.169434,393.274139 
	C917.481262,396.206818 919.937683,402.142670 923.144836,403.216705 
	C926.280273,404.266693 929.737122,404.887909 932.412170,406.662964 
	C936.974670,409.690369 940.710144,408.290527 944.160095,405.358978 
	C946.034729,403.765961 947.178833,401.313263 948.814453,399.021301 
	C946.826721,398.166351 945.204407,397.347076 943.502380,396.757843 
	C936.745117,394.418732 929.730225,393.279144 921.869507,392.412292 
z"/>
<path fill="#000000" opacity="1.000000" stroke="none" 
	d="
M892.329224,328.657471 
	C885.435974,317.795563 876.888733,309.023071 866.631775,301.897522 
	C865.947998,301.422485 865.226685,300.985870 864.608154,300.435394 
	C862.809631,298.834900 860.943115,297.024994 862.639771,294.482391 
	C864.495728,291.701416 866.920349,292.655792 869.176270,294.169006 
	C886.393127,305.717438 899.011963,321.069550 907.060913,340.157288 
	C909.128418,345.060120 911.113403,350.019806 912.111328,355.279938 
	C912.707031,358.419678 911.957153,361.208588 909.497131,363.450134 
	C907.197266,365.545837 904.700378,364.827240 902.516968,363.648956 
	C884.974854,354.182434 869.069641,342.866577 859.867371,324.359619 
	C856.805908,318.202759 854.682861,311.723175 854.643616,304.741730 
	C854.630005,302.319275 854.023560,299.399902 857.575378,298.802704 
	C860.961548,298.233368 862.808594,300.020386 863.808716,303.159088 
	C870.023987,322.664917 883.218201,336.610138 899.661560,347.938843 
	C900.058960,348.212616 900.536011,348.370667 901.688171,348.925964 
	C899.899841,341.254639 896.289551,335.074402 892.329224,328.657471 
z"/>
<path fill="#000000" opacity="1.000000" stroke="none" 
	d="
M100.848892,435.174927 
	C101.451508,431.287872 101.989899,427.845520 102.653954,424.427612 
	C103.153641,421.855682 103.994270,419.228363 107.380447,419.979492 
	C110.952538,420.771851 110.756401,423.686035 110.103004,426.399719 
	C108.917992,431.321320 108.816498,436.293427 109.178894,441.283813 
	C109.712158,448.627380 113.033646,454.263794 119.717644,457.671967 
	C121.817894,458.742920 123.755852,459.837250 124.831253,462.163300 
	C132.940704,479.703644 147.975861,486.947784 165.993011,489.792755 
	C175.937485,491.363007 185.924683,490.634094 195.900482,490.568726 
	C198.480911,490.551849 201.225616,490.207794 201.441666,493.840424 
	C201.655869,497.442352 199.255829,498.228729 196.224915,498.298340 
	C193.634659,498.357849 191.049576,498.642059 187.931351,498.864777 
	C190.229965,500.602539 192.250305,501.795349 193.843948,503.409454 
	C196.553513,506.153687 197.453857,509.564148 195.235733,512.937683 
	C193.152847,516.105591 189.811600,515.931763 186.737915,514.652771 
	C185.020584,513.938171 183.804535,514.487366 182.197525,514.714844 
	C177.421341,515.390930 172.502319,515.623169 167.690643,515.288391 
	C164.372009,515.057556 163.412628,510.253815 165.713928,506.667755 
	C167.842911,503.350311 171.235977,501.462128 174.917557,499.007202 
	C169.351883,498.113800 164.233688,497.492889 159.203415,496.448486 
	C141.584885,492.790405 127.279045,484.351532 118.770256,467.800720 
	C118.136108,466.567200 117.289818,465.685425 116.069382,464.995819 
	C104.620834,458.526794 100.781105,448.082642 100.848892,435.174927 
z"/>
<path fill="#000000" opacity="1.000000" stroke="none" 
	d="
M119.210403,361.131958 
	C120.230492,359.995239 120.975014,359.096252 121.802818,358.281952 
	C123.541779,356.571350 125.626648,355.893433 127.572662,357.618195 
	C129.791260,359.584564 129.039444,361.658600 127.243500,363.691528 
	C119.165482,372.835327 112.000580,382.609863 106.944183,393.794922 
	C106.408958,394.978912 106.004677,396.222107 105.263000,398.161102 
	C108.770401,397.578094 110.701775,395.458923 112.918091,393.943970 
	C124.859863,385.781128 133.009216,375.150116 134.852341,360.363342 
	C135.150925,357.968048 136.009583,355.382263 139.093750,355.937897 
	C142.661331,356.580627 145.220551,358.750000 144.978073,362.796356 
	C144.347885,373.312103 141.549454,383.162048 134.971573,391.569519 
	C126.971909,401.794220 116.491272,408.190002 103.735718,410.699921 
	C96.136459,412.195221 92.815697,408.429169 95.467110,401.094635 
	C100.780197,386.397369 108.424034,373.029602 119.210403,361.131958 
z"/>
<path fill="#000000" opacity="1.000000" stroke="none" 
	d="
M616.463562,349.530823 
	C613.156128,346.463928 610.088928,343.652924 607.023621,340.839783 
	C605.270386,339.230804 604.135681,337.461334 606.044312,335.262329 
	C607.767029,333.277496 609.882019,333.197876 611.802429,334.804688 
	C623.810425,344.852356 634.546387,355.815033 638.583252,371.701416 
	C639.593750,375.678284 639.291565,379.631531 639.272583,383.605682 
	C639.257751,386.701813 637.306213,387.983276 634.432434,388.156616 
	C617.307312,389.189789 594.886536,374.955200 588.879700,359.178528 
	C587.391541,355.269989 586.514282,351.232727 586.696472,346.986908 
	C586.821533,344.073151 588.164917,342.271790 590.973083,341.655334 
	C593.849243,341.023956 595.875549,342.334747 597.024353,344.872589 
	C597.981445,346.986755 598.571411,349.264008 599.459595,351.412964 
	C605.255676,365.436798 615.668701,373.576447 631.290100,376.394470 
	C629.730225,365.138489 623.698120,357.203735 616.463562,349.530823 
z"/>
<path fill="#000000" opacity="1.000000" stroke="none" 
	d="
M408.288391,324.414124 
	C412.130737,312.157288 414.483673,299.845001 420.489075,288.704102 
	C431.966736,267.411194 448.941223,252.489410 471.489319,243.860275 
	C473.033783,243.269196 474.682434,242.938034 476.297211,242.545975 
	C478.485809,242.014633 480.424194,242.388992 481.108612,244.799210 
	C481.805206,247.252151 480.703613,249.006180 478.334717,249.924103 
	C477.559296,250.224548 476.748688,250.432816 475.965851,250.715607 
	C447.036133,261.166199 428.618835,281.355347 420.274445,310.863708 
	C417.874573,319.350494 415.870392,327.962189 412.331757,336.087952 
	C411.257568,338.554657 410.247833,341.483246 406.647949,339.952576 
	C403.325409,338.539856 403.941864,335.939240 405.080200,333.221313 
	C406.234802,330.464600 407.131287,327.599762 408.288391,324.414124 
z"/>
<path fill="#000000" opacity="1.000000" stroke="none" 
	d="
M147.049194,271.050232 
	C132.458878,285.691864 124.447113,302.954529 123.638222,323.314789 
	C123.421471,328.770477 124.237465,334.255127 125.856995,339.524506 
	C127.198776,343.890106 129.484604,347.340820 134.609512,347.921417 
	C137.064148,348.199524 138.617691,349.617767 138.182587,352.338043 
	C137.736404,355.127594 135.672318,355.463043 133.317841,355.424164 
	C127.936905,355.335388 124.252167,352.497498 121.584778,348.152893 
	C116.504707,339.878601 115.514374,330.529694 115.952858,321.250061 
	C116.914680,300.894958 124.986664,283.359802 138.691483,268.340179 
	C142.750076,263.892212 147.353363,260.086456 152.083862,256.415863 
	C153.929794,254.983505 156.019653,254.147720 157.733521,256.502869 
	C159.365707,258.745697 158.803772,260.935120 156.781433,262.701599 
	C153.651459,265.435516 150.464752,268.104492 147.049194,271.050232 
z"/>
<path fill="#000000" opacity="1.000000" stroke="none" 
	d="
M704.574219,270.590027 
	C691.354919,288.490692 686.315552,308.416443 687.171753,330.059875 
	C687.270386,332.554718 687.258301,335.053772 687.316589,337.550415 
	C687.368347,339.768616 686.790955,341.674255 684.245850,341.865936 
	C681.597595,342.065399 680.184326,340.206085 679.889099,337.936798 
	C679.375427,333.989502 678.958496,329.978271 679.068298,326.009521 
	C679.760559,300.990631 686.289734,278.092865 703.972900,259.419769 
	C708.337341,254.810989 713.244019,250.815994 718.671204,247.503601 
	C720.887634,246.150772 723.309692,244.981659 725.182495,247.917435 
	C727.011169,250.784058 725.237915,252.562241 722.912842,254.005112 
	C715.898743,258.357910 710.158081,264.125305 704.574219,270.590027 
z"/>
<path fill="#000000" opacity="1.000000" stroke="none" 
	d="
M558.234619,260.762390 
	C555.437134,259.588745 552.987732,258.547424 550.506348,257.589142 
	C547.996460,256.619843 546.468567,254.968140 547.489136,252.241989 
	C548.537170,249.442184 550.777405,249.475800 553.289429,250.362717 
	C574.290710,257.777771 589.126709,271.553101 596.800842,292.633362 
	C600.720276,303.399872 603.177063,314.657898 607.656006,325.246490 
	C608.660645,327.621460 608.627991,330.000000 605.756042,331.034851 
	C602.882263,332.070282 601.574951,330.134369 600.514404,327.809448 
	C597.046448,320.207062 594.902283,312.160950 592.672485,304.163635 
	C587.318542,284.960602 576.910461,269.841797 558.234619,260.762390 
z"/>
<path fill="#000000" opacity="1.000000" stroke="none" 
	d="
M846.937866,278.039459 
	C836.239319,261.477692 821.488586,251.167725 802.802673,246.375153 
	C801.677612,246.086624 800.552979,245.791260 799.416748,245.553146 
	C796.961853,245.038651 795.325256,243.776245 796.083679,241.069336 
	C796.764648,238.638565 798.672180,237.693680 801.135986,238.148239 
	C808.695068,239.542786 815.923279,241.930237 822.732788,245.526062 
	C840.173584,254.735794 852.745728,268.355713 859.963318,286.778870 
	C860.617554,288.448761 861.482239,290.138245 861.210876,292.056610 
	C860.961609,293.819031 859.694031,294.638336 858.169373,294.914734 
	C856.028564,295.302826 854.656982,293.998260 853.907227,292.208374 
	C851.915283,287.453094 850.004211,282.667542 846.937866,278.039459 
z"/>
<path fill="#000000" opacity="1.000000" stroke="none" 
	d="
M674.277527,432.438721 
	C670.816162,436.274750 668.272949,434.669373 666.211853,431.357727 
	C662.884827,426.012146 661.393616,419.965149 660.874573,413.841980 
	C659.118896,393.131226 662.240601,373.351227 673.151245,355.252869 
	C673.752319,354.255920 674.356201,353.247040 675.080139,352.340668 
	C676.540710,350.511810 678.500366,350.201447 680.438843,351.275635 
	C682.647644,352.499542 682.564636,354.486389 681.434998,356.450653 
	C678.027710,362.375153 674.845276,368.390381 672.597046,374.882202 
	C667.748962,388.881104 667.049622,403.148468 669.230225,417.715576 
	C670.008667,422.915009 673.792419,426.912018 674.277527,432.438721 
z"/>
<path fill="#000000" opacity="1.000000" stroke="none" 
	d="
M833.834961,505.933716 
	C835.930908,497.790405 843.570435,492.976532 851.209229,494.625031 
	C856.784302,495.828217 861.398499,498.651398 864.746582,503.282837 
	C866.282349,505.407410 866.846008,507.847565 865.128235,510.251068 
	C863.492859,512.539307 861.325928,512.021606 858.880005,511.829834 
	C853.371277,511.397858 847.783264,510.526886 842.289795,511.732666 
	C837.482727,512.787781 835.066711,510.628906 833.834961,505.933716 
z"/>
<path fill="#000000" opacity="1.000000" stroke="none" 
	d="
M397.976501,343.810120 
	C399.164917,342.840881 400.015076,342.007355 401.017456,341.445282 
	C402.887390,340.396698 404.911407,340.097992 406.437531,341.929382 
	C408.011810,343.818542 407.278931,345.642914 405.680756,347.211761 
	C393.785645,358.888855 387.340118,373.047028 386.309479,389.682953 
	C386.151001,392.241180 384.790009,393.792542 382.156677,393.553436 
	C379.084259,393.274414 378.586273,390.909393 378.748108,388.426514 
	C379.712860,373.626648 384.405121,360.218536 393.825195,348.615265 
	C395.080841,347.068573 396.411163,345.582489 397.976501,343.810120 
z"/>
<path fill="#000000" opacity="1.000000" stroke="none" 
	d="
M476.887512,328.245544 
	C474.740479,326.626251 472.777527,325.349823 471.052368,323.807465 
	C468.370270,321.409576 468.717529,318.378662 471.676758,316.955597 
	C482.263000,311.864807 491.629822,313.228424 499.691833,321.033997 
	C503.984314,325.189941 503.293915,328.278107 497.546722,329.798431 
	C490.645142,331.624146 483.640717,333.863007 476.887512,328.245544 
z"/>
<path fill="#000000" opacity="1.000000" stroke="none" 
	d="
M777.608887,317.655518 
	C773.729858,316.107971 768.188538,318.081299 767.071899,313.048798 
	C766.067688,308.522461 771.212830,307.091003 773.854370,304.674011 
	C780.205566,298.862762 789.039917,298.237610 796.679565,302.333496 
	C799.197632,303.683472 800.021484,305.537170 798.623657,308.066010 
	C795.490906,313.733398 784.660767,318.794556 777.608887,317.655518 
z"/>
<path fill="#000000" opacity="1.000000" stroke="none" 
	d="
M287.997864,495.843536 
	C291.437439,496.681885 294.523254,497.404633 297.084564,499.388336 
	C299.559631,501.305237 301.070892,503.798462 301.304871,506.958374 
	C301.507904,509.700348 301.266418,512.403687 298.652161,513.999390 
	C296.014130,515.609619 294.063934,513.513062 291.785034,511.814484 
	C290.363190,516.797180 287.785858,518.036804 283.558197,515.299500 
	C282.050049,514.322937 280.427094,515.935120 278.820068,516.138367 
	C275.519257,516.555908 273.053894,514.996765 273.978668,511.761444 
	C276.044403,504.534515 280.374725,498.836456 287.997864,495.843536 
z"/>
<path fill="#000000" opacity="1.000000" stroke="none" 
	d="
M226.838379,306.025635 
	C220.930099,311.131744 214.222946,309.334625 207.922440,308.884308 
	C205.287369,308.695953 204.544403,305.940430 206.106430,303.405029 
	C211.665939,294.381348 218.991333,288.741913 230.348572,290.680603 
	C232.376617,291.026764 234.373734,291.187653 235.238037,293.410919 
	C236.012375,295.402710 235.034195,296.939636 233.759171,298.359955 
	C231.542023,300.829742 229.331650,303.305634 226.838379,306.025635 
z"/>
<path fill="#000000" opacity="1.000000" stroke="none" 
	d="
M379.148315,427.417938 
	C377.537415,419.398682 377.441498,411.817596 379.680084,404.308807 
	C379.963898,403.356781 380.267883,402.401672 380.670319,401.495850 
	C381.702728,399.172119 383.464294,398.144348 385.905304,399.146118 
	C388.161560,400.072113 388.533386,401.947021 387.841431,404.131989 
	C383.624786,417.446411 385.689819,429.721130 393.915802,440.990051 
	C395.594421,443.289520 395.266724,445.406250 392.959595,447.032990 
	C390.485199,448.777679 388.938934,447.061096 387.569611,445.276917 
	C383.561401,440.054535 380.820557,434.218811 379.148315,427.417938 
z"/>
<path fill="#000000" opacity="1.000000" stroke="none" 
	d="
M711.147461,469.196655 
	C710.582092,473.212799 708.335388,473.882080 705.340088,472.623657 
	C692.526611,467.240448 684.349121,457.777283 680.920715,444.310883 
	C680.280945,441.797974 680.354736,438.991333 683.405518,438.069550 
	C686.731873,437.064514 687.682556,439.669525 688.345764,442.217438 
	C691.111328,452.843109 697.241821,460.649475 707.423950,465.087738 
	C709.133789,465.833038 710.729065,466.724335 711.147461,469.196655 
z"/>
<path fill="#000000" opacity="1.000000" stroke="none" 
	d="
M448.462372,432.194122 
	C452.490479,431.373474 453.627625,433.794769 453.954498,436.624847 
	C455.103638,446.573364 460.394287,453.096954 469.774109,456.423950 
	C472.236145,457.297272 473.956879,458.854218 472.967041,461.671021 
	C471.968842,464.511475 469.697083,464.411957 467.184357,463.733704 
	C456.028473,460.722321 446.314606,448.267639 446.133362,436.665161 
	C446.105499,434.882233 446.541046,433.384796 448.462372,432.194122 
z"/>
<path fill="#000000" opacity="1.000000" stroke="none" 
	d="
M264.223877,446.079956 
	C257.635651,454.670593 249.512512,460.366394 239.274506,462.871033 
	C237.142990,463.392487 234.958389,463.783539 233.264389,461.851868 
	C231.212311,459.511932 232.432449,456.662750 236.073700,455.735718 
	C245.605591,453.309052 253.434708,448.475159 258.940887,440.163788 
	C260.377197,437.995728 262.047882,435.895081 264.981171,437.736816 
	C268.191803,439.752686 266.835083,442.198456 265.256592,444.538574 
	C264.978363,444.951050 264.696198,445.360840 264.223877,446.079956 
z"/>
<path fill="#000000" opacity="1.000000" stroke="none" 
	d="
M622.003052,402.891510 
	C621.572266,400.330170 621.184753,398.212280 620.881042,396.082489 
	C620.522156,393.565552 621.593140,391.742310 624.053284,391.241272 
	C626.376709,390.768066 627.784851,392.153809 628.338196,394.385162 
	C631.180298,405.845764 631.190979,417.334045 628.589050,428.829681 
	C628.066833,431.136749 626.878418,432.972412 624.122131,432.351868 
	C621.319031,431.720856 620.506348,429.656342 621.073669,427.021118 
	C622.762268,419.177551 623.366028,411.295990 622.003052,402.891510 
z"/>
<path fill="#000000" opacity="1.000000" stroke="none" 
	d="
M478.393616,460.824280 
	C473.393250,457.913239 469.565247,454.345825 466.979919,449.534851 
	C465.715607,447.182159 465.679749,445.014465 468.216766,443.536896 
	C470.685974,442.098785 472.263550,443.493591 473.485016,445.552887 
	C477.293274,451.973236 482.882416,455.640015 490.309875,456.523254 
	C492.842682,456.824432 495.089630,457.929565 494.774933,460.793213 
	C494.428986,463.941284 491.825409,464.558502 489.130402,464.133331 
	C485.535278,463.566162 481.946198,462.866089 478.393616,460.824280 
z"/>
<path fill="#000000" opacity="1.000000" stroke="none" 
	d="
M307.266113,428.021423 
	C307.873352,424.894043 308.582031,422.055878 312.249908,422.874390 
	C316.112122,423.736267 315.558167,426.974426 314.970215,429.741333 
	C314.443634,432.219238 312.771790,434.150787 311.014740,435.960266 
	C306.953491,440.142761 302.250641,443.554840 297.715240,447.171753 
	C295.473877,448.959137 293.130615,449.592743 291.204315,447.081604 
	C289.144165,444.395935 291.097595,442.625916 293.100769,440.862549 
	C297.797150,436.728394 303.624146,433.855347 307.266113,428.021423 
z"/>
<path fill="#000000" opacity="1.000000" stroke="none" 
	d="
M609.479065,464.745026 
	C603.635315,467.616730 597.815613,468.710754 591.715332,468.182892 
	C589.294617,467.973450 586.799072,467.422180 586.898865,464.310730 
	C586.995483,461.297333 589.280396,460.532318 591.852478,460.701630 
	C599.433105,461.200592 605.884644,458.690948 611.474731,453.656891 
	C613.215698,452.089020 615.188843,451.148743 617.143066,453.303864 
	C619.133240,455.498657 618.334045,457.521790 616.538391,459.449249 
	C614.584412,461.546539 612.312866,463.196136 609.479065,464.745026 
z"/>
<path fill="#000000" opacity="1.000000" stroke="none" 
	d="
M788.331604,236.330505 
	C782.218323,236.733215 777.371521,239.052841 773.113037,242.716156 
	C771.000061,244.533798 768.742615,245.507309 766.678528,242.909988 
	C764.791931,240.535919 766.223694,238.560135 768.080872,236.906235 
	C774.837769,230.888977 782.702698,228.071533 791.784424,228.622131 
	C794.702209,228.799042 797.252991,229.335297 797.189758,232.915833 
	C797.124634,236.596512 794.234253,236.244095 791.753601,236.308823 
	C790.760254,236.334747 789.765747,236.319427 788.331604,236.330505 
z"/>
<path fill="#000000" opacity="1.000000" stroke="none" 
	d="
M485.823120,244.324203 
	C484.627014,241.282669 486.055786,239.614029 488.031250,238.074982 
	C494.152985,233.305725 501.127502,230.254532 508.467468,228.006912 
	C510.748260,227.308502 513.320435,227.218430 514.317871,230.117294 
	C515.367188,233.166946 513.613770,234.839157 510.862274,235.612961 
	C504.063324,237.525055 497.982391,240.871201 492.173981,244.789459 
	C490.096130,246.191071 488.006500,247.020050 485.823120,244.324203 
z"/>
<path fill="#000000" opacity="1.000000" stroke="none" 
	d="
M222.023712,237.150757 
	C216.450897,239.064224 211.324463,240.991730 207.115097,244.733185 
	C205.452423,246.210983 203.586044,246.866165 201.849899,244.951706 
	C199.860901,242.758438 200.614365,240.600677 202.502762,238.812073 
	C205.812576,235.677185 209.810089,233.599518 213.999161,231.924286 
	C217.238907,230.628693 220.568924,229.560440 223.843353,228.349319 
	C226.309647,227.437134 228.569870,227.387802 229.616837,230.267731 
	C230.751465,233.388809 228.828964,234.873703 226.175598,235.767441 
	C224.916321,236.191589 223.654404,236.607925 222.023712,237.150757 
z"/>
<path fill="#000000" opacity="1.000000" stroke="none" 
	d="
M758.142029,476.324677 
	C755.898193,477.675690 754.279480,476.725250 752.744995,475.689575 
	C746.413208,471.416199 741.348328,465.990845 737.925537,459.113647 
	C736.649048,456.548920 735.856079,453.790527 739.062317,452.220764 
	C742.239319,450.665314 743.406921,453.392548 744.632446,455.609680 
	C747.661011,461.088989 751.596252,465.747864 756.878357,469.212799 
	C759.564331,470.974701 761.185974,473.066498 758.142029,476.324677 
z"/>
<path fill="#000000" opacity="1.000000" stroke="none" 
	d="
M557.778809,241.365997 
	C558.668884,245.710495 556.614929,247.360657 552.973389,247.252304 
	C545.972229,247.044037 539.042725,247.132843 532.359192,249.664291 
	C530.296997,250.445358 528.740540,249.504898 528.002808,247.518372 
	C527.283447,245.581314 527.749573,243.617844 529.662781,242.830460 
	C538.726990,239.100143 547.979492,237.288345 557.778809,241.365997 
z"/>
<path fill="#000000" opacity="1.000000" stroke="none" 
	d="
M754.757996,461.661133 
	C756.376282,457.052582 759.125305,456.257385 761.757568,459.642609 
	C765.902466,464.972992 770.796692,469.264435 776.741821,472.410858 
	C778.856995,473.530273 780.344360,475.159698 778.992981,477.598511 
	C777.630920,480.056610 775.292419,480.265594 772.962280,479.036591 
	C765.377869,475.036316 758.738281,469.987762 754.757996,461.661133 
z"/>
<path fill="#000000" opacity="1.000000" stroke="none" 
	d="
M505.593994,462.584595 
	C499.214569,460.751556 494.150696,457.349731 489.350372,453.517181 
	C487.283203,451.866760 485.606445,449.791412 487.785278,447.216187 
	C489.907440,444.707947 492.208557,445.799072 494.282166,447.577515 
	C498.879395,451.520294 504.092651,454.265411 509.950226,455.839905 
	C512.516418,456.529663 515.584778,457.191986 514.468018,460.928040 
	C513.439880,464.367615 510.565308,463.869019 507.871002,463.255951 
	C507.227600,463.109528 506.598969,462.898285 505.593994,462.584595 
z"/>
<path fill="#000000" opacity="1.000000" stroke="none" 
	d="
M284.305145,447.344238 
	C281.218445,449.904358 278.381989,452.215027 275.021637,453.725006 
	C272.875031,454.689606 270.687164,454.810455 269.329895,452.513000 
	C267.933624,450.149475 269.105560,448.424225 271.250244,447.196625 
	C276.957428,443.930023 281.651642,439.560730 285.439606,434.198853 
	C286.933502,432.084229 288.842804,430.793945 291.333466,432.349274 
	C293.950317,433.983490 293.215515,436.154175 291.913635,438.387146 
	C289.964172,441.730896 287.362640,444.488068 284.305145,447.344238 
z"/>
<path fill="#000000" opacity="1.000000" stroke="none" 
	d="
M614.581177,439.622162 
	C616.107422,439.221954 617.236938,438.935028 618.333557,438.553680 
	C620.617371,437.759644 622.734070,437.765350 623.773376,440.325256 
	C624.889038,443.073059 623.387024,444.935425 620.951782,445.779877 
	C613.454956,448.379669 605.797485,449.272400 597.944031,447.431427 
	C595.495300,446.857361 593.859436,445.631592 594.427612,442.991913 
	C594.965698,440.491669 596.930054,439.465759 599.368347,440.006195 
	C604.348816,441.110138 609.258728,440.866913 614.581177,439.622162 
z"/>
<path fill="#000000" opacity="1.000000" stroke="none" 
	d="
M188.609344,246.839325 
	C186.522247,249.348999 184.308289,250.285568 181.991837,248.066299 
	C179.748062,245.916672 181.175079,243.817062 182.716751,241.934158 
	C186.842941,236.894653 191.448715,232.374908 197.032120,228.942154 
	C199.357727,227.512344 201.813843,226.832916 203.576035,229.561432 
	C205.273193,232.189301 203.377609,233.931259 201.400635,235.316910 
	C196.765213,238.565872 192.222137,241.898773 188.609344,246.839325 
z"/>
<path fill="#000000" opacity="1.000000" stroke="none" 
	d="
M765.394043,227.884705 
	C768.095825,227.637238 769.744324,228.573517 770.093018,230.920578 
	C770.381592,232.862595 769.535889,234.488663 767.738281,235.448288 
	C763.013489,237.970505 759.133057,241.604248 755.094971,245.026138 
	C753.241516,246.596786 751.298157,247.336838 749.395752,245.381302 
	C747.315552,243.242996 748.135498,241.188934 750.035767,239.337173 
	C754.557922,234.930496 759.356995,230.892029 765.394043,227.884705 
z"/>
<path fill="#000000" opacity="1.000000" stroke="none" 
	d="
M462.964417,312.121307 
	C458.260498,313.746796 454.803619,312.303802 453.131500,308.275909 
	C451.680450,304.780457 451.695038,300.906525 455.563660,298.533264 
	C459.148346,296.334259 462.641266,296.845825 465.524811,299.899811 
	C468.718536,303.282410 467.786133,308.003510 462.964417,312.121307 
z"/>
<path fill="#000000" opacity="1.000000" stroke="none" 
	d="
M815.480835,283.868530 
	C817.044189,288.219635 815.848206,291.451416 812.542908,293.832336 
	C809.770264,295.829620 806.842896,295.463074 804.245911,293.423340 
	C801.326050,291.130035 800.588379,288.021667 801.564392,284.502747 
	C802.302002,281.843414 804.129211,280.215302 806.803711,279.800446 
	C810.348999,279.250580 813.403442,280.130432 815.480835,283.868530 
z"/>
<path fill="#000000" opacity="1.000000" stroke="none" 
	d="
M524.900024,310.689117 
	C530.851257,309.537872 534.750916,311.751892 535.413025,316.403229 
	C535.929810,320.033875 534.799622,323.094482 531.447266,324.817841 
	C528.297913,326.436829 525.146606,325.869049 522.782349,323.275055 
	C520.177246,320.416809 519.885864,316.959717 521.721741,313.558472 
	C522.311829,312.465302 523.579834,311.738068 524.900024,310.689117 
z"/>
<path fill="#000000" opacity="1.000000" stroke="none" 
	d="
M264.296448,481.065735 
	C266.235291,479.557861 267.938507,479.377563 269.547760,480.825439 
	C271.238312,482.346527 270.709381,484.114288 269.898682,485.849579 
	C267.035400,491.978577 262.571991,496.477356 256.275482,499.045868 
	C254.204498,499.890686 251.970627,500.539673 250.652756,497.923218 
	C249.334244,495.305389 250.454987,493.215424 252.932098,492.259521 
	C258.272583,490.198578 261.474365,486.134735 264.296448,481.065735 
z"/>
<path fill="#000000" opacity="1.000000" stroke="none" 
	d="
M737.524475,299.968842 
	C744.192078,299.880585 747.735474,302.917633 747.208069,307.958588 
	C746.852295,311.358978 745.091064,313.928162 741.767334,314.940613 
	C738.583191,315.910522 735.755493,314.693237 733.899597,312.117401 
	C731.806641,309.212433 731.790222,305.954681 733.703064,302.811462 
	C734.510803,301.484314 735.744446,300.683502 737.524475,299.968842 
z"/>
<path fill="#000000" opacity="1.000000" stroke="none" 
	d="
M511.407410,243.724304 
	C509.496002,239.883041 510.877045,237.783386 514.382629,236.640121 
	C518.948181,235.151169 523.467407,233.511505 528.067139,232.139618 
	C530.497131,231.414841 533.222107,230.986465 534.159180,234.355835 
	C535.025085,237.469055 533.051758,238.879715 530.415039,239.731964 
	C525.533081,241.309875 520.641296,242.862320 515.799805,244.557297 
	C514.224487,245.108810 512.914795,245.109512 511.407410,243.724304 
z"/>
<path fill="#000000" opacity="1.000000" stroke="none" 
	d="
M257.200012,277.318390 
	C256.699036,283.699585 253.824036,286.768066 249.291275,286.221649 
	C244.930603,285.695953 242.150558,281.895782 242.764572,277.281311 
	C243.213882,273.904510 245.248962,271.776886 248.471741,271.280914 
	C252.843399,270.608124 255.721359,272.774231 257.200012,277.318390 
z"/>
<path fill="#000000" opacity="1.000000" stroke="none" 
	d="
M187.927246,300.060303 
	C190.889679,303.681610 190.700516,307.099426 188.156754,310.306122 
	C186.417267,312.498901 184.040955,313.587524 181.129120,312.653229 
	C178.254257,311.730804 176.143875,310.056793 175.725891,306.868896 
	C175.320541,303.777222 175.588470,300.818298 178.534805,298.972015 
	C181.710358,296.982086 184.803497,297.306732 187.927246,300.060303 
z"/>
<path fill="#000000" opacity="1.000000" stroke="none" 
	d="
M793.990723,481.425629 
	C789.004883,479.935089 785.194458,477.367065 782.193298,473.635223 
	C780.723816,471.807983 779.871887,469.798370 781.989990,467.904388 
	C784.058533,466.054626 786.067749,466.856659 787.675232,468.634491 
	C790.446228,471.699005 793.722107,473.906250 797.799561,474.598755 
	C800.733765,475.097076 803.392883,476.124420 802.814941,479.458069 
	C802.188110,483.073395 798.957825,482.369720 796.306580,482.059326 
	C795.655396,481.983063 795.028381,481.700562 793.990723,481.425629 
z"/>
<path fill="#000000" opacity="1.000000" stroke="none" 
	d="
M733.978271,250.158539 
	C729.428162,248.517273 729.132690,245.955994 732.151672,243.007858 
	C735.355164,239.879471 738.745422,236.937393 742.130554,234.001984 
	C744.048767,232.338608 746.448547,231.504959 748.352783,233.602173 
	C750.472229,235.936325 749.269470,238.170990 747.090881,239.982025 
	C742.912231,243.455750 739.507629,247.895508 733.978271,250.158539 
z"/>
<path fill="#000000" opacity="1.000000" stroke="none" 
	d="
M174.560669,246.546310 
	C173.103561,248.983307 171.740189,251.064117 170.634415,253.273819 
	C169.417297,255.706055 167.628632,257.009460 165.064621,255.871063 
	C162.585724,254.770462 162.724197,252.550369 163.660187,250.345825 
	C165.546539,245.902985 167.856934,241.719147 171.204559,238.186508 
	C172.840759,236.459900 174.641678,234.582092 177.116882,236.539749 
	C179.630630,238.527893 178.850845,240.875595 177.151535,243.073792 
	C176.342514,244.120300 175.561615,245.188553 174.560669,246.546310 
z"/>
<path fill="#000000" opacity="1.000000" stroke="none" 
	d="
M244.627945,485.047058 
	C246.032547,491.658875 237.605057,500.939697 231.475525,500.040283 
	C229.686981,499.777863 228.367523,498.801208 227.975342,496.959747 
	C227.618607,495.284729 228.345108,493.782257 229.834961,493.250366 
	C233.972687,491.773071 236.829803,489.026001 239.156921,485.384521 
	C240.396362,483.444977 242.429749,483.256805 244.627945,485.047058 
z"/>
<path fill="#000000" opacity="1.000000" stroke="none" 
	d="
M214.408951,490.490417 
	C215.749344,489.003296 216.823318,487.754425 217.790268,486.427551 
	C219.199554,484.493591 221.041092,484.090820 223.000473,485.204834 
	C224.942154,486.308838 224.858826,488.269470 224.127960,490.052582 
	C222.407776,494.249390 219.300995,497.158508 215.108994,498.786072 
	C212.823486,499.673401 210.300980,499.850830 209.123550,497.136078 
	C208.005981,494.559357 209.187744,492.669098 211.838486,491.717285 
	C212.613190,491.439148 213.343857,491.038391 214.408951,490.490417 
z"/>
</svg>