<svg version="1.1" id="Layer_1" xmlns="http://www.w3.org/2000/svg" xmlns:xlink="http://www.w3.org/1999/xlink" x="0px" y="0px"
	 width="100%" viewBox="0 0 5000 3333" enable-background="new 0 0 5000 3333" xml:space="preserve">
<path fill="none" opacity="1.000000" stroke="#000000" stroke-linecap="round" stroke-linejoin="round" stroke-width="9.000000"
	d="
M3552.000000,1885.500000 
	C3557.452148,1878.595703 3557.863281,1869.951904 3558.785156,1861.975220 
	C3564.199707,1815.129028 3563.731689,1768.023315 3562.744141,1721.005371 
	C3562.106445,1690.643433 3559.381348,1660.301880 3556.882324,1630.009766 
	C3554.788574,1604.629150 3552.336182,1579.240967 3548.854248,1554.020142 
	C3542.492188,1507.942627 3535.545898,1461.889893 3522.886475,1417.031982 
	C3507.850098,1363.751099 3491.266602,1310.945679 3472.078369,1258.971069 
	C3458.583008,1222.417603 3443.800293,1186.647705 3422.161133,1153.893555 
	C3405.310547,1128.386963 3387.514404,1103.839966 3366.071289,1081.930176 
	C3340.936279,1056.248535 3316.936768,1029.511230 3295.019531,1000.984985 
	C3283.517334,986.014832 3282.932861,968.893005 3284.868896,950.985840 
	C3286.872559,932.456726 3293.853271,914.711853 3293.837891,896.000122 
	C3293.824463,879.671265 3294.062256,863.375671 3292.539062,846.950012 
	C3291.020752,830.578674 3289.564453,814.214478 3286.901611,798.016174 
	C3282.457520,770.986145 3271.796387,745.816406 3260.724365,721.123535 
	C3243.773926,683.319641 3226.232178,645.674927 3206.717041,609.151123 
	C3175.925781,551.522949 3140.431885,497.599640 3090.472412,453.465240 
	C3050.584961,418.228394 3005.254639,395.507233 2956.085693,377.762512 
	C2919.263184,364.473480 2881.468750,355.264557 2842.940674,350.476532 
	C2805.586670,345.834351 2768.055664,342.588074 2729.959229,345.460449 
	C2688.694824,348.571747 2648.067871,353.700195 2607.977539,363.912140 
	C2562.709473,375.442963 2520.457275,394.123871 2480.077637,417.136383 
	C2458.719727,429.308228 2437.621338,442.044220 2417.997314,456.996338 
	C2401.970947,469.207092 2389.173096,484.861053 2374.040283,498.046326 
	C2330.531738,535.955750 2304.762939,585.864807 2281.113770,637.052490 
	C2273.667236,653.170105 2263.895996,668.358887 2260.036377,686.007935 
	C2257.300781,698.517639 2255.927734,711.249146 2255.045410,724.003174 
	C2253.438965,747.225464 2242.075439,764.114807 2223.112305,777.163269 
	C2208.473389,787.236267 2192.100342,793.902039 2176.794922,802.640869 
	C2130.657959,828.982971 2094.787354,866.056946 2067.520508,910.320618 
	C2033.030273,966.310364 2002.609253,1024.758423 1977.937744,1085.974976 
	C1962.519897,1124.231201 1950.937256,1163.663208 1943.381470,1204.071289 
	C1939.402466,1225.350952 1936.488647,1247.070923 1936.918701,1269.001587 
	C1937.304321,1288.660645 1936.783447,1308.336304 1937.054077,1327.999268 
	C1937.401123,1353.225952 1941.100708,1378.092651 1944.718140,1403.040894 
	C1948.424438,1428.601074 1953.106567,1453.881348 1958.945801,1479.012573 
	C1968.090576,1518.368896 1982.658203,1555.562622 2001.962402,1591.020508 
	C2033.958130,1649.789917 2078.026367,1699.525269 2121.129883,1749.888794 
	C2165.344238,1801.550293 2213.296143,1849.694824 2264.082031,1894.907837 
	C2299.527588,1926.463867 2337.316406,1954.944092 2378.969482,1978.054932 
	C2401.017090,1990.287842 2423.353271,2002.315674 2446.244385,2012.447754 
	C2486.512451,2030.271118 2527.586670,2046.601074 2570.007812,2058.973389 
	C2626.024658,2075.311279 2682.819092,2088.493896 2740.014648,2099.926514 
	C2765.751221,2105.071045 2791.831543,2107.720947 2817.958984,2110.399414 
	C2840.050781,2112.664551 2862.066650,2112.514404 2883.988037,2111.684570 
	C2928.377930,2110.004150 2972.273926,2104.864990 3015.087646,2091.276123 
	C3061.269287,2076.618164 3102.822754,2052.811768 3145.034424,2030.063965 
	C3156.877441,2023.681885 3168.570557,2017.091919 3180.045898,2010.074829 
	C3184.213135,2007.526611 3188.584717,2004.713013 3194.000000,2006.000000 
"/>
<path fill="none" opacity="1.000000" stroke="#000000" stroke-linecap="round" stroke-linejoin="round" stroke-width="8.000000"
	d="
M1728.000000,1673.000000 
	C1740.928955,1670.085327 1750.302856,1677.807495 1759.954468,1684.070190 
	C1778.920776,1696.377441 1795.421387,1711.867554 1811.837036,1727.174683 
	C1853.362915,1765.896118 1899.161133,1798.743774 1946.984619,1829.024292 
	C1991.442871,1857.174194 2037.359253,1882.563477 2084.919678,1905.169189 
	C2132.466553,1927.768799 2180.362549,1949.604492 2228.045898,1971.901978 
	C2259.803955,1986.752441 2292.025146,2000.610596 2323.989258,2015.023682 
	C2339.758057,2022.134155 2355.320557,2029.893433 2371.196045,2036.531006 
	C2391.489502,2045.015747 2411.081787,2054.860840 2431.163086,2063.626465 
	C2453.740234,2073.481934 2476.562744,2082.642334 2498.717285,2093.558838 
	C2506.810791,2097.546875 2516.960205,2098.339844 2525.944580,2101.175293 
	C2538.068115,2105.001221 2549.655273,2109.998779 2560.136963,2117.816406 
	C2573.266113,2127.607910 2589.207764,2132.377930 2604.117432,2138.724365 
	C2621.707764,2146.211670 2639.333008,2153.724121 2656.871582,2161.297607 
	C2692.230957,2176.566162 2727.197510,2192.721924 2762.863770,2207.332520 
	C2771.387207,2210.824219 2779.608643,2216.940674 2788.162109,2219.447021 
	C2806.096680,2224.702637 2821.890381,2234.257568 2838.919189,2241.198486 
	C2866.552490,2252.461914 2893.195312,2266.291992 2921.180908,2276.504395 
	C2937.380127,2282.415771 2951.412109,2294.638672 2970.003906,2294.154541 
	C2973.654297,2294.059326 2976.897705,2296.840576 2980.008789,2298.987305 
	C3004.620361,2315.970215 3033.405273,2324.191162 3060.121582,2336.741211 
	C3081.443848,2346.757568 3103.477051,2355.319580 3125.055176,2364.875244 
	C3151.824707,2376.729248 3179.151367,2387.322754 3205.952393,2399.108398 
	C3227.552246,2408.607422 3249.256104,2417.843506 3270.936768,2427.147217 
	C3303.597168,2441.162598 3336.333008,2455.032227 3368.845703,2469.350342 
	C3395.880615,2481.256104 3423.028809,2492.952637 3450.103516,2504.762451 
	C3484.876953,2519.930176 3519.946289,2534.491455 3554.815674,2549.430420 
	C3581.947998,2561.054688 3608.910645,2573.226074 3636.068848,2584.839111 
	C3672.326416,2600.343262 3708.465576,2616.136963 3744.829834,2631.405518 
	C3771.748291,2642.707764 3798.208496,2655.384521 3825.151611,2666.636963 
	C3861.825928,2681.953613 3898.219727,2697.954590 3934.816650,2713.433350 
	C3966.389404,2726.786377 3998.197021,2739.807373 4029.033936,2754.930664 
	C4032.785400,2756.770752 4037.064453,2757.501465 4040.988037,2759.031006 
	C4052.492432,2763.515625 4056.975830,2776.335938 4052.161133,2787.072266 
	C4040.433594,2813.224609 4027.775391,2838.854004 4014.161133,2864.086914 
	C4000.635498,2889.154297 3986.435791,2913.720215 3970.045410,2937.031982 
	C3959.515137,2952.009033 3945.308594,2962.747070 3929.874268,2971.785156 
	C3922.973389,2975.825928 3914.606201,2973.291992 3908.095947,2969.819824 
	C3867.572266,2948.208008 3826.675049,2927.308838 3786.123291,2905.768066 
	C3759.656738,2891.708984 3733.162598,2877.650146 3706.841064,2863.291260 
	C3665.648926,2840.820068 3625.256836,2817.049316 3584.995361,2793.008057 
	C3501.013916,2742.861084 3422.015137,2685.135986 3339.981934,2632.028076 
	C3311.247070,2613.424805 3282.274902,2595.151367 3250.962891,2581.082275 
	C3235.270264,2574.031494 3218.597656,2575.182617 3201.999268,2576.992676 
	C3152.818604,2582.356201 3106.562500,2600.873047 3057.997070,2608.982910 
	C3040.413818,2611.919189 3022.719482,2614.058838 3005.049805,2616.379883 
	C2978.050293,2619.926270 2951.386230,2626.013672 2925.000244,2633.000732 
	C2893.737793,2641.278809 2862.727051,2650.593994 2830.980469,2656.902344 
	C2814.804443,2660.116699 2798.566650,2662.939941 2782.020752,2664.260254 
	C2768.969238,2665.301514 2755.690674,2665.989746 2743.000000,2670.000000 
"/>
<path fill="none" opacity="1.000000" stroke="#000000" stroke-linecap="round" stroke-linejoin="round" stroke-width="10.000000"
	d="
M893.000000,810.000000 
	C888.462708,809.034790 884.743469,806.480225 882.058044,802.955750 
	C854.788147,767.165771 824.208862,734.341248 793.208801,701.801086 
	C778.869324,686.749268 765.196716,671.171509 749.110352,657.866577 
	C744.772949,654.279114 739.909729,650.005493 735.214478,652.417480 
	C730.023865,655.083923 728.366760,661.632263 727.904907,667.993103 
	C726.795471,683.269287 731.701416,697.450684 737.272827,710.886841 
	C754.950195,753.517944 779.463196,792.300171 805.810364,830.132080 
	C835.887573,873.320068 866.221191,916.318115 897.057617,958.958313 
	C932.141663,1007.471924 967.298950,1055.940918 1003.095398,1103.928833 
	C1045.506836,1160.784912 1087.658325,1217.836548 1130.910400,1274.068970 
	C1172.877319,1328.630493 1214.772217,1383.226196 1258.932617,1436.056274 
	C1280.763794,1462.173340 1303.285889,1487.660522 1325.668335,1513.289673 
	C1352.184082,1543.651489 1384.202759,1567.500244 1413.946655,1594.059692 
	C1426.179077,1604.982544 1440.329102,1613.792603 1450.500000,1627.000000 
"/>
<path fill="none" opacity="1.000000" stroke="#000000" stroke-linecap="round" stroke-linejoin="round" stroke-width="8.000000"
	d="
M2979.000000,2453.000000 
	C2972.958740,2465.948486 2959.999023,2470.233154 2949.007080,2477.011475 
	C2893.236328,2511.401855 2831.397217,2528.625244 2768.049316,2542.230225 
	C2731.791260,2550.017090 2695.331787,2556.697998 2658.946777,2563.723877 
	C2627.871094,2569.724854 2596.318848,2573.238770 2565.004150,2578.027588 
	C2535.318115,2582.567139 2505.765137,2588.147705 2475.968994,2591.743408 
	C2452.006348,2594.635254 2428.065430,2597.828857 2404.023438,2600.234863 
	C2372.052002,2603.435059 2340.015625,2605.729492 2308.057129,2608.628662 
	C2272.474854,2611.856689 2237.325684,2605.940918 2202.008789,2608.141357 
	C2197.186523,2608.441895 2194.848145,2603.853516 2190.500000,2604.000000 
"/>
<path fill="none" opacity="1.000000" stroke="#000000" stroke-linecap="round" stroke-linejoin="round" stroke-width="8.000000"
	d="
M2096.000000,2667.000000 
	C2099.596680,2661.702393 2105.793701,2661.356934 2110.913818,2658.825684 
	C2139.721191,2644.581543 2167.500244,2628.143066 2188.454590,2603.535400 
	C2195.833496,2594.870117 2197.729736,2581.147949 2200.062012,2569.011963 
	C2208.793213,2523.577393 2187.257080,2489.795898 2157.955811,2459.042236 
	C2148.001953,2448.595215 2134.314453,2445.896240 2120.962402,2444.318848 
	C2111.079346,2443.151367 2101.172119,2441.364258 2090.993164,2441.856201 
	C2064.118896,2443.155029 2037.927612,2446.121826 2015.923096,2463.904785 
	C2014.526978,2465.033203 2012.025757,2464.794434 2009.326172,2465.334229 
	C2002.878174,2458.883057 2003.187134,2450.222168 2001.963623,2442.005371 
	C1997.191284,2409.958008 1988.088501,2379.191650 1961.714478,2358.361328 
	C1939.436401,2340.766113 1913.320679,2329.499512 1884.004883,2330.205078 
	C1866.435913,2330.627930 1849.971191,2336.922119 1834.021240,2344.047363 
	C1824.904541,2348.119629 1815.886230,2352.447510 1807.023926,2357.046143 
	C1789.437988,2366.171143 1780.472778,2382.701416 1770.835693,2398.902344 
	C1763.500366,2411.233643 1754.381104,2423.190674 1755.396973,2437.972656 
	C1756.289673,2450.965332 1755.401489,2463.971436 1757.462402,2477.084473 
	C1759.473389,2489.880127 1760.415771,2503.022705 1761.817139,2516.019775 
	C1762.903198,2526.092285 1768.243896,2533.184570 1773.513916,2541.314941 
	C1780.200317,2551.630859 1788.460815,2553.595459 1799.000000,2553.000000 
"/>
<path fill="none" opacity="1.000000" stroke="#000000" stroke-linecap="round" stroke-linejoin="round" stroke-width="8.000000"
	d="
M698.000000,1499.000000 
	C712.938538,1496.420776 727.802795,1493.261475 741.937195,1487.836304 
	C753.695679,1483.323364 755.458923,1475.058350 746.879517,1465.103882 
	C738.285095,1455.131836 731.355652,1444.329468 727.078613,1431.972778 
	C722.975037,1420.117310 728.525940,1414.000854 741.000000,1416.000000 
	C761.795593,1419.332886 782.241821,1416.954712 803.064331,1414.559204 
	C824.067749,1412.142822 845.690857,1411.727173 865.111328,1424.835083 
	C893.589478,1444.056396 924.046204,1460.653809 946.919189,1487.069946 
	C964.148010,1506.967773 974.984070,1530.854370 987.108398,1553.943115 
	C997.701782,1574.116577 1003.827209,1594.954590 1002.150085,1618.010864 
	C1001.280457,1629.966187 999.707214,1633.455688 987.995056,1633.854126 
	C947.624695,1635.226807 907.508667,1641.812378 867.002258,1639.951172 
	C838.234314,1638.629639 810.472290,1632.023804 784.114258,1620.733276 
	C771.773254,1615.447021 763.174988,1604.444702 755.106934,1593.917969 
	C738.477905,1572.221313 726.631958,1547.545166 713.169800,1523.903320 
	C708.852722,1516.321777 701.502502,1509.908569 702.000000,1500.000000 
"/>
<path fill="none" opacity="1.000000" stroke="#000000" stroke-linecap="round" stroke-linejoin="round" stroke-width="9.000000"
	d="
M3345.500000,1269.000000 
	C3346.333252,1272.000000 3346.615723,1275.305054 3348.082520,1277.954346 
	C3370.961670,1319.277100 3386.679199,1363.603027 3401.839844,1408.054688 
	C3423.139160,1470.505493 3444.093506,1533.095825 3463.765137,1596.073364 
	C3480.174316,1648.605957 3496.495117,1701.202271 3511.602051,1754.113525 
	C3520.617676,1785.690796 3529.763428,1817.423096 3534.944580,1850.008789 
	C3535.994873,1856.614502 3536.952393,1863.343506 3536.844238,1869.997437 
	C3536.707520,1878.377319 3542.196045,1883.695068 3546.000000,1890.000000 
"/>
<path fill="none" opacity="1.000000" stroke="#000000" stroke-linecap="round" stroke-linejoin="round" stroke-width="8.000000"
	d="
M3254.000000,1308.000000 
	C3262.728760,1338.302124 3273.229492,1368.033081 3282.976807,1398.007568 
	C3307.396973,1473.104004 3332.447998,1547.983398 3360.022949,1621.991455 
	C3379.485596,1674.227905 3404.738525,1723.660034 3434.126953,1770.921143 
	C3453.455811,1802.005127 3473.799316,1832.467651 3494.154785,1862.896484 
	C3498.686035,1869.669556 3501.356689,1876.042114 3499.000000,1884.000000 
"/>
<path fill="none" opacity="1.000000" stroke="#000000" stroke-linecap="round" stroke-linejoin="round" stroke-width="10.000000"
	d="
M3157.500000,1263.000000 
	C3157.430908,1286.360596 3155.633057,1309.666016 3154.676514,1332.986694 
	C3153.620117,1358.747925 3154.248047,1384.372681 3156.124756,1409.990845 
	C3157.329346,1426.439209 3160.254395,1442.712891 3162.801758,1459.030884 
	C3168.198730,1493.605225 3176.070068,1527.561035 3189.202148,1559.917969 
	C3209.787842,1610.640259 3236.283936,1658.323120 3272.229004,1699.801514 
	C3306.391113,1739.221924 3342.679199,1776.635742 3383.821533,1809.225464 
	C3414.799561,1833.763672 3448.076172,1854.894897 3479.927002,1878.100220 
	C3482.497314,1879.972778 3484.764160,1881.669189 3487.996582,1882.031372 
	C3499.660156,1883.338257 3507.011475,1890.434692 3513.123047,1899.920776 
	C3518.592285,1908.409668 3525.736328,1915.222046 3537.000000,1915.000000 
"/>
<path fill="none" opacity="1.000000" stroke="#000000" stroke-linecap="round" stroke-linejoin="round" stroke-width="8.000000"
	d="
M1663.500000,2672.000000 
	C1648.334229,2672.686768 1633.232300,2674.126709 1618.002808,2674.279053 
	C1605.209351,2674.406738 1592.762939,2671.242432 1579.993530,2671.866699 
	C1576.392700,2672.042725 1574.183594,2669.736328 1571.729126,2666.187256 
	C1553.098999,2639.248779 1533.917236,2612.719971 1507.045532,2592.937988 
	C1488.503418,2579.287842 1466.948608,2573.547363 1444.979004,2572.401611 
	C1396.056763,2569.850586 1348.074707,2577.062744 1302.094482,2594.252686 
	C1283.422485,2601.233643 1265.396484,2609.958008 1245.988281,2614.954346 
	C1243.406860,2615.618896 1240.645752,2615.550537 1238.004639,2616.025879 
	C1233.420532,2616.850830 1228.561646,2617.913818 1227.135010,2623.037598 
	C1225.981201,2627.181396 1228.294434,2631.025146 1231.058472,2633.944580 
	C1241.731079,2645.216553 1254.378052,2654.077148 1266.963135,2663.051758 
	C1292.256104,2681.088623 1318.342407,2697.787842 1345.985229,2712.028564 
	C1365.170654,2721.912598 1385.608276,2725.782227 1407.000000,2725.500000 
"/>
<path fill="none" opacity="1.000000" stroke="#000000" stroke-linecap="round" stroke-linejoin="round" stroke-width="9.000000"
	d="
M3971.000000,1188.000000 
	C3958.312988,1187.813232 3957.497559,1185.893677 3952.797119,1201.940552 
	C3949.637695,1212.726685 3940.900391,1220.617432 3934.768799,1229.846313 
	C3930.360352,1236.481445 3925.883057,1243.113037 3922.165283,1250.088135 
	C3918.048340,1257.812256 3923.178467,1264.494873 3931.974854,1262.864380 
	C3945.338623,1260.387573 3958.590332,1257.314453 3971.971191,1254.844360 
	C3978.712158,1253.599976 3985.383789,1253.801758 3991.989014,1254.187500 
	C3999.536621,1254.628296 4001.196533,1259.868408 3998.071045,1268.027222 
	C3991.701172,1284.652954 3980.202148,1297.780640 3968.896240,1310.910767 
	C3953.809326,1328.432251 3937.048584,1344.371582 3920.037598,1360.040771 
	C3905.833984,1373.124146 3887.705811,1376.159668 3869.968750,1379.849731 
	C3855.770020,1382.803833 3841.255615,1384.593628 3827.085205,1387.426270 
	C3807.223633,1391.396606 3796.885986,1379.059326 3794.135986,1361.978149 
	C3788.072754,1324.313721 3800.880615,1292.304932 3823.822266,1262.861450 
	C3843.897217,1237.097412 3871.334961,1222.848511 3900.025146,1210.056274 
	C3911.214111,1205.067383 3922.425049,1200.124756 3933.922852,1195.795044 
	C3940.379395,1193.363770 3946.362305,1191.775635 3953.000000,1194.000000 
"/>
<path fill="none" opacity="1.000000" stroke="#000000" stroke-linecap="round" stroke-linejoin="round" stroke-width="9.000000"
	d="
M1695.000000,1784.000000 
	C1705.159058,1792.706543 1717.471436,1799.459229 1721.130249,1813.967163 
	C1721.798462,1816.616455 1724.538208,1818.287842 1726.907593,1820.119507 
	C1748.426392,1836.754639 1768.102417,1855.518677 1787.856201,1874.152466 
	C1791.409546,1877.504395 1794.777588,1878.124023 1799.000366,1878.015503 
	C1805.491943,1877.848511 1811.381226,1879.893066 1817.006348,1882.988525 
	C1853.994263,1903.343872 1891.018677,1923.632690 1927.994873,1944.009399 
	C1965.485474,1964.669678 2003.209229,1984.892700 2040.928101,2005.134033 
	C2110.835693,2042.648804 2182.149170,2077.363037 2253.031006,2112.938232 
	C2276.082520,2124.507568 2300.019287,2134.294189 2322.102051,2147.833496 
	C2325.069824,2149.653076 2327.478760,2151.805908 2330.000000,2154.000000 
"/>
<path fill="none" opacity="1.000000" stroke="#000000" stroke-linecap="round" stroke-linejoin="round" stroke-width="10.000000"
	d="
M3394.000000,1821.000000 
	C3386.377930,1825.586792 3387.213135,1833.983765 3385.038330,1841.011841 
	C3384.756104,1841.924438 3384.564453,1843.413452 3385.063721,1843.939575 
	C3397.712646,1857.267700 3399.148682,1876.173218 3408.809326,1891.123291 
	C3421.797119,1911.221558 3436.898926,1929.611206 3452.090576,1947.924805 
	C3481.817139,1983.758789 3508.308838,2021.943970 3534.998291,2060.001221 
	C3565.898682,2104.062988 3595.934082,2148.726562 3624.820801,2194.114014 
	C3649.944336,2233.589111 3673.180908,2274.275635 3701.042725,2311.968262 
	C3711.954346,2326.729736 3722.723877,2341.502686 3731.173340,2357.910645 
	C3733.765869,2362.944580 3732.972900,2368.083984 3733.670898,2373.046387 
	C3734.582764,2379.529297 3726.497070,2383.864746 3716.011719,2385.099854 
	C3693.850586,2387.710938 3672.234375,2383.354248 3651.090332,2378.598145 
	C3623.352783,2372.358643 3595.661865,2365.503906 3568.914551,2355.222168 
	C3549.298584,2347.681641 3531.195801,2337.864258 3513.958740,2326.060059 
	C3505.947266,2320.573486 3498.387939,2314.086670 3488.944580,2311.179688 
	C3485.792969,2310.209717 3485.028320,2307.860596 3484.123047,2305.941895 
	C3462.298096,2259.683350 3440.919922,2213.212646 3418.927490,2167.034424 
	C3397.819336,2122.713623 3377.095215,2078.228516 3358.033691,2032.985840 
	C3352.928223,2020.868042 3351.490723,2008.062866 3352.000000,1995.000000 
"/>
<path fill="none" opacity="1.000000" stroke="#000000" stroke-linecap="round" stroke-linejoin="round" stroke-width="10.000000"
	d="
M3384.000000,1844.000000 
	C3370.088379,1849.624756 3362.423340,1862.531860 3352.252686,1872.263916 
	C3307.297363,1915.280151 3261.118164,1956.652344 3209.058350,1991.088379 
	C3193.051270,2001.676514 3193.355713,2002.428223 3200.985352,2023.005493 
	C3211.551270,2051.502686 3226.589600,2077.862793 3240.010986,2104.994629 
	C3267.717773,2161.004639 3297.086426,2216.155029 3327.162354,2270.910889 
	C3341.717041,2297.408691 3355.905518,2324.289795 3375.055420,2347.955322 
	C3386.523682,2362.128418 3397.880859,2376.294189 3413.902344,2386.158447 
	C3435.846924,2399.669922 3467.728760,2395.454346 3473.143799,2358.020752 
	C3475.288330,2343.195801 3476.631592,2328.078369 3482.546387,2314.019531 
	C3483.029297,2312.872070 3484.166748,2312.000000 3485.000000,2311.000000 
"/>
<path fill="none" opacity="1.000000" stroke="#000000" stroke-linecap="round" stroke-linejoin="round" stroke-width="8.000000"
	d="
M2847.000000,2999.500000 
	C2848.000000,2999.666748 2849.872803,2999.998779 2849.877197,2999.976562 
	C2852.356201,2986.911865 2862.769531,2989.329102 2870.976562,2990.216309 
	C2895.870361,2992.908447 2917.942627,2986.350098 2937.985840,2971.980225 
	C2959.470703,2956.576416 2972.177002,2934.173096 2984.868896,2911.925293 
	C2989.665283,2903.517334 2994.060791,2895.004883 2996.464355,2885.112793 
	C2999.449951,2872.824951 2995.354492,2861.657227 2994.814453,2850.008545 
	C2994.488037,2842.961914 2992.819092,2835.864746 2990.913818,2829.023926 
	C2983.702148,2803.132812 2965.584717,2785.628174 2945.033936,2769.955566 
	C2929.148438,2757.840576 2912.535889,2747.260742 2893.002441,2741.990967 
	C2868.010498,2735.249023 2843.466064,2738.841553 2818.996826,2744.987305 
	C2800.844238,2749.546387 2783.017822,2754.366455 2766.651611,2764.433838 
	C2761.867432,2767.376465 2755.823486,2771.613770 2749.000000,2771.500000 
"/>
<path fill="none" opacity="1.000000" stroke="#000000" stroke-linecap="round" stroke-linejoin="round" stroke-width="8.000000"
	d="
M2528.000000,2831.000000 
	C2526.333252,2830.333496 2524.288086,2828.677246 2523.056885,2829.148682 
	C2504.339111,2836.312500 2484.113525,2834.108398 2464.961670,2838.844971 
	C2437.100586,2845.735596 2418.414551,2863.531250 2406.238281,2888.118164 
	C2394.187744,2912.451416 2387.049805,2939.006836 2387.530518,2965.990479 
	C2388.106445,2998.296143 2398.859863,3027.766602 2421.880371,3052.113281 
	C2446.262939,3077.900879 2477.115967,3086.832520 2510.975098,3090.245850 
	C2524.350586,3091.593994 2537.640381,3091.839355 2551.000000,3092.008789 
	C2564.109619,3092.175293 2575.729248,3088.135986 2586.020020,3080.025391 
	C2589.916992,3076.954346 2593.666504,3073.476074 2599.000000,3073.000000 
"/>
<path fill="none" opacity="1.000000" stroke="#000000" stroke-linecap="round" stroke-linejoin="round" stroke-width="8.000000"
	d="
M1679.000000,977.000000 
	C1678.000000,964.000000 1678.253296,950.748657 1675.708252,938.058533 
	C1671.827026,918.706909 1662.377075,902.294189 1646.090942,889.880676 
	C1618.363892,868.746887 1589.101807,851.354248 1555.105957,841.629639 
	C1531.125000,834.769836 1510.255005,838.276306 1492.181885,854.206299 
	C1473.740234,870.461121 1455.629395,887.320557 1442.929199,908.958496 
	C1437.428955,918.329468 1435.504395,928.409180 1433.752563,938.958923 
	C1431.089966,954.993408 1432.321655,970.994019 1432.152466,987.001587 
	C1432.096436,992.315918 1429.560059,996.010315 1427.001221,999.997192 
	C1422.761230,1000.144287 1419.633179,998.469360 1416.946655,995.041809 
	C1398.140381,971.047180 1371.278076,965.107910 1343.019287,961.833374 
	C1334.337036,960.827393 1325.676025,960.508728 1317.015137,959.812073 
	C1304.366089,958.794617 1293.116211,963.098999 1283.199951,969.318787 
	C1271.255859,976.810669 1260.480713,986.323853 1251.014038,997.012451 
	C1241.921387,1007.278809 1238.755005,1019.984009 1239.263916,1032.989624 
	C1239.940552,1050.280273 1233.031616,1064.280640 1224.051514,1078.033569 
	C1213.438477,1094.286865 1206.979858,1112.422363 1202.204712,1131.052490 
	C1200.297241,1138.494141 1204.483276,1145.483032 1208.032593,1151.982178 
	C1224.588623,1182.298462 1248.822632,1205.184082 1278.050659,1222.916382 
	C1295.394165,1233.438354 1311.635864,1246.226196 1332.000000,1251.000000 
"/>
<path fill="none" opacity="1.000000" stroke="#000000" stroke-linecap="round" stroke-linejoin="round" stroke-width="8.000000"
	d="
M1448.000000,1714.000000 
	C1445.629395,1712.567993 1446.244629,1710.214722 1445.940796,1708.008179 
	C1443.258179,1688.526855 1426.621948,1680.225464 1413.848389,1669.175171 
	C1402.500854,1659.358276 1388.622681,1652.786377 1374.820312,1647.466187 
	C1364.738281,1643.580200 1353.037598,1645.553345 1341.993164,1646.946045 
	C1303.078003,1651.853516 1276.517334,1675.205933 1253.932861,1704.948975 
	C1242.903931,1719.473633 1233.369385,1734.880005 1225.071533,1751.036743 
	C1215.894409,1768.905518 1215.657349,1788.394165 1214.744019,1807.988037 
	C1213.473145,1835.249268 1231.545776,1848.486694 1249.787720,1863.262085 
	C1272.330200,1881.520752 1298.573120,1886.549683 1325.957031,1890.313110 
	C1335.147949,1891.576050 1346.133545,1889.599243 1353.000000,1899.000000 
"/>
<path fill="none" opacity="1.000000" stroke="#000000" stroke-linecap="round" stroke-linejoin="round" stroke-width="8.000000"
	d="
M948.000000,892.000000 
	C947.701904,899.412720 952.755127,904.400085 957.174377,908.825867 
	C967.528442,919.195374 975.214111,931.488403 984.062256,942.951965 
	C1028.954346,1001.113525 1071.820435,1060.802124 1117.791992,1118.166626 
	C1153.376221,1162.569580 1189.272095,1206.719360 1225.143066,1250.883789 
	C1251.076172,1282.812866 1278.313110,1313.683960 1305.020386,1344.982544 
	C1309.336670,1350.040894 1314.210205,1354.751587 1321.021240,1355.870483 
	C1326.121704,1356.708496 1327.990112,1361.215698 1329.695435,1364.175537 
	C1338.500122,1379.458618 1352.240967,1389.734253 1365.159912,1400.813599 
	C1367.209473,1402.571167 1369.753784,1405.604248 1374.040405,1404.116211 
	C1382.805908,1401.073364 1390.203857,1405.480957 1398.068359,1408.839844 
	C1419.442627,1417.968140 1441.622070,1425.433105 1465.003418,1425.729126 
	C1492.148071,1426.072754 1514.697021,1416.038086 1526.906738,1389.956299 
	C1536.469360,1369.529175 1547.007935,1349.313232 1548.078247,1326.003540 
	C1548.140747,1324.642456 1549.333374,1323.333374 1550.000000,1322.000000 
"/>
<path fill="none" opacity="1.000000" stroke="#000000" stroke-linecap="round" stroke-linejoin="round" stroke-width="8.000000"
	d="
M2850.000000,3001.000000 
	C2854.519287,3014.717041 2861.104736,3027.649170 2864.149658,3041.968262 
	C2868.308105,3061.523193 2864.768799,3080.372803 2859.833252,3098.955811 
	C2853.348877,3123.369385 2845.376465,3147.349854 2829.989990,3167.992676 
	C2811.549561,3192.732178 2786.932373,3205.640625 2755.999756,3205.968018 
	C2728.110107,3206.263428 2700.721191,3203.046631 2677.121826,3186.822754 
	C2654.453857,3171.239014 2635.711182,3151.441650 2620.973389,3128.016602 
	C2613.395264,3115.971436 2609.147949,3102.951416 2605.373779,3089.171631 
	C2601.816650,3076.183105 2599.897705,3064.950684 2606.791260,3052.880859 
	C2608.226807,3050.367432 2607.000000,3046.333252 2607.000000,3043.000000 
"/>
<path fill="none" opacity="1.000000" stroke="#000000" stroke-linecap="round" stroke-linejoin="round" stroke-width="8.000000"
	d="
M953.500000,699.000000 
	C953.211975,717.051941 955.086182,735.053711 956.399719,752.970703 
	C958.843628,786.306030 960.568787,819.604919 959.865112,852.997131 
	C959.636292,863.853027 958.096069,874.824951 953.855103,884.939209 
	C950.875244,892.045837 945.768250,893.397522 941.179565,887.851440 
	C927.840576,871.729858 911.194397,857.776428 903.376160,837.852417 
	C900.121643,829.558533 898.001404,820.572876 895.190186,811.938110 
	C893.458496,806.619385 898.576294,801.966248 898.274475,795.986145 
	C897.472900,780.104065 892.976990,764.855103 891.694275,749.024780 
	C889.990417,727.996643 887.430054,707.364502 889.494141,685.951233 
	C892.207092,657.806152 897.156738,630.281250 904.068176,603.017273 
	C909.581421,581.268921 917.263550,560.252380 926.953491,539.977783 
	C929.608765,534.422119 933.241028,529.808472 937.968323,525.563232 
	C945.898193,528.768494 948.661499,536.678406 953.942017,542.056946 
	C992.915222,581.752991 1018.659180,629.017578 1035.227905,681.928650 
	C1043.968872,709.842224 1048.036621,738.124573 1045.782227,766.982971 
	C1042.259644,812.075623 1026.805054,853.076904 998.898987,888.921326 
	C990.177612,900.123596 983.382996,912.949707 972.000000,922.000000 
"/>
<path fill="none" opacity="1.000000" stroke="#000000" stroke-linecap="round" stroke-linejoin="round" stroke-width="9.000000"
	d="
M3829.000000,2149.000000 
	C3826.665283,2130.300293 3835.139404,2113.979248 3842.377197,2098.172852 
	C3858.597412,2062.749023 3877.449707,2028.645142 3907.016113,2002.017944 
	C3922.612549,1987.971802 3940.602539,1977.728638 3960.036865,1970.093628 
	C3968.545410,1966.750977 3978.178955,1969.317017 3981.975098,1975.016602 
	C3983.557373,1977.392212 3984.494873,1980.039185 3984.002197,1983.000366 
	C3983.451660,1986.311279 3983.645264,1989.669312 3983.243896,1993.029175 
	C3980.993408,2011.870361 3986.866699,2018.000000 4006.000000,2018.000000 
	C4015.666748,2018.000000 4025.333252,2018.000000 4035.000000,2018.000000 
	C4052.659180,2018.000000 4059.530273,2024.871094 4060.000000,2043.000000 
	C4061.107666,2085.758545 4035.644531,2125.727295 3994.935059,2142.845459 
	C3962.856201,2156.334717 3930.363037,2168.939697 3896.973633,2178.911865 
	C3876.765381,2184.947266 3857.507568,2183.022949 3839.936768,2170.085938 
	C3833.920654,2165.656006 3830.308350,2160.309570 3828.881104,2153.023193 
	C3828.249512,2149.799316 3829.074951,2148.889648 3832.000000,2149.000000 
"/>
<path fill="none" opacity="1.000000" stroke="#000000" stroke-linecap="round" stroke-linejoin="round" stroke-width="8.000000"
	d="
M1767.000000,1218.000000 
	C1772.195923,1242.200317 1782.515381,1264.864624 1788.168701,1288.960449 
	C1790.354126,1298.275024 1793.166992,1307.474487 1793.916016,1317.006592 
	C1795.791260,1340.871216 1784.076660,1360.052124 1768.636597,1375.640137 
	C1746.574707,1397.913330 1720.517212,1414.698364 1689.055542,1422.232056 
	C1666.346313,1427.669922 1646.893066,1420.341064 1628.071777,1409.870972 
	C1601.568604,1395.127319 1578.221558,1376.481689 1560.979980,1351.013550 
	C1557.847412,1346.386230 1553.977661,1342.624756 1548.000000,1342.000000 
"/>
<path fill="none" opacity="1.000000" stroke="#000000" stroke-linecap="round" stroke-linejoin="round" stroke-width="8.000000"
	d="
M2129.000000,2720.000000 
	C2126.285645,2726.689209 2129.310791,2732.692139 2130.891846,2739.027100 
	C2135.385010,2757.032959 2135.672363,2774.582520 2127.218750,2792.105469 
	C2119.361572,2808.392822 2112.983643,2825.552979 2101.842285,2839.877197 
	C2085.269775,2861.184326 2062.248535,2871.938965 2035.991455,2875.944092 
	C2007.052002,2880.358887 1978.546021,2878.965820 1951.002563,2867.993652 
	C1928.211670,2858.914795 1909.609375,2844.390381 1896.146118,2823.904053 
	C1890.545898,2815.382324 1889.129395,2804.813477 1888.424683,2794.969482 
	C1887.849731,2786.937500 1884.942871,2779.223877 1885.862671,2770.984619 
	C1886.532471,2764.983887 1888.924561,2762.206787 1895.000000,2763.000000 
"/>
<path fill="none" opacity="1.000000" stroke="#000000" stroke-linecap="round" stroke-linejoin="round" stroke-width="9.000000"
	d="
M1733.000000,1201.500000 
	C1739.292847,1203.080933 1744.481201,1207.012207 1749.896484,1210.177124 
	C1760.579590,1216.420654 1771.798706,1215.952515 1782.976562,1213.874268 
	C1811.238037,1208.619751 1834.083252,1181.221680 1838.371094,1152.054565 
	C1841.206665,1132.766602 1838.541626,1113.994629 1837.937378,1095.001953 
	C1837.570679,1083.478027 1829.134033,1076.764282 1820.851685,1071.221558 
	C1809.012817,1063.299072 1804.316162,1052.499146 1801.541382,1039.094971 
	C1800.017212,1031.731689 1800.197998,1024.306274 1798.344849,1016.913574 
	C1792.111328,992.047180 1776.911987,980.243835 1752.049561,977.544067 
	C1729.077271,975.049683 1706.666260,978.654175 1684.000488,979.028625 
	C1663.465820,979.367920 1649.018799,989.162720 1641.160645,1008.066772 
	C1639.691040,1011.601990 1638.369385,1012.680847 1635.000000,1011.500000 
"/>
<path fill="none" opacity="1.000000" stroke="#000000" stroke-linecap="round" stroke-linejoin="round" stroke-width="8.000000"
	d="
M1595.000000,2735.000000 
	C1601.479980,2734.038330 1602.954834,2736.973633 1602.094238,2743.013428 
	C1600.015137,2757.603760 1594.634155,2771.256348 1589.795288,2784.927490 
	C1574.638672,2827.749023 1547.361328,2861.180664 1507.920532,2883.861816 
	C1478.861694,2900.572510 1447.027344,2904.516602 1413.996582,2901.032471 
	C1381.414185,2897.595947 1349.037354,2892.937012 1316.994385,2886.025879 
	C1302.526611,2882.905518 1297.758179,2880.038574 1304.027222,2863.010010 
	C1310.081055,2846.566650 1320.905640,2832.841309 1331.265503,2819.201660 
	C1344.383179,2801.931152 1358.258789,2785.168457 1373.872925,2769.870361 
	C1392.633179,2751.489258 1415.034180,2739.680420 1438.973145,2729.934082 
	C1465.406860,2719.171631 1492.261353,2709.713135 1520.027222,2703.114746 
	C1532.106079,2700.244385 1544.574219,2699.478027 1557.000000,2699.000000 
"/>
<path fill="none" opacity="1.000000" stroke="#000000" stroke-linecap="round" stroke-linejoin="round" stroke-width="9.000000"
	d="
M2497.000000,2720.000000 
	C2491.447510,2718.362061 2485.775635,2717.961914 2480.000000,2717.966309 
	C2413.666748,2718.019287 2347.329102,2717.557129 2281.001709,2718.183838 
	C2246.954834,2718.505371 2212.858643,2719.367188 2178.986084,2723.896729 
	C2167.908203,2725.378174 2156.893555,2722.823730 2146.049316,2720.743164 
	C2143.814209,2720.314453 2140.550293,2719.096680 2139.052734,2719.333740 
	C2125.807617,2721.429688 2121.765869,2711.914795 2116.985107,2703.008057 
	C2110.233398,2690.429199 2102.776367,2678.291016 2094.000000,2667.000000 
"/>
<path fill="none" opacity="1.000000" stroke="#000000" stroke-linecap="round" stroke-linejoin="round" stroke-width="9.000000"
	d="
M3604.000000,469.000000 
	C3593.221680,461.007141 3593.637207,448.111420 3590.016357,436.994659 
	C3587.180176,428.286621 3585.928223,418.938751 3579.020752,411.979462 
	C3572.040283,404.946808 3565.663330,403.643982 3557.052490,409.083008 
	C3540.933594,419.264557 3529.157959,433.789215 3517.919922,448.940674 
	C3499.994141,473.109467 3493.923828,500.670624 3492.962646,529.998779 
	C3491.624512,570.802612 3500.225830,610.072571 3511.136719,648.961609 
	C3512.849609,655.066528 3514.792236,661.502197 3520.000000,666.000000 
"/>
<path fill="none" opacity="1.000000" stroke="#000000" stroke-linecap="round" stroke-linejoin="round" stroke-width="8.000000"
	d="
M2756.000000,2767.000000 
	C2751.175293,2758.985107 2750.462402,2750.217285 2749.738281,2741.020508 
	C2748.103760,2720.262695 2745.413086,2699.580566 2742.654053,2678.912598 
	C2739.956787,2658.702393 2729.612305,2645.137451 2713.755127,2636.447021 
	C2695.021240,2626.180420 2674.047363,2620.271484 2652.973389,2616.135742 
	C2626.242676,2610.890137 2599.713379,2614.144043 2574.054688,2622.174561 
	C2536.306396,2633.988770 2504.500244,2669.371094 2501.922119,2709.995117 
	C2499.392822,2749.845703 2501.752441,2768.197021 2513.793945,2804.069092 
	C2516.681396,2812.670166 2523.418213,2819.566162 2524.000000,2829.000000 
"/>
<path fill="none" opacity="1.000000" stroke="#000000" stroke-linecap="round" stroke-linejoin="round" stroke-width="8.000000"
	d="
M1365.000000,1897.500000 
	C1356.697144,1896.731934 1352.906006,1902.274048 1347.699097,1907.711792 
	C1335.442871,1920.510864 1323.460449,1933.145630 1314.843872,1948.914673 
	C1306.232666,1964.673462 1302.487915,1981.694214 1300.264160,1999.033936 
	C1299.040649,2008.574585 1298.174561,2018.265503 1297.719238,2027.986816 
	C1296.214844,2060.104736 1309.032959,2085.283447 1334.196167,2103.732422 
	C1349.781372,2115.159180 1366.183472,2125.734863 1384.936401,2132.184814 
	C1402.993042,2138.395264 1421.188721,2137.063965 1438.948242,2133.724854 
	C1489.855713,2124.153809 1528.423462,2095.615723 1556.924438,2052.949463 
	C1561.135132,2046.646240 1564.748657,2039.855469 1567.887085,2032.948730 
	C1571.234497,2025.581299 1575.619507,2027.020142 1579.890259,2031.114502 
	C1583.111572,2034.202637 1585.583984,2038.178345 1587.960815,2042.024170 
	C1609.121948,2076.263428 1641.262939,2088.999268 1679.965576,2092.392334 
	C1719.629639,2095.869385 1743.458862,2074.878662 1762.894165,2044.931274 
	C1766.669312,2039.114136 1771.035889,2034.569580 1776.933105,2030.892822 
	C1790.553711,2022.401123 1800.349854,2011.104736 1805.298828,1995.092407 
	C1809.595825,1981.189819 1812.319824,1966.994751 1815.888916,1952.971680 
	C1817.416138,1946.970947 1815.674927,1940.653564 1813.794312,1935.069214 
	C1809.173218,1921.347046 1805.282837,1907.165283 1796.895508,1895.072510 
	C1793.601196,1890.322998 1792.705200,1885.434204 1793.000000,1880.000000 
"/>
<path fill="none" opacity="1.000000" stroke="#000000" stroke-linecap="round" stroke-linejoin="round" stroke-width="9.000000"
	d="
M1277.000000,504.000000 
	C1288.795776,487.655945 1290.105347,468.957001 1287.859253,450.016693 
	C1283.126465,410.106079 1272.743042,371.508667 1255.734375,335.124176 
	C1245.549316,313.336700 1230.784058,294.809845 1208.099243,283.795502 
	C1200.667847,280.187195 1193.375244,276.181061 1186.160400,281.229218 
	C1177.288330,287.436768 1170.556885,295.542694 1171.825317,308.017761 
	C1172.589355,315.530670 1173.384155,322.777802 1175.816162,330.061401 
	C1179.672485,341.611389 1172.265137,349.153107 1160.047607,345.825256 
	C1146.740234,342.200562 1133.224487,338.953857 1120.954834,332.080658 
	C1112.959717,327.601990 1105.327759,330.419250 1104.212280,339.027527 
	C1101.278809,361.664886 1103.695923,384.231232 1110.349365,405.892670 
	C1113.646240,416.626221 1123.442017,424.171967 1132.172119,430.772339 
	C1164.884766,455.504913 1198.879639,478.376404 1234.931885,498.124359 
	C1248.142090,505.360413 1261.698364,506.339264 1276.000000,504.000000 
"/>
<path fill="none" opacity="1.000000" stroke="#000000" stroke-linecap="round" stroke-linejoin="round" stroke-width="8.000000"
	d="
M2496.000000,2096.000000 
	C2496.262695,2097.619629 2494.873535,2098.576172 2493.967773,2098.913818 
	C2476.296143,2105.505615 2471.955322,2121.370605 2468.159424,2137.038574 
	C2464.041016,2154.038330 2464.175537,2171.686035 2462.123779,2189.014648 
	C2461.225342,2196.604004 2465.214355,2200.552490 2472.920410,2203.229248 
	C2519.359619,2219.360596 2565.427490,2236.534912 2610.996338,2255.009033 
	C2651.817627,2271.558594 2691.996094,2289.585693 2731.956299,2308.094482 
	C2737.052490,2310.455078 2737.350586,2315.803467 2738.150391,2320.976807 
	C2740.322266,2335.027100 2744.253174,2348.540527 2756.035156,2357.956055 
	C2764.197021,2364.478516 2765.975830,2363.173096 2772.204102,2354.140625 
	C2779.024658,2344.249512 2783.423096,2334.340576 2784.483643,2322.041748 
	C2785.170410,2314.081787 2790.338135,2306.357910 2796.038086,2300.034424 
	C2810.449707,2284.046143 2822.775879,2265.856201 2842.922607,2255.843994 
	C2845.427979,2254.599121 2848.000977,2252.191406 2849.000000,2249.000000 
"/>
<path fill="none" opacity="1.000000" stroke="#000000" stroke-linecap="round" stroke-linejoin="round" stroke-width="9.000000"
	d="
M1691.000000,366.000000 
	C1685.290405,362.622894 1683.662109,357.756409 1682.667236,351.049347 
	C1679.606934,330.415863 1676.286621,309.753601 1675.292480,288.985992 
	C1674.125000,264.600647 1678.607056,240.635666 1688.178101,218.075546 
	C1693.167969,206.313675 1700.491821,195.557419 1705.799805,183.908768 
	C1708.601562,177.760590 1712.151001,173.081818 1718.417114,169.582733 
	C1725.145996,174.326691 1727.782715,180.868317 1728.087402,188.996719 
	C1728.419556,197.860519 1728.622070,206.829163 1732.980347,215.010468 
	C1737.961426,224.360962 1744.611450,223.171524 1749.929199,219.885376 
	C1755.577393,216.395050 1760.548584,211.827911 1766.040527,208.058990 
	C1769.860107,205.437729 1774.560059,203.190308 1778.900391,205.213684 
	C1783.450195,207.334717 1782.817627,212.535751 1783.050415,216.997375 
	C1783.984375,234.896149 1775.570190,250.108505 1767.703125,264.841492 
	C1752.893921,292.575378 1739.357056,321.169586 1718.219849,345.193451 
	C1711.588013,352.731079 1704.364868,358.819672 1696.055054,364.086823 
	C1693.252075,365.863464 1688.689575,366.850525 1690.000000,372.000000 
"/>
<path fill="none" opacity="1.000000" stroke="#000000" stroke-linecap="round" stroke-linejoin="round" stroke-width="9.000000"
	d="
M1241.000000,2173.000000 
	C1233.205811,2190.012695 1228.598877,2208.275635 1220.073364,2225.037354 
	C1202.530762,2259.527832 1175.773682,2282.262207 1138.023804,2292.091553 
	C1111.699707,2298.945068 1085.224365,2302.828857 1057.998047,2300.019043 
	C1046.504028,2298.832764 1043.243042,2292.550049 1050.084229,2283.060791 
	C1061.778687,2266.840332 1074.028198,2251.020996 1085.986206,2234.989746 
	C1090.745972,2228.608154 1095.581055,2222.220947 1098.937622,2214.971191 
	C1102.040771,2208.268311 1099.905762,2202.889404 1092.978027,2200.053711 
	C1079.526733,2194.547852 1065.044922,2193.142334 1050.996704,2190.014893 
	C1043.254639,2188.291504 1035.589722,2186.340332 1027.954956,2184.157715 
	C1022.331177,2182.549805 1018.392578,2179.358887 1015.000000,2175.000000 
"/>
<path fill="none" opacity="1.000000" stroke="#000000" stroke-linecap="round" stroke-linejoin="round" stroke-width="8.000000"
	d="
M1778.000000,2551.000000 
	C1771.634888,2558.938721 1761.928833,2555.505615 1753.923218,2557.722656 
	C1714.928589,2568.520264 1683.534790,2588.343262 1667.052734,2627.022461 
	C1663.112183,2636.270020 1664.283813,2646.235840 1663.923462,2655.997070 
	C1663.261719,2673.918701 1672.791016,2690.818359 1669.000000,2709.000000 
	C1676.950928,2719.300537 1678.972656,2732.375000 1686.594482,2743.283203 
	C1709.166016,2775.587646 1738.249512,2798.664795 1776.092529,2808.649414 
	C1810.377563,2817.695557 1842.756226,2812.921631 1869.007324,2786.007080 
	C1873.445190,2781.457275 1877.686035,2776.478760 1885.000000,2777.000000 
"/>
<path fill="none" opacity="1.000000" stroke="#000000" stroke-linecap="round" stroke-linejoin="round" stroke-width="9.000000"
	d="
M3663.000000,434.000000 
	C3669.274902,443.569336 3665.431885,452.659241 3662.064697,462.023224 
	C3649.196533,497.810883 3635.495361,533.236328 3620.229980,568.100708 
	C3612.502441,585.748779 3600.860840,599.601074 3585.928955,610.906128 
	C3568.231201,624.305359 3550.000000,637.000000 3532.000000,650.000000 
"/>
<path fill="none" opacity="1.000000" stroke="#000000" stroke-linecap="round" stroke-linejoin="round" stroke-width="9.000000"
	d="
M1255.000000,2173.000000 
	C1241.274780,2175.776855 1231.954590,2165.691406 1221.111328,2160.755371 
	C1187.325073,2145.374756 1152.300659,2142.133545 1115.995361,2146.965332 
	C1086.456177,2150.896484 1057.622681,2157.908447 1028.957642,2165.847168 
	C1025.590698,2166.779541 1022.535767,2167.537842 1019.985046,2169.984375 
	C1015.085754,2174.683105 1009.167603,2174.766357 1003.000000,2173.500000 
"/>
<path fill="none" opacity="1.000000" stroke="#000000" stroke-linecap="round" stroke-linejoin="round" stroke-width="8.000000"
	d="
M1372.000000,1406.000000 
	C1373.799561,1421.299316 1387.244141,1427.267578 1397.250122,1434.661621 
	C1440.005371,1466.256104 1483.438965,1496.968140 1528.082886,1525.871948 
	C1541.210571,1534.371094 1555.165405,1541.658081 1569.076050,1548.852905 
	C1575.331543,1552.088135 1580.501465,1555.126953 1584.434814,1561.741455 
	C1587.878540,1567.532593 1596.052368,1567.311646 1602.977661,1568.178467 
	C1636.223877,1572.339355 1668.894775,1579.340332 1692.771851,1605.210571 
	C1709.590332,1623.433105 1722.653320,1644.714111 1725.770264,1670.028320 
	C1728.063965,1688.657349 1724.286255,1707.130005 1718.853516,1724.955322 
	C1713.971436,1740.974243 1706.606445,1756.037109 1699.251709,1771.122803 
	C1694.263672,1781.354492 1688.177856,1790.193237 1680.191284,1798.191040 
	C1677.372070,1801.014282 1674.397705,1805.054565 1675.000000,1810.000000 
"/>
<path fill="none" opacity="1.000000" stroke="#000000" stroke-linecap="round" stroke-linejoin="round" stroke-width="4.000000"
	d="
M3033.000000,2088.000000 
	C3034.566895,2093.814697 3033.287598,2098.552734 3030.250244,2104.136230 
	C3012.300293,2137.136719 2993.516846,2169.720947 2977.991699,2203.996338 
	C2969.613525,2222.493652 2975.357910,2239.158203 2985.172363,2254.892334 
	C2988.621826,2260.423096 2991.714844,2266.027100 2993.911133,2272.032471 
	C2998.958496,2285.833740 2997.154785,2290.094971 2984.000000,2298.000000 
"/>
<path fill="none" opacity="1.000000" stroke="#000000" stroke-linecap="round" stroke-linejoin="round" stroke-width="4.000000"
	d="
M2955.000000,2107.000000 
	C2957.902344,2118.515625 2954.406982,2128.697266 2947.943359,2137.960449 
	C2938.940918,2150.862305 2930.031006,2163.830078 2920.051514,2176.042236 
	C2906.005371,2193.230957 2886.537109,2197.463867 2866.014648,2200.113037 
	C2850.589355,2202.104980 2834.792236,2202.288086 2820.009277,2208.024170 
	C2813.155273,2210.683838 2805.914307,2212.871338 2802.000000,2220.000000 
"/>
<path fill="none" opacity="1.000000" stroke="#000000" stroke-linecap="round" stroke-linejoin="round" stroke-width="8.000000"
	d="
M1439.000000,2805.000000 
	C1443.428101,2804.950928 1447.005005,2804.196289 1451.183105,2801.260742 
	C1488.805542,2774.829590 1528.298218,2751.524902 1569.947388,2731.888428 
	C1582.815918,2725.821533 1582.703979,2724.249756 1574.014282,2711.989746 
	C1571.275391,2708.125732 1570.564209,2702.973145 1570.398804,2698.983398 
	C1569.776245,2683.961670 1562.179810,2678.094727 1548.105225,2674.578613 
	C1527.541382,2669.441650 1506.996948,2664.198730 1485.976196,2662.257812 
	C1460.758667,2659.928955 1435.375610,2659.258789 1409.998779,2659.953369 
	C1399.673096,2660.236328 1389.333374,2660.000000 1379.000000,2660.000000 
"/>
<path fill="none" opacity="1.000000" stroke="#000000" stroke-linecap="round" stroke-linejoin="round" stroke-width="8.000000"
	d="
M2564.000000,644.000000 
	C2583.892578,642.990967 2597.404785,650.547546 2604.621582,666.174744 
	C2611.819092,681.759521 2607.578857,696.816772 2595.000000,709.000000 
"/>
<path fill="none" opacity="1.000000" stroke="#000000" stroke-linecap="round" stroke-linejoin="round" stroke-width="8.000000"
	d="
M1583.000000,1564.000000 
	C1568.994263,1571.377319 1553.335571,1574.233032 1538.778564,1580.484497 
	C1517.317017,1589.701294 1499.227905,1603.130005 1482.173706,1618.196655 
	C1471.620605,1627.519897 1460.786377,1636.720581 1451.874146,1647.899658 
	C1446.795288,1654.270142 1443.529175,1660.845947 1444.028564,1668.998291 
	C1444.453003,1675.926636 1443.328369,1682.367065 1439.000000,1688.000000 
"/>
<path fill="none" opacity="1.000000" stroke="#000000" stroke-linecap="round" stroke-linejoin="round" stroke-width="4.000000"
	d="
M3026.000000,818.000000 
	C3037.087402,807.248779 3041.709473,794.656372 3034.882568,780.054932 
	C3027.302490,763.842590 3012.758789,757.769104 2995.991943,756.080261 
	C2990.185547,755.495422 2984.310547,755.981934 2979.000000,759.000000 
"/>
<path fill="none" opacity="1.000000" stroke="#000000" stroke-linecap="round" stroke-linejoin="round" stroke-width="6.000000"
	d="
M2817.000000,2894.000000 
	C2803.484619,2895.425781 2790.037109,2892.806641 2777.086426,2890.511719 
	C2751.504639,2885.978271 2726.084473,2880.056152 2700.992188,2873.028320 
	C2696.195068,2871.684570 2691.331787,2870.604004 2687.000000,2868.000000 
"/>
<path fill="none" opacity="1.000000" stroke="#000000" stroke-linecap="round" stroke-linejoin="round" stroke-width="4.000000"
	d="
M2430.000000,2065.000000 
	C2424.848877,2071.497559 2417.566895,2075.286865 2411.014648,2080.020264 
	C2391.928711,2093.807373 2385.934326,2114.766602 2379.831055,2135.951416 
	C2375.548828,2150.815674 2376.843018,2166.019531 2375.000000,2181.000000 
"/>
<path fill="none" opacity="1.000000" stroke="#000000" stroke-linecap="round" stroke-linejoin="round" stroke-width="6.000000"
	d="
M1932.000000,2629.000000 
	C1923.447510,2648.215332 1920.775757,2668.165771 1923.923462,2689.011475 
	C1925.372803,2698.610352 1926.457764,2708.313477 1926.875732,2718.005371 
	C1927.324829,2728.421631 1929.159912,2738.651123 1930.000000,2749.000000 
"/>
<path fill="none" opacity="1.000000" stroke="#000000" stroke-linecap="round" stroke-linejoin="round" stroke-width="6.000000"
	d="
M2680.000000,2896.000000 
	C2679.077393,2913.771729 2681.564453,2930.804932 2686.447754,2948.155518 
	C2691.027832,2964.429199 2690.997559,2982.000244 2693.001465,2998.999756 
	C2693.826660,3006.000732 2694.666504,3013.000000 2695.499756,3020.000000 
"/>
<path fill="none" opacity="1.000000" stroke="#000000" stroke-linecap="round" stroke-linejoin="round" stroke-width="8.000000"
	d="
M2920.000000,2280.000000 
	C2915.427246,2288.501221 2907.513916,2294.276367 2902.014404,2302.010254 
	C2888.610840,2320.859131 2881.176025,2341.711182 2880.931885,2364.999268 
	C2880.907715,2367.309570 2880.526855,2369.746338 2880.273682,2372.030273 
	C2879.017334,2383.365967 2879.596680,2392.526367 2892.728760,2399.510010 
	C2920.945557,2414.515137 2947.640869,2432.375732 2975.021484,2448.964600 
	C2980.487549,2452.276123 2986.674805,2453.129883 2993.000000,2453.000000 
"/>
<path fill="none" opacity="1.000000" stroke="#000000" stroke-linecap="round" stroke-linejoin="round" stroke-width="5.000000"
	d="
M2371.000000,2039.000000 
	C2369.251465,2044.107422 2364.950684,2046.901978 2360.996338,2049.995361 
	C2348.518555,2059.756592 2341.262207,2072.835449 2338.114990,2088.023926 
	C2334.758057,2104.222168 2329.988281,2120.201172 2329.849609,2136.998779 
	C2329.821045,2140.447754 2329.744629,2144.631104 2326.000000,2147.000000 
"/>
<path fill="none" opacity="1.000000" stroke="#000000" stroke-linecap="round" stroke-linejoin="round" stroke-width="5.000000"
	d="
M2657.000000,2907.000000 
	C2657.787354,2919.197754 2649.925781,2928.497070 2645.732422,2938.892090 
	C2637.649658,2958.928711 2627.721191,2978.213135 2619.174561,2998.075195 
	C2616.690186,3003.848633 2611.173340,3007.639160 2610.000000,3014.000000 
"/>
<path fill="none" opacity="1.000000" stroke="#000000" stroke-linecap="round" stroke-linejoin="round" stroke-width="5.000000"
	d="
M2788.000000,2973.500000 
	C2764.796143,2958.645264 2743.625244,2941.178955 2722.985352,2923.016602 
	C2713.404297,2914.585938 2703.682373,2906.315186 2693.994385,2898.006592 
	C2688.300293,2893.123535 2681.285889,2896.135254 2675.029053,2894.857910 
	C2667.142090,2893.247559 2661.372070,2894.276855 2658.908447,2902.974121 
	C2658.572021,2904.162109 2657.157959,2905.601074 2655.976807,2905.911621 
	C2629.768311,2912.799072 2611.055908,2932.672607 2588.039307,2945.072754 
	C2582.772217,2947.910400 2578.000000,2951.666504 2573.000000,2954.999756 
"/>
<path fill="none" opacity="1.000000" stroke="#000000" stroke-linecap="round" stroke-linejoin="round" stroke-width="4.000000"
	d="
M2459.000000,2077.000000 
	C2456.657471,2078.756592 2457.309082,2082.036133 2455.053711,2084.059814 
	C2433.084717,2103.775391 2425.636963,2130.079102 2422.078369,2158.010010 
	C2421.370361,2163.565918 2418.075195,2168.856689 2418.323486,2173.984375 
	C2419.013184,2188.218506 2423.712646,2201.177979 2436.012451,2209.982666 
	C2445.265137,2216.606201 2451.102295,2215.697021 2458.036377,2207.029053 
	C2459.792480,2204.833984 2462.000000,2203.000000 2464.000000,2201.000000 
"/>
<path fill="none" opacity="1.000000" stroke="#000000" stroke-linecap="round" stroke-linejoin="round" stroke-width="6.000000"
	d="
M1527.000000,1741.000000 
	C1526.096191,1747.214722 1521.052734,1751.586670 1519.238037,1757.078613 
	C1512.372437,1777.856445 1511.431030,1799.338745 1514.008789,1820.998901 
	C1514.842773,1828.005737 1516.592407,1834.848389 1514.141968,1842.048340 
	C1512.204224,1847.741577 1515.969727,1850.765259 1521.997803,1848.992432 
	C1537.004883,1844.578369 1551.920288,1847.862427 1567.018433,1848.644287 
	C1590.500854,1849.860474 1612.818970,1857.189941 1636.000000,1859.500000 
"/>
<path fill="none" opacity="1.000000" stroke="#000000" stroke-linecap="round" stroke-linejoin="round" stroke-width="6.000000"
	d="
M2037.000000,2649.000000 
	C2020.167480,2647.038086 2004.302612,2640.941895 1988.132568,2636.515869 
	C1974.759644,2632.854980 1960.617554,2625.568848 1948.073853,2626.288086 
	C1933.744263,2627.109863 1920.939697,2621.448975 1906.970825,2622.663818 
	C1892.545166,2623.918213 1878.588501,2625.943359 1864.962158,2630.895996 
	C1857.842773,2633.484131 1851.982300,2637.413086 1846.939575,2642.944824 
	C1845.359009,2644.678711 1844.614868,2648.088867 1841.000000,2647.000000 
"/>
<path fill="none" opacity="1.000000" stroke="#000000" stroke-linecap="round" stroke-linejoin="round" stroke-width="6.000000"
	d="
M2037.000000,2597.000000 
	C2009.482300,2597.505371 1982.945801,2604.646729 1956.025146,2609.149902 
	C1953.394409,2609.589844 1950.871704,2610.907227 1948.002930,2611.056885 
	C1938.487061,2611.552979 1932.088867,2615.811768 1931.000000,2626.000000 
"/>
<path fill="none" opacity="1.000000" stroke="#000000" stroke-linecap="round" stroke-linejoin="round" stroke-width="4.000000"
	d="
M2884.000000,2263.000000 
	C2882.619141,2267.991455 2878.874512,2270.855225 2875.090820,2274.105713 
	C2850.576172,2295.166992 2833.601562,2320.945312 2826.975830,2352.995117 
	C2825.720459,2359.067871 2813.411865,2367.884521 2805.000000,2369.000244 
	C2797.803955,2369.954346 2791.314941,2365.291992 2786.885254,2357.061768 
	C2784.597412,2352.811279 2784.336426,2347.716553 2781.000000,2344.000000 
"/>
<path fill="none" opacity="1.000000" stroke="#000000" stroke-linecap="round" stroke-linejoin="round" stroke-width="6.000000"
	d="
M2682.000000,2908.000000 
	C2690.598145,2911.492676 2692.903564,2919.900391 2697.047607,2926.972168 
	C2711.183594,2951.094238 2721.423584,2977.119873 2734.000000,3002.000000 
"/>
<path fill="none" opacity="1.000000" stroke="#000000" stroke-linecap="round" stroke-linejoin="round" stroke-width="6.000000"
	d="
M1526.000000,1145.000000 
	C1525.532593,1151.022095 1523.078369,1156.758057 1523.849731,1163.018555 
	C1524.122803,1165.236084 1523.428833,1168.724365 1521.883423,1169.838013 
	C1504.606445,1182.288574 1499.285278,1203.083496 1487.265137,1219.197754 
	C1478.572876,1230.850708 1472.489990,1244.429321 1464.846924,1256.906250 
	C1463.562134,1259.003418 1462.866211,1260.733154 1463.000000,1263.000000 
"/>
<path fill="none" opacity="1.000000" stroke="#000000" stroke-linecap="round" stroke-linejoin="round" stroke-width="6.000000"
	d="
M2677.000000,2881.000000 
	C2671.539062,2879.628906 2667.666260,2876.003906 2663.986328,2872.012451 
	C2648.951172,2855.703125 2630.871338,2844.656006 2609.011963,2839.944824 
	C2600.344727,2838.077148 2591.708984,2838.235840 2583.000000,2839.000000 
"/>
<path fill="none" opacity="1.000000" stroke="#000000" stroke-linecap="round" stroke-linejoin="round" stroke-width="6.000000"
	d="
M1629.000000,1067.000000 
	C1625.311523,1065.961914 1623.966431,1069.110229 1622.017700,1071.018066 
	C1596.921875,1095.587524 1572.819702,1121.161743 1547.044678,1145.048218 
	C1543.541626,1148.294434 1540.145508,1151.585327 1536.000000,1154.000000 
"/>
<path fill="none" opacity="1.000000" stroke="#000000" stroke-linecap="round" stroke-linejoin="round" stroke-width="6.000000"
	d="
M1527.000000,1149.000000 
	C1535.321655,1150.251465 1539.944702,1157.648193 1542.471313,1163.238892 
	C1549.607056,1179.028564 1562.338623,1190.579834 1570.906006,1205.055664 
	C1581.691772,1223.279541 1591.725220,1241.944824 1601.000000,1261.000000 
"/>
<path fill="none" opacity="1.000000" stroke="#000000" stroke-linecap="round" stroke-linejoin="round" stroke-width="6.000000"
	d="
M1413.000000,1845.000000 
	C1415.011353,1848.287964 1418.266113,1846.937622 1421.000244,1846.947021 
	C1446.666504,1847.036255 1472.335815,1846.820190 1497.997925,1847.160889 
	C1502.788208,1847.224487 1507.071777,1842.671631 1512.000000,1846.000000 
"/>
<path fill="none" opacity="1.000000" stroke="#000000" stroke-linecap="round" stroke-linejoin="round" stroke-width="6.000000"
	d="
M1607.000000,1762.000000 
	C1604.169312,1761.839600 1602.207397,1762.602661 1599.868286,1764.863770 
	C1577.266602,1786.710815 1556.196533,1809.948120 1536.034302,1834.028687 
	C1533.409058,1837.164062 1531.659790,1840.875610 1531.000000,1845.000000 
"/>
<path fill="none" opacity="1.000000" stroke="#000000" stroke-linecap="round" stroke-linejoin="round" stroke-width="9.000000"
	d="
M1668.000000,2710.000000 
	C1659.000000,2710.000000 1649.749512,2711.348145 1641.049805,2709.731934 
	C1620.072632,2705.834717 1600.225098,2708.024902 1581.000000,2717.000000 
"/>
<path fill="none" opacity="1.000000" stroke="#000000" stroke-linecap="round" stroke-linejoin="round" stroke-width="4.000000"
	d="
M2788.000000,2222.000000 
	C2780.939209,2232.444092 2770.232178,2239.788574 2763.924072,2250.957031 
	C2755.258301,2266.300049 2744.078369,2280.234375 2739.662598,2297.915771 
	C2738.857910,2301.137451 2736.852051,2305.177979 2734.000000,2308.000000 
"/>
<path fill="none" opacity="1.000000" stroke="#000000" stroke-linecap="round" stroke-linejoin="round" stroke-width="6.000000"
	d="
M1540.000000,1058.000000 
	C1538.333374,1073.333374 1537.848022,1088.918579 1534.647461,1103.924805 
	C1531.796387,1117.292480 1537.839233,1132.845093 1524.494751,1144.519165 
	C1514.384888,1125.609131 1505.258789,1105.848511 1489.000000,1091.000000 
"/>
<path fill="none" opacity="1.000000" stroke="#000000" stroke-linecap="round" stroke-linejoin="round" stroke-width="6.000000"
	d="
M2661.000000,2897.000000 
	C2653.629639,2890.120605 2643.738281,2890.979980 2634.950195,2889.254150 
	C2615.017578,2885.340088 2595.437500,2880.265625 2576.000000,2874.500000 
"/>
<path fill="none" opacity="1.000000" stroke="#000000" stroke-linecap="round" stroke-linejoin="round" stroke-width="6.000000"
	d="
M1628.000000,1182.000000 
	C1610.735962,1176.441284 1593.845703,1169.563354 1575.978882,1166.109131 
	C1565.807251,1164.142578 1555.577148,1160.887451 1545.000000,1164.000000 
"/>
<path fill="none" opacity="1.000000" stroke="#000000" stroke-linecap="round" stroke-linejoin="round" stroke-width="6.000000"
	d="
M1522.000000,1171.000000 
	C1529.715698,1181.394165 1529.284912,1194.409424 1532.564575,1206.121948 
	C1536.985718,1221.910156 1541.395752,1237.825317 1544.500000,1254.000000 
"/>
<path fill="none" opacity="1.000000" stroke="#000000" stroke-linecap="round" stroke-linejoin="round" stroke-width="6.000000"
	d="
M1523.000000,1152.000000 
	C1502.594971,1157.162354 1486.010742,1169.000732 1469.950195,1181.938232 
	C1459.330200,1190.493164 1450.158936,1200.872559 1438.000000,1207.500000 
"/>
<path fill="none" opacity="1.000000" stroke="#000000" stroke-linecap="round" stroke-linejoin="round" stroke-width="6.000000"
	d="
M1603.000000,1909.000000 
	C1592.449341,1906.214722 1585.521973,1897.802246 1577.149414,1891.791870 
	C1565.029663,1883.091675 1552.494263,1875.099609 1540.044678,1866.931763 
	C1534.078247,1863.017212 1527.748901,1862.359497 1521.000000,1863.000000 
"/>
<path fill="none" opacity="1.000000" stroke="#000000" stroke-linecap="round" stroke-linejoin="round" stroke-width="6.000000"
	d="
M1518.000000,1862.000000 
	C1497.351074,1875.266724 1481.880615,1893.315308 1468.838745,1913.897827 
	C1463.855103,1921.762817 1460.656006,1930.540283 1455.140015,1938.102173 
	C1453.272705,1940.662109 1453.387695,1944.713257 1449.000000,1945.000000 
"/>
<path fill="none" opacity="1.000000" stroke="#000000" stroke-linecap="round" stroke-linejoin="round" stroke-width="5.000000"
	d="
M2017.000000,2691.000000 
	C1990.599854,2671.757812 1965.022827,2651.393555 1937.954712,2633.066895 
	C1937.652100,2632.862305 1936.666626,2633.000000 1936.000000,2632.000000 
"/>
<path fill="none" opacity="1.000000" stroke="#000000" stroke-linecap="round" stroke-linejoin="round" stroke-width="5.000000"
	d="
M1927.000000,2636.000000 
	C1918.208862,2634.820557 1911.994385,2639.795166 1906.025635,2645.029297 
	C1894.731079,2654.933350 1886.743408,2667.292236 1881.121338,2681.049561 
	C1877.840942,2689.076904 1872.265503,2696.138428 1871.000000,2705.000000 
"/>
<path fill="none" opacity="1.000000" stroke="#000000" stroke-linecap="round" stroke-linejoin="round" stroke-width="5.000000"
	d="
M2002.000000,2520.000000 
	C1980.461182,2545.164551 1960.876343,2571.813232 1942.000000,2599.000000 
"/>
<path fill="none" opacity="1.000000" stroke="#000000" stroke-linecap="round" stroke-linejoin="round" stroke-width="6.000000"
	d="
M1512.000000,1869.000000 
	C1515.285400,1882.423828 1510.846802,1895.644531 1510.601196,1908.992676 
	C1510.318359,1924.357666 1507.000000,1939.666626 1505.000000,1955.000000 
"/>
<path fill="none" opacity="1.000000" stroke="#000000" stroke-linecap="round" stroke-linejoin="round" stroke-width="6.000000"
	d="
M1449.000000,1765.000000 
	C1457.711426,1769.348999 1459.451172,1778.739868 1463.890625,1786.066284 
	C1476.318237,1806.575439 1490.355103,1825.857788 1506.000000,1844.000000 
"/>
<path fill="none" opacity="1.000000" stroke="#000000" stroke-linecap="round" stroke-linejoin="round" stroke-width="5.000000"
	d="
M1932.000000,2644.000000 
	C1947.562500,2663.718750 1957.254150,2686.396240 1964.850830,2710.047852 
	C1965.908447,2713.341064 1967.237549,2716.595459 1968.000000,2720.000000 
"/>
<path fill="none" opacity="1.000000" stroke="#000000" stroke-linecap="round" stroke-linejoin="round" stroke-width="6.000000"
	d="
M2675.000000,2785.000000 
	C2674.614014,2796.535645 2677.983643,2807.693115 2679.671143,2818.898926 
	C2680.818359,2826.516113 2679.597656,2834.445557 2682.608154,2842.153076 
	C2684.702637,2847.514893 2682.822754,2854.156982 2685.720703,2860.135498 
	C2687.122803,2863.028076 2687.520752,2868.365967 2684.839355,2870.824951 
	C2677.557373,2877.501709 2677.684570,2885.468506 2679.000000,2894.000000 
"/>
<path fill="none" opacity="1.000000" stroke="#000000" stroke-linecap="round" stroke-linejoin="round" stroke-width="5.000000"
	d="
M1874.000000,2540.000000 
	C1891.786011,2557.667236 1908.690063,2576.108643 1924.072266,2595.944092 
	C1928.448975,2601.587891 1930.974976,2608.218994 1935.000000,2614.000000 
"/>
<path fill="none" opacity="1.000000" stroke="#000000" stroke-linecap="round" stroke-linejoin="round" stroke-width="5.000000"
	d="
M2680.000000,807.000000 
	C2680.521240,800.656494 2684.748291,797.704773 2689.946289,794.900330 
	C2708.215576,785.043213 2725.957764,774.307922 2741.629639,760.775696 
	C2750.294189,761.988770 2751.368164,769.972351 2754.791260,775.138367 
	C2764.314209,789.510132 2772.865723,804.495361 2784.940674,817.057007 
	C2789.627930,821.933350 2792.041992,827.986023 2791.000000,835.000000 
"/>
<path fill="none" opacity="1.000000" stroke="#000000" stroke-linecap="round" stroke-linejoin="round" stroke-width="6.000000"
	d="
M1521.000000,1142.000000 
	C1507.930542,1142.738037 1496.542114,1135.537109 1483.988281,1134.102905 
	C1472.621216,1132.804077 1460.844971,1129.785156 1450.500000,1138.000000 
"/>
<path fill="none" opacity="1.000000" stroke="#000000" stroke-linecap="round" stroke-linejoin="round" stroke-width="4.000000"
	d="
M2826.000000,2361.000000 
	C2828.000000,2365.666748 2829.843018,2370.408203 2832.027588,2374.986816 
	C2840.291504,2392.304199 2852.116943,2397.722412 2871.000000,2392.999756 
	C2873.666748,2392.333008 2876.333252,2391.666504 2879.000000,2391.000000 
"/>
<path fill="none" opacity="1.000000" stroke="#000000" stroke-linecap="round" stroke-linejoin="round" stroke-width="5.000000"
	d="
M2731.000000,2799.000000 
	C2717.453857,2812.706299 2709.517578,2830.235352 2699.090088,2846.059326 
	C2695.633301,2851.304932 2692.531006,2856.645508 2687.000000,2860.000000 
"/>
<path fill="none" opacity="1.000000" stroke="#000000" stroke-linecap="round" stroke-linejoin="round" stroke-width="4.000000"
	d="
M2443.000000,2020.000000 
	C2433.304688,2026.552490 2421.468750,2024.566284 2411.008057,2028.024292 
	C2402.477783,2030.844238 2392.180908,2029.285278 2386.000000,2038.000000 
"/>
<path fill="none" opacity="1.000000" stroke="#000000" stroke-linecap="round" stroke-linejoin="round" stroke-width="9.000000"
	d="
M3662.000000,437.000000 
	C3658.228271,437.088409 3654.617188,436.958832 3650.947754,438.901489 
	C3633.868408,447.943787 3618.650879,459.553253 3604.000000,472.000000 
"/>
<path fill="none" opacity="1.000000" stroke="#000000" stroke-linecap="round" stroke-linejoin="round" stroke-width="8.000000"
	d="
M1370.000000,1214.000000 
	C1362.666626,1221.333252 1355.793579,1229.211304 1347.900269,1235.882080 
	C1333.307861,1248.214478 1326.634888,1265.036987 1320.015991,1282.006226 
	C1313.024170,1299.931274 1314.200195,1317.623291 1322.025635,1334.988403 
	C1324.998779,1341.586304 1325.941162,1348.169556 1323.000000,1355.000000 
"/>
<path fill="none" opacity="1.000000" stroke="#000000" stroke-linecap="round" stroke-linejoin="round" stroke-width="4.000000"
	d="
M2579.000000,2064.000000 
	C2573.635010,2074.707275 2573.743164,2086.829346 2570.408936,2098.120850 
	C2568.340820,2105.124268 2565.551025,2109.599609 2559.000000,2112.000000 
"/>
<path fill="none" opacity="1.000000" stroke="#000000" stroke-linecap="round" stroke-linejoin="round" stroke-width="9.000000"
	d="
M2395.000000,751.000000 
	C2394.798584,754.380005 2395.041260,756.116516 2390.324707,758.613403 
	C2378.026611,765.124268 2367.329590,774.661865 2356.001953,783.002808 
	C2352.315674,785.717102 2354.742920,789.681946 2354.000000,793.000000 
"/>
<path fill="none" opacity="1.000000" stroke="#000000" stroke-linecap="round" stroke-linejoin="round" stroke-width="5.000000"
	d="
M2970.000000,2293.000000 
	C2970.752441,2279.602051 2959.517822,2277.150635 2950.880859,2273.264648 
	C2944.915283,2270.580811 2937.652832,2269.621338 2933.019043,2277.011963 
	C2932.868896,2277.250977 2933.000000,2277.666748 2933.000000,2278.000000 
"/>
<path fill="none" opacity="1.000000" stroke="#000000" stroke-linecap="round" stroke-linejoin="round" stroke-width="4.000000"
	d="
M2376.000000,2183.000000 
	C2380.636230,2187.121338 2383.062988,2193.101318 2387.978760,2197.026611 
	C2394.932373,2202.579590 2401.605225,2202.393555 2407.972900,2195.972900 
	C2411.458984,2192.458008 2414.666748,2188.666748 2418.000000,2185.000000 
"/>
<path fill="none" opacity="1.000000" stroke="#000000" stroke-linecap="round" stroke-linejoin="round" stroke-width="9.000000"
	d="
M1661.000000,1815.500000 
	C1661.333374,1815.666626 1661.820801,1816.069214 1661.978027,1815.966431 
	C1675.566284,1807.084106 1688.733765,1815.330200 1701.982910,1817.126465 
	C1708.747437,1818.043579 1715.333374,1819.148438 1722.000000,1817.000000 
"/>
<path fill="none" opacity="1.000000" stroke="#000000" stroke-linecap="round" stroke-linejoin="round" stroke-width="5.000000"
	d="
M2332.000000,2156.000000 
	C2337.763428,2160.824219 2339.034912,2168.494873 2343.790283,2174.175537 
	C2350.480713,2182.167725 2358.254395,2187.797607 2368.159668,2191.056641 
	C2370.087646,2188.396973 2372.043701,2185.698486 2374.000000,2183.000000 
"/>
<path fill="none" opacity="1.000000" stroke="#000000" stroke-linecap="round" stroke-linejoin="round" stroke-width="9.000000"
	d="
M3081.000000,884.500000 
	C3066.652832,887.736328 3056.930664,898.717346 3045.000000,906.000000 
"/>
<path fill="none" opacity="1.000000" stroke="#000000" stroke-linecap="round" stroke-linejoin="round" stroke-width="9.000000"
	d="
M3130.500000,901.000000 
	C3120.247559,908.821960 3110.030518,916.708313 3097.000000,919.500000 
"/>
<path fill="none" opacity="1.000000" stroke="#000000" stroke-linecap="round" stroke-linejoin="round" stroke-width="9.000000"
	d="
M2453.000000,765.500000 
	C2440.392822,771.537170 2430.160156,781.267456 2418.000000,788.000000 
"/>
<path fill="none" opacity="1.000000" stroke="#000000" stroke-linecap="round" stroke-linejoin="round" stroke-width="3.000000"
	d="
M1720.000000,155.000000 
	C1720.000000,160.000000 1720.000000,165.000000 1720.000000,170.000000 
"/>
</svg>